<?xml version="1.0" encoding="utf-8"?>
<!-- Generator: Adobe Illustrator 23.0.3, SVG Export Plug-In . SVG Version: 6.00 Build 0)  -->
<svg version="1.1" id="Слой_1" xmlns="http://www.w3.org/2000/svg" xmlns:xlink="http://www.w3.org/1999/xlink" x="0px" y="0px"
	 viewBox="0 0 512 512" style="enable-background:new 0 0 512 512;" xml:space="preserve">
<style type="text/css">
	.st0{fill:url(#SVGID_1_);}
</style>
<linearGradient id="SVGID_1_" gradientUnits="userSpaceOnUse" x1="17.8051" y1="253.2465" x2="494.8051" y2="257.2465">
	<stop  offset="0.3187" style="stop-color:#00FCFF"/>
	<stop  offset="1" style="stop-color:#009EFD"/>
</linearGradient>
<path class="st0" d="M438.9,120.4c33.2,0,60.2-27,60.2-60.2c0-33.2-27-60.2-60.2-60.2s-60.2,27-60.2,60.2
	C378.6,93.4,405.7,120.4,438.9,120.4z M438.9,40.1c11.1,0,20.1,9,20.1,20.1s-9,20.1-20.1,20.1s-20.1-9-20.1-20.1
	S427.8,40.1,438.9,40.1z M414.8,163.5L258.4,26.1L169,123.9l29.6,27.1l62.8-68.8l44.3,38.9l-95,105.7c-22.1,24.5-20.2,62.6,4.3,84.8
	l89.4,81.3l-81.3,92.6l30.2,26.5l107.3-122.2l-73.9-67.3l88-97.9v80.4h123.4v-40.1h-83.3V163.5z M242,281.9
	c-8.1-7.4-8.8-20.1-1.4-28.3l95.3-106l30.2,26.5L257,295.5L242,281.9z M157,285.5c2.6,14.3,8.4,28,17.1,40.2l-55.9,60.6L13,291.9
	L39.8,262l76.1,68.3L157,285.5z"/>
</svg>
