<svg width="41" height="41" viewBox="0 0 41 41" fill="none" xmlns="http://www.w3.org/2000/svg">
<path d="M6.95884 22.1927C4.51389 19.3716 2.94661 20.0612 1.88086 19.9358V25.3899C1.88086 27.2707 5.45425 32.9129 8.6515 35.734C11.8487 38.5551 16.1744 38.9312 20.124 39.4954C24.0735 40.0596 28.0231 37.4266 30.6561 36.1101C32.7625 35.0569 35.6714 31.4083 36.8625 29.7156L38.5552 24.8257L35.1698 22.1927C34.4176 22.8196 32.2735 24.0734 29.7157 24.0734C26.5185 24.0734 25.0336 18.9954 21.4405 18.9954C18.0552 18.9954 16.5506 22.1927 14.2937 23.5092C12.0368 24.8257 9.04919 24.6046 6.95884 22.1927Z" fill="url(#paint0_linear_4_157)"/>
<rect x="7.89893" y="26.3303" width="5.6422" height="0.752294" rx="0.376147" fill="#78E6FF"/>
<rect x="16.9268" y="25.2018" width="5.6422" height="0.752294" rx="0.376147" fill="#78E6FF"/>
<rect x="13.165" y="29.3394" width="5.6422" height="0.752294" rx="0.376147" fill="#78E6FF"/>
<rect x="19.5596" y="32.7248" width="5.6422" height="0.752294" rx="0.376147" fill="#78E6FF"/>
<rect x="25.2017" y="27.8349" width="5.6422" height="0.752294" rx="0.376147" fill="#78E6FF"/>
<rect x="32.3486" y="24.4495" width="5.6422" height="0.752294" rx="0.376147" fill="#78E6FF"/>
<rect x="8.27539" y="34.9817" width="5.6422" height="0.752294" rx="0.376147" fill="#78E6FF"/>
<ellipse cx="37.8052" cy="20.5" rx="3.19481" ry="5.05844" fill="white"/>
<circle cx="20.5" cy="20.5" r="19" stroke="white" stroke-width="3"/>
<path d="M1.88086 19.9358C2.94661 20.0612 4.51389 19.3716 6.95884 22.1927C9.04919 24.6046 12.0368 24.8257 14.2937 23.5092C16.5506 22.1927 18.0552 18.9954 21.4405 18.9954C25.0336 18.9954 26.5185 24.0734 29.7157 24.0734C32.2735 24.0734 34.4176 22.8196 35.1699 22.1927" stroke="white" stroke-width="2"/>
<defs>
<linearGradient id="paint0_linear_4_157" x1="20.218" y1="18.9954" x2="20.218" y2="39.5735" gradientUnits="userSpaceOnUse">
<stop stop-color="#00FFFF"/>
<stop offset="1" stop-color="#00A3FF"/>
</linearGradient>
</defs>
</svg>
