<svg width="133" height="133" viewBox="0 0 133 133" fill="none" xmlns="http://www.w3.org/2000/svg">
<path d="M22.0788 99.3544H110.394C113.43 99.3544 115.913 96.8706 115.913 93.8347C115.913 90.7989 113.43 88.315 110.394 88.315H22.0788C19.0429 88.315 16.5591 90.7989 16.5591 93.8347C16.5591 96.8706 19.0429 99.3544 22.0788 99.3544ZM22.0788 71.756H110.394C113.43 71.756 115.913 69.2721 115.913 66.2363C115.913 63.2005 113.43 60.7166 110.394 60.7166H22.0788C19.0429 60.7166 16.5591 63.2005 16.5591 66.2363C16.5591 69.2721 19.0429 71.756 22.0788 71.756ZM16.5591 38.6379C16.5591 41.6737 19.0429 44.1575 22.0788 44.1575H110.394C113.43 44.1575 115.913 41.6737 115.913 38.6379C115.913 35.602 113.43 33.1182 110.394 33.1182H22.0788C19.0429 33.1182 16.5591 35.602 16.5591 38.6379Z" fill="white"/>
</svg>
