<svg width="24" height="24" viewBox="0 0 24 24" fill="none" xmlns="http://www.w3.org/2000/svg">
<path d="M12 0C18.6274 0 24 5.37258 24 12C24 18.6274 18.6274 24 12 24C5.37258 24 0 18.6274 0 12C0 5.37258 5.37258 0 12 0Z" fill="#7F4DA0"/>
<path d="M15.1971 10.4792C15.1387 10.005 14.993 9.63273 14.7342 9.30295C14.3981 8.87832 13.9686 8.62404 13.3328 8.4732C12.9184 8.37266 12.751 8.3842 12.6011 8.5211C12.4615 8.64935 12.4343 8.90647 12.5409 9.07298C12.616 9.19383 12.7025 9.23712 12.9432 9.28437C13.2638 9.34335 13.4853 9.41989 13.6868 9.53511C14.1145 9.78208 14.3137 10.1686 14.3351 10.7942C14.345 11.088 14.3704 11.1783 14.473 11.2825C14.6632 11.473 15.0016 11.4359 15.1452 11.208C15.1979 11.1221 15.2059 11.0847 15.2115 10.8852C15.2151 10.7617 15.2098 10.5779 15.1971 10.4792Z" fill="white"/>
<path d="M16.8723 11.0138C16.7878 9.56111 16.2196 8.39236 15.2027 7.57005C14.6298 7.10799 13.9372 6.79027 13.1781 6.63575C12.9 6.58049 12.388 6.5357 12.3002 6.56132C12.2173 6.58505 12.1001 6.67479 12.0478 6.75595C11.9926 6.84396 11.9801 7.04047 12.0273 7.15413C12.1033 7.34414 12.2449 7.41127 12.6412 7.44595C13.2523 7.49941 13.8825 7.71409 14.3587 8.03192C14.9024 8.39378 15.3346 8.88873 15.6142 9.47034C15.8557 9.97006 16.0043 10.6902 16.0002 11.3351C15.9988 11.5683 16.0348 11.7001 16.1286 11.7964C16.2702 11.9444 16.4766 11.9768 16.6587 11.8785C16.8606 11.7723 16.9078 11.586 16.8723 11.0138Z" fill="white"/>
<path d="M18.7262 16.6082C18.6978 16.5252 18.6315 16.3971 18.5841 16.3235C18.2857 15.8729 16.6823 14.6181 15.8818 14.2078C15.4247 13.973 15.0861 13.8947 14.835 13.9682C14.565 14.0441 14.4229 14.1698 13.9705 14.732C13.7882 14.9573 13.6011 15.1684 13.5514 15.2016C13.4282 15.287 13.1866 15.3558 13.0161 15.3558C12.6206 15.3534 11.903 15.0973 11.3512 14.7604C10.9225 14.4996 10.3731 14.0323 9.95148 13.5697C9.45411 13.0266 9.11548 12.5474 8.84782 12.0066C8.50206 11.3117 8.41443 10.8871 8.55888 10.5763C8.59442 10.4981 8.64179 10.4151 8.66308 10.389C8.68441 10.3653 8.90705 10.1826 9.15332 9.98337C9.63649 9.59914 9.71464 9.51138 9.80463 9.24809C9.91831 8.91362 9.88754 8.57207 9.71228 8.22816C9.57727 7.96723 9.22439 7.39798 8.96862 7.03033C8.62994 6.54648 7.78681 5.51232 7.61863 5.37233C7.31549 5.12568 6.92712 5.08296 6.49841 5.24903C6.04609 5.42455 5.1982 6.10766 4.83584 6.58442C4.509 7.01611 4.38352 7.32207 4.36456 7.7253C4.34799 8.05736 4.3764 8.19493 4.55166 8.61952C5.92293 11.9497 7.96915 14.6086 10.7804 16.7197C12.2488 17.8226 13.7716 18.6623 15.3513 19.2363C16.2726 19.5707 16.6728 19.5873 17.1441 19.3122C17.3431 19.1936 17.8357 18.6884 18.1104 18.3207C18.5651 17.7088 18.7333 17.4265 18.7806 17.2012C18.8138 17.047 18.7878 16.779 18.7262 16.6082Z" fill="white"/>
<path d="M18.5777 11.3474C18.5474 10.5257 18.409 9.8517 18.1205 9.10024C17.8357 8.36105 17.5475 7.87869 17.0031 7.22628C16.4884 6.61457 16.0886 6.26529 15.4546 5.8765C14.5701 5.3348 13.4936 4.97633 12.2872 4.82557C11.8758 4.77288 11.7827 4.77664 11.6565 4.86086C11.4119 5.0204 11.4151 5.41834 11.6605 5.57549C11.7417 5.62548 11.8138 5.6437 12.1429 5.68677C12.6481 5.75479 12.9729 5.81888 13.3584 5.92405C14.8699 6.33724 16.0322 7.18181 16.8093 8.43555C17.4596 9.48054 17.7296 10.5256 17.6912 11.8603C17.6779 12.3116 17.6876 12.391 17.7566 12.4994C17.8887 12.7015 18.237 12.7414 18.4157 12.5738C18.5269 12.4716 18.5479 12.3949 18.5698 12.0087C18.5803 11.8072 18.5825 11.5098 18.5777 11.3474Z" fill="white"/>
</svg>
