<svg width="20" height="15" viewBox="0 0 20 15" fill="none" xmlns="http://www.w3.org/2000/svg">
<path fill-rule="evenodd" clip-rule="evenodd" d="M18.4458 0.132141C18.2367 0.243546 17.3894 1.13933 13.7188 5.12982C8.20342 11.1257 8.27828 11.0464 8.02676 11.1582C7.76647 11.274 7.4243 11.2729 7.16899 11.1555C7.05702 11.104 5.78403 10.0194 4.30681 8.71679C2.48637 7.11156 1.58917 6.35231 1.46561 6.31238C1.17763 6.21933 0.734381 6.27299 0.49153 6.4303C-0.00808587 6.75405 -0.15177 7.41606 0.176384 7.88251C0.359039 8.14214 6.8969 14.1618 7.12624 14.2815C7.4059 14.4275 7.73531 14.4391 8.03352 14.3135C8.26386 14.2165 8.81052 13.6379 14.0551 7.93967C17.2276 4.49273 19.8624 1.58969 19.9102 1.48845C20.1699 0.938482 19.8414 0.227011 19.2474 0.0527213C18.9436 -0.036373 18.7204 -0.0142598 18.4458 0.132141Z" fill="white"/>
</svg>
