<svg width="60" height="40" viewBox="0 0 60 40" fill="none" xmlns="http://www.w3.org/2000/svg">
<rect width="60" height="40" rx="5" fill="url(#paint0_linear_3_72)"/>
<path d="M19.4033 19.6302L24.6911 21.6019L26.7525 28.2341C26.8421 28.6822 27.3798 28.7718 27.7383 28.5029L30.6959 26.0831C30.9648 25.8142 31.4129 25.8142 31.7714 26.0831L37.0592 29.9369C37.4177 30.2058 37.9554 30.0265 38.045 29.5784L41.9885 10.7575C42.0781 10.3093 41.63 9.86122 41.1819 10.0405L19.4033 18.4651C18.8656 18.6443 18.8656 19.4509 19.4033 19.6302ZM26.4836 20.616L36.8799 14.2528C37.0592 14.1632 37.2384 14.432 37.0592 14.5216L28.5449 22.4982C28.2761 22.767 28.0072 23.1255 28.0072 23.5736L27.7383 25.7246C27.7383 25.9935 27.2902 26.0831 27.2006 25.7246L26.1251 21.7812C25.8562 21.333 26.0355 20.7953 26.4836 20.616Z" fill="white"/>
<defs>
<linearGradient id="paint0_linear_3_72" x1="30" y1="0" x2="30" y2="40" gradientUnits="userSpaceOnUse">
<stop stop-color="#4EA9EF"/>
<stop offset="1" stop-color="#2F89CE"/>
</linearGradient>
</defs>
</svg>
