<svg width="60" height="40" viewBox="0 0 60 40" fill="none" xmlns="http://www.w3.org/2000/svg">
<rect width="60" height="40" rx="5" fill="url(#paint0_linear_3_73)"/>
<path d="M38.4878 11.5C36.23 9.25 33.2195 8 30.0418 8C23.4355 8 18.0836 13.3333 18.0836 19.9167C18.0836 22 18.669 24.0833 19.6725 25.8333L18 32L24.3554 30.3333C26.1115 31.25 28.0348 31.75 30.0418 31.75C36.6481 31.75 42 26.4167 42 19.8333C41.9164 16.75 40.7456 13.75 38.4878 11.5ZM35.8118 24.1667C35.561 24.8333 34.3902 25.5 33.8049 25.5833C33.3031 25.6667 32.6341 25.6667 31.9652 25.5C31.547 25.3333 30.9617 25.1667 30.2927 24.8333C27.2822 23.5833 25.3589 20.5833 25.1916 20.3333C25.0244 20.1667 23.9373 18.75 23.9373 17.25C23.9373 15.75 24.6899 15.0833 24.9408 14.75C25.1916 14.4167 25.5261 14.4167 25.777 14.4167C25.9442 14.4167 26.1951 14.4167 26.3624 14.4167C26.5296 14.4167 26.7805 14.3333 27.0314 14.9167C27.2822 15.5 27.8676 17 27.9512 17.0833C28.0348 17.25 28.0348 17.4167 27.9512 17.5833C27.8676 17.75 27.784 17.9167 27.6167 18.0833C27.4495 18.25 27.2822 18.5 27.1986 18.5833C27.0314 18.75 26.8641 18.9167 27.0314 19.1667C27.1986 19.5 27.784 20.4167 28.7038 21.25C29.8746 22.25 30.7944 22.5833 31.1289 22.75C31.4634 22.9167 31.6307 22.8333 31.7979 22.6667C31.9652 22.5 32.5505 21.8333 32.7178 21.5C32.885 21.1667 33.1359 21.25 33.3868 21.3333C33.6376 21.4167 35.1429 22.1667 35.3937 22.3333C35.7282 22.5 35.8955 22.5833 35.9791 22.6667C36.0627 22.9167 36.0627 23.5 35.8118 24.1667Z" fill="white"/>
<defs>
<linearGradient id="paint0_linear_3_73" x1="30" y1="0" x2="30" y2="40" gradientUnits="userSpaceOnUse">
<stop stop-color="#65EA7D"/>
<stop offset="1" stop-color="#48C95F"/>
</linearGradient>
</defs>
</svg>
