<svg width="66" height="61" viewBox="0 0 66 61" fill="none" xmlns="http://www.w3.org/2000/svg">
<g clip-path="url(#clip0_1_2)">
<path d="M51.084 34.1904C49.269 25.7439 57.9414 20.7907 57.9414 20.7907C57.9414 20.7907 54.56 16.2767 48.884 15.1177C43.208 13.9506 40.3678 15.4004 37.5342 16.5004C34.6962 17.5903 33.2794 17.5903 33.2794 17.5903C29.1852 17.5903 26.191 13.5846 18.3832 15.4146C13.013 16.6671 7.35022 22.4011 6.32722 29.2494C5.30202 36.0956 7.51082 44.8329 11.7656 51.6039C16.0248 58.3789 20.3588 60.9287 23.4322 60.9999C26.5056 61.0711 29.579 58.9625 33.2838 58.446C36.9886 57.9458 39.2634 59.6925 42.8978 60.638C46.5234 61.5835 47.7906 60.701 51.9552 57.4253C56.1352 54.1496 59.9258 44.7454 59.9258 44.7454C59.9258 44.7454 52.9012 42.647 51.084 34.1904Z" fill="black"/>
<path d="M43.0496 9.65232C47.0712 5.86016 45.705 0.00212097 45.705 0.00212097C45.705 0.00212097 40.0598 0.911022 36.278 4.55272C32.4918 8.19849 33.1188 13.9447 33.1188 13.9447C33.1188 13.9447 39.0236 13.4404 43.0496 9.65232Z" fill="black"/>
</g>
<defs>
<clipPath id="clip0_1_2">
<rect width="66" height="61" fill="white"/>
</clipPath>
</defs>
</svg>
