<?xml version="1.0" encoding="UTF-8"?> <svg fill="#eff0f7" xmlns="http://www.w3.org/2000/svg" id="Layer_1" height="512" viewBox="0 0 70 70" width="512" data-name="Layer 1"><path d="m48.386 59.447c-6.108 0-15.978-4.533-24.639-13.194-11.537-11.538-15.747-25.224-11.678-29.297l5.879-5.879c.935-.934 2.692-.7 3.915.529l7.4 7.4a3.728 3.728 0 0 1 1.068 1.986 2.149 2.149 0 0 1 -.54 1.929l-4.1 4.1c-.679.68-.508 2.306.458 4.351a27.123 27.123 0 0 0 5.313 7.164c5.094 5.094 10.157 7.129 11.516 5.772l4.1-4.1a2.148 2.148 0 0 1 1.929-.54 3.721 3.721 0 0 1 1.986 1.068l7.4 7.4c1.225 1.223 1.462 2.98.529 3.915l-5.879 5.879a6.439 6.439 0 0 1 -4.657 1.517zm-28.957-47.947a1.069 1.069 0 0 0 -.774.284l-5.879 5.879c-3.67 3.67.722 16.926 11.678 27.883s24.214 15.348 27.883 11.678l5.879-5.879c.534-.535.292-1.681-.529-2.5l-7.4-7.4a2.725 2.725 0 0 0 -1.441-.789 1.173 1.173 0 0 0 -1.06.261l-4.1 4.1c-2.24 2.239-8.332-1.175-12.93-5.772a28.125 28.125 0 0 1 -5.515-7.445c-1.188-2.517-1.28-4.464-.26-5.485l4.1-4.1a1.186 1.186 0 0 0 .261-1.06 2.725 2.725 0 0 0 -.789-1.441l-7.4-7.4a2.585 2.585 0 0 0 -1.724-.814z"></path><path d="m27.507 25a.5.5 0 0 1 -.354-.146l-11.136-11.138a.5.5 0 0 1 .707-.707l11.136 11.137a.5.5 0 0 1 -.353.853z"></path><path d="m56.638 54.13a.5.5 0 0 1 -.354-.147l-11.137-11.136a.5.5 0 0 1 .707-.707l11.137 11.136a.5.5 0 0 1 -.353.854z"></path><path d="m59 32.725a.5.5 0 0 1 -.5-.5 20.748 20.748 0 0 0 -20.725-20.725.5.5 0 0 1 0-1 21.75 21.75 0 0 1 21.725 21.725.5.5 0 0 1 -.5.5z"></path><path d="m53.374 32.725a.5.5 0 0 1 -.5-.5 15.116 15.116 0 0 0 -15.1-15.1.5.5 0 0 1 0-1 16.117 16.117 0 0 1 16.1 16.1.5.5 0 0 1 -.5.5z"></path><path d="m47.748 32.725a.5.5 0 0 1 -.5-.5 9.483 9.483 0 0 0 -9.473-9.472.5.5 0 0 1 0-1 10.484 10.484 0 0 1 10.473 10.472.5.5 0 0 1 -.5.5z"></path><path d="m42.121 32.725a.5.5 0 0 1 -.5-.5 3.85 3.85 0 0 0 -3.846-3.846.5.5 0 0 1 0-1 4.852 4.852 0 0 1 4.846 4.846.5.5 0 0 1 -.5.5z"></path></svg> 