<?xml version="1.0" encoding="UTF-8"?> <svg xmlns="http://www.w3.org/2000/svg" width="186" height="128" viewBox="0 0 186 128" fill="none"><rect x="1.53278" y="1.32294" width="182.566" height="124.357" rx="14.5524" fill="white" stroke="#D9D9D9" stroke-width="2.64589"></rect><path fill-rule="evenodd" clip-rule="evenodd" d="M56.4363 86.035H45.216L36.8022 53.9358C36.4029 52.4592 35.5549 51.1539 34.3076 50.5386C31.1948 48.9925 27.7647 47.7621 24.0228 47.1415V45.9057H42.0978C44.5924 45.9057 46.4633 47.7621 46.7752 49.9181L51.1407 73.0723L62.3555 45.9057H73.2639L56.4363 86.035ZM79.5005 86.035H68.9039L77.6295 45.9057H88.2261L79.5005 86.035ZM101.936 57.0225C102.247 54.8612 104.118 53.6254 106.301 53.6254C109.731 53.3151 113.468 53.9357 116.586 55.4764L118.457 46.8364C115.339 45.6006 111.908 44.98 108.796 44.98C98.5109 44.98 91.0271 50.5385 91.0271 58.253C91.0271 64.1218 96.3281 67.2033 100.07 69.0597C104.118 70.9108 105.677 72.1466 105.366 73.9977C105.366 76.7742 102.247 78.0101 99.1346 78.0101C95.3927 78.0101 91.6508 77.0845 88.2261 75.5384L86.3552 84.1838C90.0971 85.7246 94.1454 86.3452 97.8873 86.3452C109.419 86.6501 116.586 81.0969 116.586 72.7618C116.586 62.2654 101.936 61.6502 101.936 57.0225ZM153.671 86.035L145.257 45.9057H136.22C134.349 45.9057 132.478 47.1415 131.854 48.9925L116.274 86.035H127.182L129.36 80.1716H142.763L144.01 86.035H153.671ZM137.779 56.7121L140.892 71.8361H132.166L137.779 56.7121Z" fill="#172B85"></path></svg> 