<?xml version="1.0" encoding="UTF-8"?> <svg xmlns="http://www.w3.org/2000/svg" width="186" height="128" viewBox="0 0 186 128" fill="none"><rect x="1.53278" y="1.77363" width="182.566" height="124.357" rx="14.5524" fill="white" stroke="#D9D9D9" stroke-width="2.64589"></rect><path fill-rule="evenodd" clip-rule="evenodd" d="M87.6835 83.8388V67.8526H95.9343C99.3153 67.8526 102.169 66.7197 104.495 64.4854L105.054 63.919C109.303 59.2931 109.024 52.0867 104.495 47.8069C102.231 45.5412 99.1292 44.3139 95.9343 44.3768H82.6896V83.8388H87.6835ZM87.6841 63.0066V49.2232H96.0603C97.8596 49.2232 99.5659 49.9155 100.838 51.1743C103.537 53.8177 103.599 58.2233 100.993 60.9611C99.721 62.3143 97.9217 63.0695 96.0603 63.0066H87.6841ZM128.348 58.947C126.208 56.9644 123.292 55.9574 119.601 55.9574C114.855 55.9574 111.288 57.7197 108.931 61.2127L113.335 64.0135C114.948 61.6218 117.151 60.426 119.942 60.426C121.71 60.426 123.416 61.0869 124.75 62.2827C126.053 63.4156 126.797 65.0519 126.797 66.7827V67.9471C124.874 66.8771 122.455 66.3107 119.477 66.3107C116.003 66.3107 113.211 67.1289 111.133 68.7967C109.055 70.4646 108 72.6674 108 75.4681C107.938 78.0171 109.024 80.4402 110.947 82.0766C112.901 83.8389 115.383 84.72 118.298 84.72C121.741 84.72 124.471 83.178 126.549 80.0941H126.766V83.8389H131.543V67.1918C131.543 63.6988 130.488 60.9295 128.348 58.947ZM114.794 78.8668C113.77 78.1115 113.15 76.8843 113.15 75.5626C113.15 74.0835 113.832 72.8562 115.166 71.8807C116.531 70.9052 118.238 70.4017 120.254 70.4017C123.046 70.3702 125.218 70.9996 126.769 72.2583C126.769 74.3982 125.931 76.2549 124.287 77.8283C122.798 79.3388 120.782 80.1885 118.672 80.1885C117.276 80.22 115.911 79.7479 114.794 78.8668ZM142.275 95.7026L158.963 56.8385H153.535L145.812 76.2234H145.718L137.809 56.8385H132.381L143.33 82.108L137.126 95.7026H142.275Z" fill="#3C4043"></path><path d="M70.4428 64.3908C70.4428 62.8489 70.3187 61.3069 70.0706 59.7964H49.0093V68.5133H61.0753C60.5791 71.314 58.9661 73.8315 56.6088 75.405V81.0694H63.8049C68.0234 77.1357 70.4428 71.314 70.4428 64.3908Z" fill="#4285F4"></path><path d="M49.0103 86.5451C55.0278 86.5451 60.1148 84.5311 63.8059 81.0695L56.6097 75.4051C54.5936 76.7898 52.0191 77.5765 49.0103 77.5765C43.1789 77.5765 38.2471 73.5799 36.479 68.2302H29.0657V74.0834C32.8499 81.7304 40.5734 86.5451 49.0103 86.5451Z" fill="#34A853"></path><path d="M36.4797 68.2303C35.549 65.4296 35.549 62.3771 36.4797 59.5449V53.7231H29.0652C25.8699 60.1113 25.8699 67.6639 29.0652 74.0521L36.4797 68.2303Z" fill="#FBBC04"></path><path d="M49.0103 50.1988C52.2052 50.1358 55.276 51.3631 57.5713 53.5974L63.961 47.1148C59.8976 43.2756 54.5625 41.1672 49.0103 41.2301C40.5734 41.2301 32.8499 46.0763 29.0657 53.7233L36.479 59.5765C38.2471 54.1953 43.1789 50.1988 49.0103 50.1988Z" fill="#EA4335"></path></svg> 