<?xml version="1.0" encoding="UTF-8"?> <svg xmlns="http://www.w3.org/2000/svg" width="186" height="128" viewBox="0 0 186 128" fill="none"><rect x="1.59925" y="1.66181" width="182.566" height="124.357" rx="14.5524" fill="white" stroke="#D9D9D9" stroke-width="2.64589"></rect><path fill-rule="evenodd" clip-rule="evenodd" d="M50.9719 44.489C49.4173 46.3512 46.9299 47.8199 44.4426 47.6101C44.1317 45.0923 45.3494 42.417 46.7745 40.7647C48.3291 38.8501 51.0496 37.4863 53.252 37.3813C53.5111 40.0041 52.5006 42.5744 50.9719 44.489ZM53.2258 48.1084C51.0345 47.9807 49.035 48.7755 47.42 49.4174C46.3807 49.8305 45.5006 50.1803 44.831 50.1803C44.0796 50.1803 43.1632 49.8118 42.1342 49.398L42.1342 49.398L42.1342 49.398C40.7859 48.8558 39.2445 48.236 37.628 48.2657C33.9229 48.3182 30.4769 50.4426 28.5855 53.826C24.699 60.5927 27.575 70.6116 31.3319 76.1194C33.1715 78.8471 35.3739 81.837 38.2758 81.7321C39.5524 81.6834 40.4708 81.2889 41.4212 80.8807C42.5154 80.4107 43.6521 79.9224 45.4269 79.9224C47.1402 79.9224 48.2272 80.398 49.2706 80.8544C50.2627 81.2884 51.2155 81.7052 52.6299 81.6797C55.6354 81.6272 57.5268 78.952 59.3664 76.2243C61.3517 73.2968 62.2241 70.4397 62.3565 70.0061L62.3565 70.006L62.3651 69.9778L62.372 69.9559C62.3714 69.9554 62.3701 69.9545 62.368 69.9533L62.364 69.9512L62.3558 69.947L62.3469 69.9427L62.301 69.9213C61.6373 69.6138 56.565 67.2632 56.5163 60.9599C56.4675 55.6692 60.5396 52.9886 61.1806 52.5666C61.2197 52.5409 61.246 52.5236 61.2578 52.5146C58.6669 48.6329 54.6249 48.2133 53.2258 48.1084ZM74.0317 81.3915V40.5027H89.1889C97.0137 40.5027 102.481 45.958 102.481 53.9312C102.481 61.9044 96.9101 67.4122 88.9817 67.4122H80.3019V81.3915H74.0317ZM80.3013 45.8526H87.5301C92.9712 45.8526 96.0804 48.7901 96.0804 53.9569C96.0804 59.1237 92.9712 62.0875 87.5042 62.0875H80.3013V45.8526ZM123.183 76.4865C121.525 79.6863 117.871 81.7058 113.933 81.7058C108.103 81.7058 104.036 78.1913 104.036 72.8933C104.036 67.6478 107.974 64.6316 115.255 64.1858L123.079 63.7137V61.4581C123.079 58.1272 120.929 56.3175 117.094 56.3175C113.933 56.3175 111.627 57.9698 111.161 60.4877H105.512C105.694 55.1897 110.617 51.3343 117.276 51.3343C124.453 51.3343 129.116 55.1373 129.116 61.0385V81.3911H123.313V76.4865H123.183ZM115.617 76.8542C112.274 76.8542 110.15 75.2281 110.15 72.7364C110.15 70.1661 112.197 68.6712 116.109 68.4351L123.079 67.9893V70.2973C123.079 74.1265 119.866 76.8542 115.617 76.8542ZM148.367 82.9909C145.854 90.1511 142.978 92.5116 136.863 92.5116C136.397 92.5116 134.842 92.4591 134.479 92.3542V87.4496C134.868 87.5021 135.827 87.5545 136.319 87.5545C139.091 87.5545 140.646 86.3743 141.605 83.3057L142.175 81.496L131.552 51.7277H138.107L145.491 75.8833H145.621L153.005 51.7277H159.379L148.367 82.9909Z" fill="black"></path></svg> 