<?xml version="1.0" encoding="UTF-8"?> <svg xmlns="http://www.w3.org/2000/svg" width="186" height="128" viewBox="0 0 186 128" fill="none"><rect x="1.59925" y="1.86298" width="182.566" height="124.357" rx="14.5524" fill="white" stroke="#D9D9D9" stroke-width="2.64589"></rect><path fill-rule="evenodd" clip-rule="evenodd" d="M117.349 101.242C137.292 101.242 153.459 84.8878 153.459 64.7133C153.459 44.5389 137.292 28.1843 117.349 28.1843C108.412 28.1843 100.232 31.4692 93.9267 36.9106C87.6212 31.4693 79.4419 28.1844 70.5042 28.1844C50.5613 28.1844 34.3944 44.539 34.3944 64.7134C34.3944 84.8878 50.5613 101.242 70.5042 101.242C79.442 101.242 87.6213 97.9576 93.9268 92.5161C100.232 97.9575 108.412 101.242 117.349 101.242Z" fill="#ED0006"></path><path fill-rule="evenodd" clip-rule="evenodd" d="M93.9268 92.5161C101.691 85.816 106.614 75.8463 106.614 64.7133C106.614 53.5804 101.691 43.6107 93.9268 36.9106C100.232 31.4692 108.412 28.1843 117.349 28.1843C137.292 28.1843 153.459 44.5389 153.459 64.7133C153.459 84.8878 137.292 101.242 117.349 101.242C108.412 101.242 100.232 97.9575 93.9268 92.5161Z" fill="#F9A000"></path><path fill-rule="evenodd" clip-rule="evenodd" d="M93.927 92.5159C101.691 85.8158 106.614 75.8461 106.614 64.7133C106.614 53.5804 101.691 43.6107 93.927 36.9106C86.163 43.6107 81.2399 53.5804 81.2399 64.7133C81.2399 75.8461 86.163 85.8158 93.927 92.5159Z" fill="#FF5E00"></path></svg> 