<?xml version="1.0" encoding="UTF-8"?> <svg xmlns="http://www.w3.org/2000/svg" width="186" height="128" viewBox="0 0 186 128" fill="none"><rect x="1.59925" y="1.86298" width="182.566" height="124.357" rx="14.5524" fill="white" stroke="#D9D9D9" stroke-width="2.64589"></rect><path d="M151.402 45H124.064C125.656 54.0243 134.415 62.5178 143.97 62.5178H165.735C166 61.7215 166 60.3944 166 59.5981C166 51.6355 159.364 45 151.402 45Z" fill="url(#paint0_linear)"></path><path d="M126.452 64.1101V86.14H139.723V74.4615H151.402C157.772 74.4615 163.346 69.9494 165.204 64.1101H126.452Z" fill="#4FAD50"></path><path d="M79.7383 45V85.8748H91.4169C91.4169 85.8748 94.3364 85.8748 95.929 82.9552C103.892 67.2953 106.28 62.5178 106.28 62.5178H107.873V85.8748H121.144V45H109.465C109.465 45 106.546 45.2654 104.953 47.9196C98.3177 61.4561 94.6018 68.357 94.6018 68.357H93.0093V45H79.7383Z" fill="#4FAD50"></path><path d="M24 86.1404V45.2656H37.271C37.271 45.2656 40.9869 45.2656 43.1103 51.1049C48.4187 66.4993 48.9496 68.6226 48.9496 68.6226C48.9496 68.6226 50.0112 64.9067 54.7888 51.1049C56.9122 45.2656 60.6281 45.2656 60.6281 45.2656H73.8991V86.1404H60.6281V64.1105H59.0355L51.6038 86.1404H45.7645L38.3328 64.1105H36.7402V86.1404H24Z" fill="#4FAD50"></path><defs><linearGradient id="paint0_linear" x1="124.016" y1="53.8844" x2="165.906" y2="53.8844" gradientUnits="userSpaceOnUse"><stop stop-color="#27B1E6"></stop><stop offset="1" stop-color="#148ACA"></stop></linearGradient></defs></svg> 