<?xml version="1.0" encoding="UTF-8"?> <svg xmlns="http://www.w3.org/2000/svg" width="186" height="128" viewBox="0 0 186 128" fill="none"><rect x="1.59925" y="1.86298" width="182.566" height="124.357" rx="14.5524" fill="white" stroke="#D9D9D9" stroke-width="2.64589"></rect><path d="M99.3765 48H89V62H99.3765C101.706 62 103.612 61.3913 104.882 60.1739C106.365 58.9565 107 57.1304 107 55.1015C107 53.0725 106.365 51.4493 104.882 50.029C103.612 48.8116 101.706 48 99.3765 48Z" fill="#4FAD50"></path><path d="M94 21C70.7353 21 52 39.7353 52 63C52 86.2647 70.7353 105 94 105C117.265 105 136 86.2647 136 63C135.794 39.7353 117.059 21 94 21ZM110.059 65.0588C107.382 67.5294 103.882 68.9706 99.7647 68.9706H89.0588V72.6765H104.912C105.118 72.6765 105.529 72.6765 105.735 72.8824C105.941 73.0882 105.941 73.2941 105.941 73.7059V77.8235C105.941 78.0294 105.941 78.4412 105.735 78.647C105.529 78.8529 105.324 78.8529 104.912 78.8529H89.0588V84.8235C89.0588 85.0294 89.0588 85.4411 88.8529 85.647C88.647 85.8529 88.4412 85.8529 88.2353 85.8529H82.8823C82.6765 85.8529 82.2647 85.8529 82.0588 85.647C81.8529 85.4411 81.8529 85.2353 81.8529 84.8235V78.8529H74.8529C74.6471 78.8529 74.2353 78.8529 74.0294 78.647C73.8235 78.4412 73.8235 78.2353 73.8235 77.8235V73.7059C73.8235 73.5 73.8235 73.0882 74.0294 72.8824C74.2353 72.6765 74.4412 72.6765 74.8529 72.6765H81.8529V68.9706H74.8529C74.6471 68.9706 74.2353 68.9706 74.0294 68.7647C73.8235 68.5588 73.8235 68.353 73.8235 67.9412V63.2059C73.8235 63 73.8235 62.7941 74.0294 62.5882C74.2353 62.3824 74.4412 62.3823 74.8529 62.3823H81.8529V42.6176C81.8529 42.4118 81.8529 42 82.0588 41.7941C82.2647 41.5882 82.4706 41.5882 82.8823 41.5882H99.9706C104.088 41.5882 107.588 42.8235 110.265 45.5C112.941 47.9706 114.176 51.4706 114.176 55.3824C114.176 59.0882 112.735 62.3823 110.059 65.0588Z" fill="#4FAD50"></path></svg> 