<?xml version="1.0" encoding="UTF-8"?> <svg xmlns="http://www.w3.org/2000/svg" fill="#6a7df7" id="Layer_5" height="512" viewBox="0 0 62 62.278" width="512"><g><path d="m51.97 34.86c.01-.279.03-.556.03-.836 0-1.673-.167-3.35-.496-4.983l-3.829-19.071-8.475-1.876c-2.755-.609-5.376-1.859-7.58-3.616l-5.62-4.478-5.621 4.478c-2.204 1.757-4.825 3.008-7.582 3.616l-8.472 1.876-3.829 19.068c-.329 1.636-.496 3.314-.496 4.986 0 8.063 3.897 15.723 10.425 20.491l6.641 4.85c2.608 1.905 5.698 2.913 8.934 2.913 3.237 0 6.326-1.008 8.934-2.913l2.558-1.867c2.568 2.923 6.321 4.781 10.509 4.781 7.72 0 14-6.28 14-14-.001-6.341-4.24-11.702-10.031-13.419zm-18.216 22.89c-2.263 1.654-4.944 2.528-7.754 2.528-2.809 0-5.491-.874-7.754-2.528l-6.641-4.85c-6.014-4.393-9.605-11.449-9.605-18.876 0-1.54.154-3.085.457-4.592l3.572-17.791 7.2-1.595c3.052-.675 5.956-2.06 8.396-4.005l4.375-3.484 4.374 3.485c2.441 1.945 5.344 3.33 8.394 4.005l7.203 1.595 3.573 17.794c.303 1.504.456 3.048.456 4.588 0 .138-.012.274-.015.411-.65-.093-1.31-.157-1.985-.157-.003 0-.006 0-.009 0 .001-.084.009-.169.009-.254 0-1.407-.141-2.819-.417-4.196l-3.316-16.517-5.93-1.313c-3.346-.739-6.53-2.259-9.208-4.393l-3.129-2.491-3.128 2.491c-2.678 2.136-5.863 3.654-9.21 4.394l-5.928 1.313-3.317 16.515c-.276 1.377-.417 2.789-.417 4.197 0 6.79 3.284 13.242 8.784 17.261l6.642 4.851c1.919 1.401 4.192 2.143 6.574 2.143s4.655-.741 6.575-2.144l2.729-1.993c.284.613.606 1.204.973 1.766zm-11.754-32.472h8v4c0 2.206-1.794 4-4 4s-4-1.794-4-4zm3-2h-7.434c-1.976 0-3.622 1.481-3.829 3.447l-1.716 16.301c-.014.133-.021.268-.021.402 0 2.123 1.728 3.851 3.851 3.851h9.149v8.94c-1.588-.172-3.091-.745-4.395-1.698l-6.642-4.851c-4.986-3.643-7.963-9.491-7.963-15.646 0-1.276.127-2.556.378-3.803l3.06-15.238 4.655-1.031c3.644-.805 7.11-2.458 10.025-4.782l.882-.702zm2 24h7.051c-.024.332-.051.662-.051 1 0 1.363.205 2.677.57 3.923l-3.175 2.318c-1.303.952-2.808 1.526-4.395 1.698zm7.332-2h-18.481c-1.021 0-1.851-.83-1.851-1.851 0-.065.003-.13.01-.193l1.716-16.3c.1-.944.891-1.656 1.84-1.656h2.434v4c0 3.309 2.691 6 6 6s6-2.691 6-6v-4h2.434c.949 0 1.74.712 1.84 1.656l1.27 12.066c-1.561 1.758-2.691 3.902-3.212 6.278zm5.042-8.004-1.11-10.549c-.207-1.966-1.854-3.447-3.829-3.447h-7.435v-14.81l.882.703c2.915 2.322 6.381 3.976 10.022 4.781l4.658 1.031 3.06 15.239c.251 1.248.378 2.527.378 3.802 0 .139-.011.277-.015.416-2.471.359-4.733 1.358-6.611 2.834zm8.626 23.004c-6.617 0-12-5.383-12-12s5.383-12 12-12 12 5.383 12 12-5.383 12-12 12z"></path><path d="m55.293 41.571-11.293 11.293-3.293-3.293-1.414 1.414 4.707 4.707 12.707-12.707z"></path></g></svg> 