<svg width="32" height="32" viewBox="0 0 32 32" fill="none" xmlns="http://www.w3.org/2000/svg">
<path d="M26.8999 15.7001C26.7999 15.3001 26.3999 15.0001 25.9999 15.0001H19.9999L23.8999 3.30008C23.9999 2.90008 23.8999 2.40008 23.4999 2.20008C23.0999 1.90008 22.6999 2.00008 22.2999 2.20008L5.29994 15.2001C4.99994 15.5001 4.79994 15.9001 4.99994 16.3001C5.19994 16.7001 5.59994 17.0001 5.99994 17.0001H11.9999L8.09994 28.7001C7.99994 29.1001 8.09994 29.6001 8.49994 29.8001C8.59994 29.9001 8.79994 30.0001 8.99994 30.0001C9.19994 30.0001 9.39994 29.9001 9.59994 29.8001L26.5999 16.8001C26.8999 16.5001 27.0999 16.1001 26.8999 15.7001Z" fill="white"/>
</svg>
