<svg width="28" height="28" viewBox="0 0 28 28" fill="none" xmlns="http://www.w3.org/2000/svg">
<path d="M20.5915 7.40816C18.6898 5.50649 15.9948 4.40983 13.0315 4.71316C8.74982 5.14483 5.22649 8.6215 4.74815 12.9032C4.10649 18.5615 8.48149 23.3332 13.9998 23.3332C17.7215 23.3332 20.9182 21.1515 22.4115 18.0132C22.7848 17.2315 22.2248 16.3332 21.3615 16.3332C20.9298 16.3332 20.5215 16.5665 20.3348 16.9515C19.0165 19.7865 15.8548 21.5832 12.4015 20.8132C9.81149 20.2415 7.72316 18.1298 7.17482 15.5398C6.19482 11.0132 9.63649 6.99983 13.9998 6.99983C15.9365 6.99983 17.6632 7.80483 18.9232 9.0765L17.1615 10.8382C16.4265 11.5732 16.9398 12.8332 17.9782 12.8332H22.1665C22.8082 12.8332 23.3332 12.3082 23.3332 11.6665V7.47816C23.3332 6.43983 22.0732 5.91483 21.3382 6.64983L20.5915 7.40816Z" fill="white"/>
</svg>
