<svg width="40" height="41" viewBox="0 0 40 41" fill="none" xmlns="http://www.w3.org/2000/svg">
<path d="M36.4241 7.76455C36.4459 7.62336 36.4178 7.47893 36.3447 7.35653C36.2716 7.23412 36.1581 7.14155 36.0241 7.09499C30.8028 4.78513 25.5948 2.45107 20.4001 0.0928061C20.2829 0.0332303 20.1534 0.00219727 20.0221 0.00219727C19.8908 0.00219727 19.7614 0.0332303 19.6441 0.0928061C14.4148 2.43762 9.18812 4.77572 3.96412 7.10709C3.83722 7.14115 3.72683 7.22035 3.65331 7.33007C3.57979 7.43979 3.54811 7.57262 3.56412 7.70405C3.60012 11.2939 3.56012 14.8877 3.60012 18.4776C3.62333 23.4235 5.22189 28.2311 8.16012 32.1915C11.0001 36.0475 14.6321 38.8105 19.2361 40.2061C19.7321 40.3637 20.2641 40.3637 20.7601 40.2061C25.0057 38.925 28.7374 36.3161 31.4161 32.7562C34.6735 28.6311 36.4373 23.5086 36.4161 18.2355C36.4161 16.6826 36.4161 15.1338 36.4161 13.5809C36.4001 11.6448 36.4001 9.70467 36.4241 7.76455ZM33.6001 14.7103C33.6001 15.9969 33.6001 17.2836 33.6001 18.5663C33.6202 22.9361 32.1612 27.182 29.4641 30.6023C27.2447 33.5582 24.1501 35.7252 20.6281 36.7897C20.2168 36.9206 19.7754 36.9206 19.3641 36.7897C15.6595 35.656 12.4315 33.3172 10.1841 30.1384C7.74648 26.8554 6.4199 22.8692 6.40012 18.768C6.36812 15.7912 6.40012 12.8145 6.40012 9.83777C6.3874 9.73032 6.41301 9.6218 6.47237 9.53164C6.53173 9.44149 6.62097 9.37557 6.72412 9.34569C11.0414 7.41767 15.3641 5.47755 19.6921 3.52533C19.7895 3.4757 19.897 3.44984 20.0061 3.44984C20.1152 3.44984 20.2228 3.4757 20.3201 3.52533C24.6401 5.47755 28.9574 7.41229 33.2721 9.32955C33.3829 9.36874 33.4765 9.44599 33.5364 9.54776C33.5964 9.64953 33.6189 9.76933 33.6001 9.88618C33.6001 11.4955 33.6001 13.1009 33.6001 14.7103Z" fill="url(#paint0_linear_38_585)"/>
<path d="M25.6001 14.1738C25.54 14.116 25.4682 14.072 25.3896 14.045C25.3109 14.018 25.2274 14.0085 25.1448 14.0174C25.0622 14.0262 24.9825 14.0531 24.9112 14.0961C24.84 14.1391 24.7788 14.1973 24.7321 14.2666C24.5841 14.4158 24.4521 14.5812 24.3081 14.7345L19.4321 19.978L17.8321 21.6842L17.7001 21.5914L16.0001 20.2402C15.6961 19.9982 15.3921 19.7602 15.0801 19.5303C14.9922 19.4508 14.8811 19.4023 14.7635 19.3922C14.6459 19.382 14.5282 19.4106 14.4281 19.4738C14.1909 19.6332 13.9687 19.8141 13.7641 20.0143C13.6941 20.0872 13.6502 20.1814 13.6394 20.2823C13.6285 20.3831 13.6513 20.4847 13.7041 20.571C13.7795 20.7198 13.8637 20.8639 13.9561 21.0025L17.3601 26.0001C17.4119 26.0951 17.488 26.1744 17.5805 26.2296C17.673 26.2849 17.7786 26.314 17.8861 26.314C17.9936 26.314 18.0992 26.2849 18.1917 26.2296C18.2843 26.1744 18.3604 26.0951 18.4121 26.0001C20.8894 22.6496 23.3668 19.3031 25.8441 15.9606C26.0041 15.7428 26.1481 15.5089 26.2881 15.2749C26.3517 15.1842 26.3796 15.0728 26.3663 14.9625C26.353 14.8521 26.2995 14.7507 26.2161 14.678C26.0246 14.4935 25.8186 14.3249 25.6001 14.1738Z" fill="url(#paint1_linear_38_585)"/>
<defs>
<linearGradient id="paint0_linear_38_585" x1="19.9957" y1="0.00219727" x2="19.9957" y2="40.3243" gradientUnits="userSpaceOnUse">
<stop stop-color="#00F0FF"/>
<stop offset="1" stop-color="#00A3FF"/>
</linearGradient>
<linearGradient id="paint1_linear_38_585" x1="20.0031" y1="14.0142" x2="20.0031" y2="26.314" gradientUnits="userSpaceOnUse">
<stop stop-color="#00F0FF"/>
<stop offset="1" stop-color="#00A3FF"/>
</linearGradient>
</defs>
</svg>
