<svg width="25" height="25" viewBox="0 0 25 25" fill="none" xmlns="http://www.w3.org/2000/svg">
<path d="M21.0018 15.3654C20.7551 13.9083 20.1958 12.5775 19.6393 11.3699C17.9671 7.68415 15.9536 4.33684 13.9716 1.23911L13.7249 0.805997C13.3836 0.27822 12.982 0 12.5174 0C11.8347 0 11.4016 0.619539 11.2782 0.805997C11.2782 0.805997 11.2782 0.805997 11.2782 0.837563L10.8451 1.5202C10.0707 2.75931 9.2647 4.06149 8.49027 5.36083C7.28272 7.40593 5.76539 10.1308 4.64964 13.0421C4.27676 14.003 3.93831 14.9639 3.90674 16.0165C3.78342 18.7414 4.77297 21.036 6.81804 22.8316C8.39847 24.2256 10.412 25 12.4858 25C15.5204 25 18.2797 23.4511 19.8573 20.818C20.91 19.0827 21.3115 17.2241 21.0018 15.3654ZM18.8649 20.23C17.5024 22.5218 15.116 23.8527 12.4829 23.8527C10.6874 23.8527 8.92051 23.2016 7.55807 21.994C5.79121 20.4452 4.92499 18.4316 5.01678 16.0768C5.04835 15.2105 5.32657 14.373 5.69942 13.4752C6.78364 10.6241 8.2694 7.96237 9.44828 5.94883C10.1912 4.67819 10.9971 3.37885 11.8031 2.13974L12.2047 1.48864C12.2047 1.45707 12.2363 1.45707 12.2363 1.42554C12.2994 1.33374 12.4227 1.17885 12.4829 1.14732C12.4829 1.14732 12.5747 1.17888 12.7296 1.42554L12.9763 1.82708C14.8981 4.86174 16.9116 8.17746 18.5523 11.803C19.08 12.979 19.6049 14.2181 19.8229 15.5203C20.1355 17.1323 19.7942 18.7098 18.8649 20.23ZM13.0394 20.9098C13.0394 21.2196 12.7927 21.4663 12.4829 21.4663C9.6634 21.4663 7.40321 19.1745 7.40321 16.3865C7.40321 16.0767 7.64989 15.8301 7.95965 15.8301C8.26943 15.8301 8.51609 16.0768 8.51609 16.3865C8.54762 18.555 10.3145 20.3218 12.4829 20.3218C12.7927 20.3218 13.0394 20.6 13.0394 20.9098Z" fill="white"/>
</svg>
