<?xml version="1.0" encoding="UTF-8"?>
<svg id="OBJECTS" xmlns="http://www.w3.org/2000/svg" xmlns:xlink="http://www.w3.org/1999/xlink" viewBox="0 0 380.86 461.85">
  <defs>
    <style>
      .cls-1 {
        fill: #fff;
      }

      .cls-2 {
        fill: #0d162b;
      }

      .cls-3 {
        fill: #fbaa3a;
      }

      .cls-4 {
        fill: #333;
      }

      .cls-5 {
        fill: #e38875;
      }

      .cls-6 {
        fill: #e5e6e7;
      }

      .cls-7, .cls-8 {
        fill: none;
      }

      .cls-9 {
        fill: #fb663a;
      }

      .cls-8 {
        clip-path: url(#clippath);
      }

      .cls-10 {
        fill: #e6e7e8;
      }

      .cls-11 {
        fill: #f1f1f1;
      }

      .cls-12 {
        fill: #006fff;
      }
    </style>
    <clipPath id="clippath">
      <path class="cls-7" d="m363.47,86.76v162.85c0,27.36-4.45,50.98-11.88,71.36-14.53,39.76-40.47,67.15-67.07,85.83-43.47,30.5-88.67,37.77-88.67,37.77,0,0-45.3-7.26-88.83-37.88-26.6-18.71-52.49-46.12-66.96-85.91C32.66,300.46.85,248,.85,248L0,101.54l28.23,1.78v-16.55l6.36-3.6c24.6-13.87,47.37-57.66,74.46-64.79C136.17,11.25,167.61,0,195.84,0c56.5,0,112.04,55.43,161.25,83.17l6.36,3.6h.02Z"/>
    </clipPath>
  </defs>
  <path class="cls-12" d="m373,77.89v172.12c0,28.92-4.7,53.88-12.56,75.42-15.35,42.02-42.77,70.97-70.88,90.71-45.95,32.24-93.71,39.92-93.71,39.92,0,0-47.88-7.68-93.89-40.03-28.11-19.77-55.47-48.75-70.77-90.8-7.82-21.47-12.5-46.38-12.5-75.21V77.89l6.72-3.81c26-14.66,53.68-25.83,82.31-33.36,28.66-7.53,58.27-11.37,88.12-11.37,59.72,0,118.42,15.41,170.43,44.74l6.72,3.81h.01Z"/>
  <g class="cls-8">
    <g>
      <path class="cls-5" d="m147.6,201.47c3.42-.94,6.97-3.46,8.03-5.48,3.88-7.42,12.36-86.53,12.36-86.53l48.92,20.2s4.92,66.86,12.79,69.66c3.15,1.11,6.66,2.23,10.41,3.34l.05.02c5.14,1.52,16.3,4.42,16.3,4.42v77.64l-134.73-1.18-4.52-69.74c9.65-2.08,30.39-12.35,30.39-12.35h0Z"/>
      <g>
        <path class="cls-11" d="m146.22,202.02s-34.65,10.05-53.1,15.33c-16.61,4.75-21.2,7.07-30.83,25.35-17.56,33.33-33.1,86.08-44.1,109.3-14.12,29.81-10.36,55.23-12.24,65.59-1.88,10.36,37.08,18.9,37.08,18.9l23.16-8.16v33.5h127.18v-194.01s-23.44-37.57-34.36-46.04-12.8-19.77-12.8-19.77h.01Z"/>
        <path class="cls-11" d="m240.54,202.02s45.4,12.67,52.01,14.98c20.77,7.24,28.1,21.48,33.36,30.81,18.52,32.81,31.66,80.98,42.66,104.2,14.12,29.81,10.36,55.23,12.24,65.59s-53.29,21.47-53.29,21.47l-6.96-72.3v95.08h-127.18v-194.01s23.44-37.57,34.36-46.04,12.8-19.77,12.8-19.77h0Z"/>
        <path class="cls-6" d="m193.38,254.49c-1.41-10.44-18.57-33.61-25.6-44.05-7.04-10.44-7.92-35.35-7.92-35.35,0,0-29.09,31.84-33.32,47.5-4.22,15.66,0,21.46,0,21.46,0,0,12.66-13.34,20.4-17.4,7.74-4.06,16.18-1.74,24.63,10.44,8.44,12.18,21.81,30.74,21.81,30.74v-13.34Z"/>
        <path class="cls-6" d="m193.38,254.49c1.41-10.44,16.87-32.34,23.91-42.78s5.43-32.61,5.43-32.61c0,0,33.28,27.84,37.5,43.5s0,21.46,0,21.46c0,0-12.66-13.34-20.4-17.4s-16.18-1.74-24.63,10.44c-8.44,12.18-21.81,30.74-21.81,30.74v-13.34h0Z"/>
        <path class="cls-4" d="m157.9,425.97l-80.62-170.12c-1.69-3.47-1.19-7.63,1.23-10.63l18.23-22.23c1.32-1.99,1.81-4.45,1.26-6.82l-2.29-10.02h0l-31.79-32.39c-.81-.82-2.19-.09-1.96,1.04l7.19,35.56-16.05,13.89-22.01-8.21-8.33-34.5c-.19-.77-1.28-.9-1.64-.16l-16.05,32.73c-.24.6-.3,1.21-.1,1.79l6.33,19.84c.72,2.13,2.14,3.91,4.11,4.96l26.85,14.8c1.43.84,2.59,1.88,3.43,3.23.41.55.69,1.1.95,1.71l75.29,182.11c2.36,5.7,8.94,8.32,14.48,5.9l.46-.19,15.88-7.63c5.48-2.58,7.78-9.16,5.15-14.66h0Z"/>
        <g>
          <path class="cls-3" d="m190.69,338.2s-84.94-44.68-89.37-44.31-30.28,12.56-36.56,18.46c-6.28,5.91-7.02,10.34-5.54,14.77,1.48,4.43,3.32,4.74,3.32,4.74,0,0-4.25,4.86-3.97,11.14.28,6.28,2.49,9,2.49,9,0,0-3.87,2.03-2.51,9.99,1.37,7.96,7.64,16.22,7.64,16.22l124.49-40.02h.01Z"/>
          <path class="cls-5" d="m303.61,436.49c-16.28-5.17-57.04-28.78-85.23-43.91-30.75-16.5-48.61-30.59-48.61-30.59,0,0,1.9-28.79,19.41-33.25,0,0,122.79,17.93,126.94,18.62,4.09.68,22.1,14.5,26.19,34.24,4.03,19.45-3.8,37.7-3.8,37.7l-34.89,17.19h-.01Z"/>
          <path class="cls-2" d="m308.7,346.25c6.06.09,24.67.12,38.68,14.11,13.33,13.3,17.82,37.6,21.22,49.4,3.35,11.65-3.74,18.33-6.31,20.98-2.6,2.68-21,6.61-34.77,8.31-14.48,1.79-23.91-2.56-23.91-2.56,0,0,24.49-20.42,27.41-34.53,2.89-13.96-4.43-34.94-7.53-40.4-3.14-5.52-14.79-15.31-14.79-15.31Z"/>
          <path class="cls-5" d="m82.76,436.49c16.28-5.17,57.04-28.78,85.23-43.91,30.75-16.5,50.51-35.06,50.51-35.06,0,0-3.8-24.31-21.31-28.78,0,0-132.79,21.15-136.94,21.85-4.09.68-12.09,11.27-16.19,31.01-4.03,19.45,3.81,37.7,3.81,37.7l34.89,17.19h0Z"/>
          <path class="cls-2" d="m60.25,350.59c-5.79-.03-7.6,2.34-21.8,16.42-13.33,13.3-17.28,30.95-20.68,42.75-3.35,11.65,3.74,18.33,6.31,20.98,2.6,2.68,21,6.61,34.77,8.31,14.48,1.79,23.9-2.56,23.9-2.56,0,0-24.49-20.42-27.41-34.53-2.89-13.96-1.99-35.04-.17-41.05,2.28-7.56,5.07-10.33,5.07-10.33h.01Z"/>
          <path class="cls-3" d="m191.73,378.22s-6.41-42.53-17.61-46.36c0,0,98.65-26.99,107.12-27.93,8.2-.92,14.84,8.57,16.15,13.5,1.3,4.9,11.31,28.82,11.31,28.82,0,0-24.43-3.39-27.7-4.08-3.32-.69-34.8,3.16-40.12,3.51-5.43.35-49.15,32.54-49.15,32.54h0Z"/>
        </g>
      </g>
      <g>
        <path class="cls-9" d="m233.26,83.53s19.47,6.28,31.43,3.31,19.5-13.83,13.12-21.74c-6.37-7.91-29.33-9.91-55.03,1.31l10.47,17.12h.01Z"/>
        <g>
          <path class="cls-2" d="m239.49,51.43c11.9,9.57,15.93,29.31,11.16,45.81-3.07,10.61-12.4,23.68-12.4,23.68,0,0-9.72-36.69-15.8-49.57s-15.96-29.76-15.96-29.76l33,9.83h0Z"/>
          <path class="cls-5" d="m217.86,48.22c7.48,3.87,20.4,12.19,21.3,18.82s4.6,25.98,4.23,37.46c-.38,11.48,2.56,33.71,1.26,47.15s-1.68,27.24-19.28,35.93c-16.25,8.02-35.26-1.96-48.71-10.43-15.64-9.85-21.62-18.8-21.71-47.43,0,0-11.73-52.22-9.18-60.22,6.19-19.45,46.15-12.62,57.44-14.7s14.66-6.57,14.66-6.57h-.01Z"/>
          <path class="cls-2" d="m149.98,68.1c-3.6,6.36,9.11,13.66,10.29,19.32,2.36,11.33-.13,24.73-.13,24.73l-3.89,11.06s6.01,22.74,2.21,34.4c-2.06,6.34-41.13-44.02-33-80.14,4.67-20.75,19.41-23.39,19.41-23.39,2.41-21.28,11.65-30.22,53.05-30.63,41.4-.41,44.46,31.57,42.01,35.66s-21.81,5.9-32.63,6.95c-39.66,3.82-29.95-2.92-45.77-5.13-3.37-.47-7.96.8-11.56,7.17h0Z"/>
          <path class="cls-5" d="m158.45,126.9s-.26-10.79-5.48-15.63c-4.4-4.09-13.16-3.79-15.01,5.84-2.6,13.59,13.99,28.93,17.48,27.04l3-17.26h0Z"/>
          <path class="cls-2" d="m244.97,145.06s-1.85,8.89-3.55,10.61c-1.7,1.72-4.61-5.91-9.07-9.75-9.18-7.9-22.32-6.49-31.14-.65-10.5,6.95-13.27,18.51-21.29,16.48-7-1.77-10-4.67-14.26-18.04-3.46-10.85-4.52-40.61-4.52-40.61l-7.37,2.97s-.16,32.01,2.13,44.87c1.9,10.68-1.72,16.86,14.78,30.61,11.47,9.55,30.32,12.85,41.04,12.46,33.07-1.2,33.86-22.88,33.78-37.37-.04-8.18-.54-11.59-.54-11.59h0Zm-34.56,28.03c-9.89,1.87-14.14-1.34-13.72-3.73.52-2.96,3-12.44,9.94-17.74,6.03-4.6,13.31-5.3,19.41-3.07,5.76,2.11,11.9,16.36,6.66,20.92-6.93,6.03-5.55-2.23-12.92-1.96-5.46.2-7.06,5.14-9.37,5.58h0Z"/>
        </g>
        <path class="cls-1" d="m125.5,104.03s6.13-9.58,49.54-27.31c34.66-14.16,74.24-16.47,74.24-16.47,0,0-12.1-55.1-72.77-47.88-32.04,3.81-49.6,24.32-54.95,43.39-6.88,24.51,3.95,48.27,3.95,48.27h-.01Z"/>
        <path class="cls-10" d="m149.61,88.02s13.82-18.61,39.89-29.34c26.07-10.73,58.9-5.16,71.92-2.47,13.02,2.69,16.39,8.89,16.39,8.89,0,0-18.7-9.45-38.78.79s-25.3,21.78-42.2,24.98c-16.9,3.2-47.22-2.85-47.22-2.85h0Z"/>
      </g>
    </g>
  </g>
</svg>