<svg width="216" height="60" viewBox="0 0 216 60" fill="none" xmlns="http://www.w3.org/2000/svg">
<rect width="216" height="60" fill="white"/>
<circle cx="52.5" cy="21.5" r="5" stroke="#FF9660" stroke-width="3"/>
<circle cx="24.5" cy="19.5" r="5" stroke="#FF9660" stroke-width="3"/>
<circle cx="35.5" cy="38.5" r="5" stroke="#FF9660" stroke-width="3"/>
<circle cx="7.5" cy="37.5" r="5" stroke="#FF9660" stroke-width="3"/>
<path d="M49.5 17.5L37.5 6H16.5L3 19.5L22.5 39H31M29 20.5H38.5L57 39L42.5 53.5H22.5L10 41" stroke="#FF9660" stroke-width="3"/>
<path d="M69.0746 23.6364H72.2983L75.7031 31.9432H75.848L79.2528 23.6364H82.4766V36H79.9411V27.9528H79.8384L76.6388 35.9396H74.9123L71.7127 27.9226H71.6101V36H69.0746V23.6364ZM87.2261 36.1751C86.6345 36.1751 86.1073 36.0724 85.6444 35.8672C85.1816 35.6579 84.8154 35.35 84.5457 34.9435C84.2801 34.533 84.1473 34.0219 84.1473 33.4102C84.1473 32.895 84.2419 32.4624 84.431 32.1122C84.6202 31.7621 84.8778 31.4804 85.2037 31.267C85.5297 31.0537 85.9 30.8928 86.3145 30.7841C86.7331 30.6754 87.1718 30.599 87.6306 30.5547C88.1699 30.4983 88.6046 30.446 88.9346 30.3977C89.2646 30.3454 89.5041 30.2689 89.653 30.1683C89.8019 30.0677 89.8763 29.9188 89.8763 29.7216V29.6854C89.8763 29.303 89.7556 29.0072 89.5141 28.7979C89.2767 28.5887 88.9386 28.484 88.4999 28.484C88.0371 28.484 87.6688 28.5866 87.3952 28.7919C87.1215 28.9931 86.9404 29.2467 86.8518 29.5526L84.4733 29.3594C84.594 28.7959 84.8315 28.3089 85.1856 27.8984C85.5398 27.4839 85.9966 27.166 86.556 26.9446C87.1195 26.7192 87.7715 26.6065 88.512 26.6065C89.0271 26.6065 89.5202 26.6669 89.991 26.7876C90.4659 26.9084 90.8865 27.0955 91.2528 27.3491C91.623 27.6026 91.9148 27.9286 92.1281 28.3271C92.3414 28.7215 92.4481 29.1944 92.4481 29.7457V36H90.0091V34.7141H89.9367C89.7878 35.0039 89.5886 35.2595 89.339 35.4808C89.0895 35.6982 88.7897 35.8692 88.4395 35.994C88.0894 36.1147 87.6849 36.1751 87.2261 36.1751ZM87.9626 34.4002C88.3409 34.4002 88.675 34.3258 88.9648 34.1768C89.2545 34.0239 89.4819 33.8187 89.6469 33.5611C89.8119 33.3035 89.8944 33.0117 89.8944 32.6857V31.7017C89.814 31.754 89.7033 31.8023 89.5624 31.8466C89.4256 31.8868 89.2706 31.9251 89.0976 31.9613C88.9245 31.9935 88.7515 32.0237 88.5784 32.0518C88.4053 32.076 88.2484 32.0981 88.1075 32.1183C87.8057 32.1625 87.5421 32.233 87.3167 32.3295C87.0913 32.4261 86.9162 32.5569 86.7915 32.7219C86.6667 32.8829 86.6043 33.0842 86.6043 33.3256C86.6043 33.6758 86.7311 33.9434 86.9846 34.1286C87.2422 34.3097 87.5682 34.4002 87.9626 34.4002ZM98.6329 36.1811C97.6831 36.1811 96.8661 35.9799 96.1819 35.5774C95.5017 35.1709 94.9785 34.6075 94.6123 33.8871C94.2501 33.1667 94.069 32.3376 94.069 31.3999C94.069 30.45 94.2521 29.617 94.6183 28.9006C94.9886 28.1802 95.5138 27.6187 96.194 27.2163C96.8741 26.8098 97.6831 26.6065 98.6208 26.6065C99.4298 26.6065 100.138 26.7534 100.746 27.0472C101.354 27.341 101.834 27.7536 102.189 28.2848C102.543 28.8161 102.738 29.4399 102.774 30.1562H100.347C100.279 29.6934 100.098 29.3211 99.8041 29.0394C99.5143 28.7537 99.134 28.6108 98.6631 28.6108C98.2646 28.6108 97.9165 28.7195 97.6187 28.9368C97.3249 29.1501 97.0955 29.462 96.9305 29.8725C96.7655 30.283 96.683 30.7801 96.683 31.3636C96.683 31.9553 96.7635 32.4583 96.9244 32.8729C97.0895 33.2874 97.3209 33.6033 97.6187 33.8207C97.9165 34.038 98.2646 34.1467 98.6631 34.1467C98.9569 34.1467 99.2205 34.0863 99.4539 33.9656C99.6914 33.8448 99.8866 33.6697 100.04 33.4403C100.196 33.2069 100.299 32.9272 100.347 32.6012H102.774C102.734 33.3095 102.541 33.9334 102.195 34.4727C101.853 35.0079 101.38 35.4265 100.776 35.7283C100.172 36.0302 99.4579 36.1811 98.6329 36.1811ZM103.788 28.7496V26.7273H112.192V28.7496H109.204V36H106.753V28.7496H103.788ZM117.645 36.1811C116.691 36.1811 115.87 35.9879 115.182 35.6016C114.497 35.2112 113.97 34.6598 113.6 33.9474C113.23 33.2311 113.045 32.3839 113.045 31.4059C113.045 30.4521 113.23 29.6149 113.6 28.8945C113.97 28.1741 114.491 27.6127 115.164 27.2102C115.84 26.8078 116.633 26.6065 117.542 26.6065C118.154 26.6065 118.723 26.7051 119.251 26.9023C119.782 27.0955 120.245 27.3873 120.639 27.7777C121.037 28.1681 121.347 28.6591 121.569 29.2507C121.79 29.8383 121.901 30.5265 121.901 31.3153V32.0217H114.071V30.4279H119.48C119.48 30.0576 119.399 29.7296 119.238 29.4439C119.077 29.1581 118.854 28.9348 118.568 28.7738C118.287 28.6088 117.959 28.5263 117.584 28.5263C117.194 28.5263 116.848 28.6168 116.546 28.7979C116.248 28.975 116.015 29.2145 115.846 29.5163C115.677 29.8142 115.59 30.1462 115.586 30.5124V32.0277C115.586 32.4865 115.671 32.8829 115.84 33.217C116.013 33.551 116.256 33.8086 116.57 33.9897C116.884 34.1708 117.256 34.2614 117.687 34.2614C117.973 34.2614 118.234 34.2211 118.472 34.1406C118.709 34.0601 118.912 33.9394 119.081 33.7784C119.251 33.6174 119.379 33.4202 119.468 33.1868L121.846 33.3438C121.726 33.9152 121.478 34.4143 121.104 34.8409C120.734 35.2635 120.255 35.5935 119.667 35.831C119.084 36.0644 118.409 36.1811 117.645 36.1811ZM123.579 39.4773V26.7273H126.115V28.2848H126.229C126.342 28.0353 126.505 27.7817 126.718 27.5241C126.936 27.2625 127.217 27.0452 127.563 26.8722C127.914 26.6951 128.348 26.6065 128.867 26.6065C129.544 26.6065 130.167 26.7836 130.739 27.1378C131.31 27.4879 131.767 28.0172 132.109 28.7255C132.451 29.4298 132.622 30.3132 132.622 31.3757C132.622 32.41 132.455 33.2834 132.121 33.9957C131.791 34.7041 131.34 35.2414 130.769 35.6076C130.202 35.9698 129.566 36.1509 128.861 36.1509C128.362 36.1509 127.938 36.0684 127.588 35.9034C127.241 35.7384 126.958 35.5311 126.736 35.2816C126.515 35.0281 126.346 34.7725 126.229 34.5149H126.151V39.4773H123.579ZM126.096 31.3636C126.096 31.915 126.173 32.396 126.326 32.8065C126.479 33.217 126.7 33.5369 126.99 33.7663C127.28 33.9917 127.632 34.1044 128.046 34.1044C128.465 34.1044 128.819 33.9897 129.109 33.7603C129.399 33.5269 129.618 33.2049 129.767 32.7944C129.92 32.3799 129.996 31.9029 129.996 31.3636C129.996 30.8284 129.922 30.3575 129.773 29.951C129.624 29.5445 129.405 29.2266 129.115 28.9972C128.825 28.7678 128.469 28.6531 128.046 28.6531C127.628 28.6531 127.274 28.7637 126.984 28.9851C126.698 29.2064 126.479 29.5204 126.326 29.9268C126.173 30.3333 126.096 30.8123 126.096 31.3636ZM137.65 36V33.8991L138 33.869C138.45 33.8327 138.815 33.6617 139.092 33.3558C139.37 33.0459 139.577 32.5529 139.714 31.8768C139.855 31.1966 139.946 30.283 139.986 29.136L140.191 23.6364H148.582V36H146.041V25.7312H142.618L142.425 30.0355C142.36 31.42 142.195 32.5509 141.93 33.4283C141.668 34.3056 141.25 34.9536 140.674 35.3722C140.103 35.7907 139.32 36 138.326 36H137.65ZM154.915 36.1811C153.961 36.1811 153.14 35.9879 152.452 35.6016C151.768 35.2112 151.241 34.6598 150.87 33.9474C150.5 33.2311 150.315 32.3839 150.315 31.4059C150.315 30.4521 150.5 29.6149 150.87 28.8945C151.241 28.1741 151.762 27.6127 152.434 27.2102C153.11 26.8078 153.903 26.6065 154.813 26.6065C155.424 26.6065 155.994 26.7051 156.521 26.9023C157.052 27.0955 157.515 27.3873 157.91 27.7777C158.308 28.1681 158.618 28.6591 158.839 29.2507C159.061 29.8383 159.171 30.5265 159.171 31.3153V32.0217H151.341V30.4279H156.75C156.75 30.0576 156.67 29.7296 156.509 29.4439C156.348 29.1581 156.125 28.9348 155.839 28.7738C155.557 28.6088 155.229 28.5263 154.855 28.5263C154.464 28.5263 154.118 28.6168 153.816 28.7979C153.519 28.975 153.285 29.2145 153.116 29.5163C152.947 29.8142 152.861 30.1462 152.857 30.5124V32.0277C152.857 32.4865 152.941 32.8829 153.11 33.217C153.283 33.551 153.527 33.8086 153.841 33.9897C154.155 34.1708 154.527 34.2614 154.957 34.2614C155.243 34.2614 155.505 34.2211 155.742 34.1406C155.98 34.0601 156.183 33.9394 156.352 33.7784C156.521 33.6174 156.65 33.4202 156.738 33.1868L159.117 33.3438C158.996 33.9152 158.749 34.4143 158.374 34.8409C158.004 35.2635 157.525 35.5935 156.938 35.831C156.354 36.0644 155.68 36.1811 154.915 36.1811ZM168.559 23.3224L169.343 25.0007C169.082 25.218 168.792 25.379 168.474 25.4837C168.156 25.5843 167.776 25.6507 167.333 25.6829C166.895 25.7151 166.359 25.7372 165.727 25.7493C165.011 25.7573 164.427 25.872 163.977 26.0934C163.526 26.3147 163.184 26.6629 162.95 27.1378C162.717 27.6087 162.564 28.2244 162.492 28.9851H162.582C162.86 28.4176 163.25 27.9789 163.753 27.669C164.26 27.3591 164.886 27.2042 165.631 27.2042C166.42 27.2042 167.11 27.3772 167.701 27.7234C168.297 28.0695 168.76 28.5665 169.09 29.2145C169.42 29.8625 169.585 30.6392 169.585 31.5447C169.585 32.4865 169.4 33.3055 169.03 34.0018C168.663 34.694 168.142 35.2313 167.466 35.6136C166.79 35.992 165.985 36.1811 165.051 36.1811C164.113 36.1811 163.305 35.9839 162.624 35.5895C161.948 35.1951 161.425 34.6135 161.055 33.8448C160.689 33.0761 160.505 32.1303 160.505 31.0075V30.2468C160.505 28.0131 160.94 26.357 161.809 25.2784C162.679 24.1998 163.957 23.6525 165.643 23.6364C166.102 23.6283 166.516 23.6263 166.886 23.6303C167.257 23.6344 167.581 23.6162 167.858 23.576C168.14 23.5357 168.374 23.4512 168.559 23.3224ZM165.063 34.1889C165.458 34.1889 165.796 34.0863 166.078 33.881C166.363 33.6758 166.583 33.382 166.736 32.9996C166.892 32.6173 166.971 32.1605 166.971 31.6293C166.971 31.102 166.892 30.6553 166.736 30.2891C166.583 29.9188 166.363 29.6371 166.078 29.4439C165.792 29.2507 165.45 29.1541 165.051 29.1541C164.753 29.1541 164.486 29.2085 164.248 29.3171C164.011 29.4258 163.808 29.5868 163.639 29.8001C163.474 30.0094 163.345 30.2689 163.252 30.5788C163.164 30.8847 163.119 31.2348 163.119 31.6293C163.119 32.4221 163.29 33.0479 163.633 33.5067C163.979 33.9615 164.456 34.1889 165.063 34.1889ZM175.518 36.1811C174.564 36.1811 173.743 35.9879 173.055 35.6016C172.371 35.2112 171.843 34.6598 171.473 33.9474C171.103 33.2311 170.918 32.3839 170.918 31.4059C170.918 30.4521 171.103 29.6149 171.473 28.8945C171.843 28.1741 172.364 27.6127 173.037 27.2102C173.713 26.8078 174.506 26.6065 175.415 26.6065C176.027 26.6065 176.596 26.7051 177.124 26.9023C177.655 27.0955 178.118 27.3873 178.512 27.7777C178.911 28.1681 179.22 28.6591 179.442 29.2507C179.663 29.8383 179.774 30.5265 179.774 31.3153V32.0217H171.944V30.4279H177.353C177.353 30.0576 177.272 29.7296 177.112 29.4439C176.951 29.1581 176.727 28.9348 176.441 28.7738C176.16 28.6088 175.832 28.5263 175.457 28.5263C175.067 28.5263 174.721 28.6168 174.419 28.7979C174.121 28.975 173.888 29.2145 173.719 29.5163C173.55 29.8142 173.463 30.1462 173.459 30.5124V32.0277C173.459 32.4865 173.544 32.8829 173.713 33.217C173.886 33.551 174.129 33.8086 174.443 33.9897C174.757 34.1708 175.129 34.2614 175.56 34.2614C175.846 34.2614 176.107 34.2211 176.345 34.1406C176.582 34.0601 176.786 33.9394 176.955 33.7784C177.124 33.6174 177.252 33.4202 177.341 33.1868L179.719 33.3438C179.599 33.9152 179.351 34.4143 178.977 34.8409C178.607 35.2635 178.128 35.5935 177.54 35.831C176.957 36.0644 176.282 36.1811 175.518 36.1811ZM180.728 38.7166V33.9595H181.44C181.645 33.8307 181.81 33.6255 181.935 33.3438C182.064 33.062 182.168 32.73 182.249 32.3477C182.333 31.9653 182.398 31.5528 182.442 31.1101C182.49 30.6634 182.533 30.2126 182.569 29.7578L182.81 26.7273H189.922V33.9595H191.359V38.7166H188.908V36H183.239V38.7166H180.728ZM184 33.9595H187.495V28.7074H184.996L184.899 29.7578C184.831 30.7479 184.732 31.589 184.603 32.2812C184.475 32.9695 184.273 33.5289 184 33.9595ZM197.083 36.1811C196.129 36.1811 195.308 35.9879 194.62 35.6016C193.936 35.2112 193.409 34.6598 193.038 33.9474C192.668 33.2311 192.483 32.3839 192.483 31.4059C192.483 30.4521 192.668 29.6149 193.038 28.8945C193.409 28.1741 193.93 27.6127 194.602 27.2102C195.278 26.8078 196.071 26.6065 196.981 26.6065C197.592 26.6065 198.162 26.7051 198.689 26.9023C199.22 27.0955 199.683 27.3873 200.078 27.7777C200.476 28.1681 200.786 28.6591 201.007 29.2507C201.229 29.8383 201.339 30.5265 201.339 31.3153V32.0217H193.509V30.4279H198.918C198.918 30.0576 198.838 29.7296 198.677 29.4439C198.516 29.1581 198.293 28.9348 198.007 28.7738C197.725 28.6088 197.397 28.5263 197.023 28.5263C196.632 28.5263 196.286 28.6168 195.984 28.7979C195.687 28.975 195.453 29.2145 195.284 29.5163C195.115 29.8142 195.029 30.1462 195.025 30.5124V32.0277C195.025 32.4865 195.109 32.8829 195.278 33.217C195.451 33.551 195.695 33.8086 196.009 33.9897C196.323 34.1708 196.695 34.2614 197.125 34.2614C197.411 34.2614 197.673 34.2211 197.91 34.1406C198.148 34.0601 198.351 33.9394 198.52 33.7784C198.689 33.6174 198.818 33.4202 198.906 33.1868L201.285 33.3438C201.164 33.9152 200.917 34.4143 200.542 34.8409C200.172 35.2635 199.693 35.5935 199.106 35.831C198.522 36.0644 197.848 36.1811 197.083 36.1811ZM203.017 36V26.7273H206.972C208.115 26.7273 209.018 26.9446 209.682 27.3793C210.346 27.8139 210.678 28.4317 210.678 29.2326C210.678 29.7357 210.491 30.1542 210.117 30.4883C209.743 30.8223 209.223 31.0477 208.559 31.1644C209.115 31.2047 209.588 31.3314 209.978 31.5447C210.372 31.754 210.672 32.0257 210.878 32.3597C211.087 32.6938 211.191 33.064 211.191 33.4705C211.191 33.9978 211.051 34.4505 210.769 34.8288C210.491 35.2071 210.083 35.4969 209.543 35.6982C209.008 35.8994 208.354 36 207.581 36H203.017ZM205.414 34.0742H207.581C207.94 34.0742 208.219 33.9897 208.421 33.8207C208.626 33.6476 208.728 33.4122 208.728 33.1143C208.728 32.7843 208.626 32.5247 208.421 32.3356C208.219 32.1464 207.94 32.0518 207.581 32.0518H205.414V34.0742ZM205.414 30.5426H207.026C207.284 30.5426 207.503 30.5064 207.684 30.4339C207.869 30.3575 208.01 30.2488 208.107 30.108C208.207 29.9671 208.258 29.8001 208.258 29.6069C208.258 29.3211 208.143 29.0978 207.913 28.9368C207.684 28.7758 207.37 28.6953 206.972 28.6953H205.414V30.5426Z" fill="#FFC5A7"/>
<path d="M68.0746 22.6364H71.2983L74.7031 30.9432H74.848L78.2528 22.6364H81.4766V35H78.9411V26.9528H78.8384L75.6388 34.9396H73.9123L70.7127 26.9226H70.6101V35H68.0746V22.6364ZM86.2261 35.1751C85.6345 35.1751 85.1073 35.0724 84.6444 34.8672C84.1816 34.6579 83.8154 34.35 83.5457 33.9435C83.2801 33.533 83.1473 33.0219 83.1473 32.4102C83.1473 31.895 83.2419 31.4624 83.431 31.1122C83.6202 30.7621 83.8778 30.4804 84.2037 30.267C84.5297 30.0537 84.9 29.8928 85.3145 29.7841C85.7331 29.6754 86.1718 29.599 86.6306 29.5547C87.1699 29.4983 87.6046 29.446 87.9346 29.3977C88.2646 29.3454 88.5041 29.2689 88.653 29.1683C88.8019 29.0677 88.8763 28.9188 88.8763 28.7216V28.6854C88.8763 28.303 88.7556 28.0072 88.5141 27.7979C88.2767 27.5887 87.9386 27.484 87.4999 27.484C87.0371 27.484 86.6688 27.5866 86.3952 27.7919C86.1215 27.9931 85.9404 28.2467 85.8518 28.5526L83.4733 28.3594C83.594 27.7959 83.8315 27.3089 84.1856 26.8984C84.5398 26.4839 84.9966 26.166 85.556 25.9446C86.1195 25.7192 86.7715 25.6065 87.512 25.6065C88.0271 25.6065 88.5202 25.6669 88.991 25.7876C89.4659 25.9084 89.8865 26.0955 90.2528 26.3491C90.623 26.6026 90.9148 26.9286 91.1281 27.3271C91.3414 27.7215 91.4481 28.1944 91.4481 28.7457V35H89.0091V33.7141H88.9367C88.7878 34.0039 88.5886 34.2595 88.339 34.4808C88.0895 34.6982 87.7897 34.8692 87.4395 34.994C87.0894 35.1147 86.6849 35.1751 86.2261 35.1751ZM86.9626 33.4002C87.3409 33.4002 87.675 33.3258 87.9648 33.1768C88.2545 33.0239 88.4819 32.8187 88.6469 32.5611C88.8119 32.3035 88.8944 32.0117 88.8944 31.6857V30.7017C88.814 30.754 88.7033 30.8023 88.5624 30.8466C88.4256 30.8868 88.2706 30.9251 88.0976 30.9613C87.9245 30.9935 87.7515 31.0237 87.5784 31.0518C87.4053 31.076 87.2484 31.0981 87.1075 31.1183C86.8057 31.1625 86.5421 31.233 86.3167 31.3295C86.0913 31.4261 85.9162 31.5569 85.7915 31.7219C85.6667 31.8829 85.6043 32.0842 85.6043 32.3256C85.6043 32.6758 85.7311 32.9434 85.9846 33.1286C86.2422 33.3097 86.5682 33.4002 86.9626 33.4002ZM97.6329 35.1811C96.6831 35.1811 95.8661 34.9799 95.1819 34.5774C94.5017 34.1709 93.9785 33.6075 93.6123 32.8871C93.2501 32.1667 93.069 31.3376 93.069 30.3999C93.069 29.45 93.2521 28.617 93.6183 27.9006C93.9886 27.1802 94.5138 26.6187 95.194 26.2163C95.8741 25.8098 96.6831 25.6065 97.6208 25.6065C98.4298 25.6065 99.1381 25.7534 99.7458 26.0472C100.354 26.341 100.834 26.7536 101.189 27.2848C101.543 27.8161 101.738 28.4399 101.774 29.1562H99.3474C99.279 28.6934 99.0979 28.3211 98.8041 28.0394C98.5143 27.7537 98.134 27.6108 97.6631 27.6108C97.2646 27.6108 96.9165 27.7195 96.6187 27.9368C96.3249 28.1501 96.0955 28.462 95.9305 28.8725C95.7655 29.283 95.683 29.7801 95.683 30.3636C95.683 30.9553 95.7635 31.4583 95.9244 31.8729C96.0895 32.2874 96.3209 32.6033 96.6187 32.8207C96.9165 33.038 97.2646 33.1467 97.6631 33.1467C97.9569 33.1467 98.2205 33.0863 98.4539 32.9656C98.6914 32.8448 98.8866 32.6697 99.0395 32.4403C99.1965 32.2069 99.2991 31.9272 99.3474 31.6012H101.774C101.734 32.3095 101.541 32.9334 101.195 33.4727C100.853 34.0079 100.38 34.4265 99.776 34.7283C99.1723 35.0302 98.4579 35.1811 97.6329 35.1811ZM102.788 27.7496V25.7273H111.192V27.7496H108.204V35H105.753V27.7496H102.788ZM116.645 35.1811C115.691 35.1811 114.87 34.9879 114.182 34.6016C113.497 34.2112 112.97 33.6598 112.6 32.9474C112.23 32.2311 112.045 31.3839 112.045 30.4059C112.045 29.4521 112.23 28.6149 112.6 27.8945C112.97 27.1741 113.491 26.6127 114.164 26.2102C114.84 25.8078 115.633 25.6065 116.542 25.6065C117.154 25.6065 117.723 25.7051 118.251 25.9023C118.782 26.0955 119.245 26.3873 119.639 26.7777C120.037 27.1681 120.347 27.6591 120.569 28.2507C120.79 28.8383 120.901 29.5265 120.901 30.3153V31.0217H113.071V29.4279H118.48C118.48 29.0576 118.399 28.7296 118.238 28.4439C118.077 28.1581 117.854 27.9348 117.568 27.7738C117.287 27.6088 116.959 27.5263 116.584 27.5263C116.194 27.5263 115.848 27.6168 115.546 27.7979C115.248 27.975 115.015 28.2145 114.846 28.5163C114.677 28.8142 114.59 29.1462 114.586 29.5124V31.0277C114.586 31.4865 114.671 31.8829 114.84 32.217C115.013 32.551 115.256 32.8086 115.57 32.9897C115.884 33.1708 116.256 33.2614 116.687 33.2614C116.973 33.2614 117.234 33.2211 117.472 33.1406C117.709 33.0601 117.912 32.9394 118.081 32.7784C118.251 32.6174 118.379 32.4202 118.468 32.1868L120.846 32.3438C120.726 32.9152 120.478 33.4143 120.104 33.8409C119.734 34.2635 119.255 34.5935 118.667 34.831C118.084 35.0644 117.409 35.1811 116.645 35.1811ZM122.579 38.4773V25.7273H125.115V27.2848H125.229C125.342 27.0353 125.505 26.7817 125.718 26.5241C125.936 26.2625 126.217 26.0452 126.563 25.8722C126.914 25.6951 127.348 25.6065 127.867 25.6065C128.544 25.6065 129.167 25.7836 129.739 26.1378C130.31 26.4879 130.767 27.0172 131.109 27.7255C131.451 28.4298 131.622 29.3132 131.622 30.3757C131.622 31.41 131.455 32.2834 131.121 32.9957C130.791 33.7041 130.34 34.2414 129.769 34.6076C129.202 34.9698 128.566 35.1509 127.861 35.1509C127.362 35.1509 126.938 35.0684 126.588 34.9034C126.241 34.7384 125.958 34.5311 125.736 34.2816C125.515 34.0281 125.346 33.7725 125.229 33.5149H125.151V38.4773H122.579ZM125.096 30.3636C125.096 30.915 125.173 31.396 125.326 31.8065C125.479 32.217 125.7 32.5369 125.99 32.7663C126.28 32.9917 126.632 33.1044 127.046 33.1044C127.465 33.1044 127.819 32.9897 128.109 32.7603C128.399 32.5269 128.618 32.2049 128.767 31.7944C128.92 31.3799 128.996 30.9029 128.996 30.3636C128.996 29.8284 128.922 29.3575 128.773 28.951C128.624 28.5445 128.405 28.2266 128.115 27.9972C127.825 27.7678 127.469 27.6531 127.046 27.6531C126.628 27.6531 126.274 27.7637 125.984 27.9851C125.698 28.2064 125.479 28.5204 125.326 28.9268C125.173 29.3333 125.096 29.8123 125.096 30.3636ZM136.65 35V32.8991L137 32.869C137.45 32.8327 137.815 32.6617 138.092 32.3558C138.37 32.0459 138.577 31.5529 138.714 30.8768C138.855 30.1966 138.946 29.283 138.986 28.136L139.191 22.6364H147.582V35H145.041V24.7312H141.618L141.425 29.0355C141.36 30.42 141.195 31.5509 140.93 32.4283C140.668 33.3056 140.25 33.9536 139.674 34.3722C139.103 34.7907 138.32 35 137.326 35H136.65ZM153.915 35.1811C152.961 35.1811 152.14 34.9879 151.452 34.6016C150.768 34.2112 150.241 33.6598 149.87 32.9474C149.5 32.2311 149.315 31.3839 149.315 30.4059C149.315 29.4521 149.5 28.6149 149.87 27.8945C150.241 27.1741 150.762 26.6127 151.434 26.2102C152.11 25.8078 152.903 25.6065 153.813 25.6065C154.424 25.6065 154.994 25.7051 155.521 25.9023C156.052 26.0955 156.515 26.3873 156.91 26.7777C157.308 27.1681 157.618 27.6591 157.839 28.2507C158.061 28.8383 158.171 29.5265 158.171 30.3153V31.0217H150.341V29.4279H155.75C155.75 29.0576 155.67 28.7296 155.509 28.4439C155.348 28.1581 155.125 27.9348 154.839 27.7738C154.557 27.6088 154.229 27.5263 153.855 27.5263C153.464 27.5263 153.118 27.6168 152.816 27.7979C152.519 27.975 152.285 28.2145 152.116 28.5163C151.947 28.8142 151.861 29.1462 151.857 29.5124V31.0277C151.857 31.4865 151.941 31.8829 152.11 32.217C152.283 32.551 152.527 32.8086 152.841 32.9897C153.155 33.1708 153.527 33.2614 153.957 33.2614C154.243 33.2614 154.505 33.2211 154.742 33.1406C154.98 33.0601 155.183 32.9394 155.352 32.7784C155.521 32.6174 155.65 32.4202 155.738 32.1868L158.117 32.3438C157.996 32.9152 157.749 33.4143 157.374 33.8409C157.004 34.2635 156.525 34.5935 155.938 34.831C155.354 35.0644 154.68 35.1811 153.915 35.1811ZM167.559 22.3224L168.343 24.0007C168.082 24.218 167.792 24.379 167.474 24.4837C167.156 24.5843 166.776 24.6507 166.333 24.6829C165.895 24.7151 165.359 24.7372 164.727 24.7493C164.011 24.7573 163.427 24.872 162.977 25.0934C162.526 25.3147 162.184 25.6629 161.95 26.1378C161.717 26.6087 161.564 27.2244 161.492 27.9851H161.582C161.86 27.4176 162.25 26.9789 162.753 26.669C163.26 26.3591 163.886 26.2042 164.631 26.2042C165.42 26.2042 166.11 26.3772 166.701 26.7234C167.297 27.0695 167.76 27.5665 168.09 28.2145C168.42 28.8625 168.585 29.6392 168.585 30.5447C168.585 31.4865 168.4 32.3055 168.03 33.0018C167.663 33.694 167.142 34.2313 166.466 34.6136C165.79 34.992 164.985 35.1811 164.051 35.1811C163.113 35.1811 162.305 34.9839 161.624 34.5895C160.948 34.1951 160.425 33.6135 160.055 32.8448C159.689 32.0761 159.505 31.1303 159.505 30.0075V29.2468C159.505 27.0131 159.94 25.357 160.809 24.2784C161.679 23.1998 162.957 22.6525 164.643 22.6364C165.102 22.6283 165.516 22.6263 165.886 22.6303C166.257 22.6344 166.581 22.6162 166.858 22.576C167.14 22.5357 167.374 22.4512 167.559 22.3224ZM164.063 33.1889C164.458 33.1889 164.796 33.0863 165.078 32.881C165.363 32.6758 165.583 32.382 165.736 31.9996C165.892 31.6173 165.971 31.1605 165.971 30.6293C165.971 30.102 165.892 29.6553 165.736 29.2891C165.583 28.9188 165.363 28.6371 165.078 28.4439C164.792 28.2507 164.45 28.1541 164.051 28.1541C163.753 28.1541 163.486 28.2085 163.248 28.3171C163.011 28.4258 162.808 28.5868 162.639 28.8001C162.474 29.0094 162.345 29.2689 162.252 29.5788C162.164 29.8847 162.119 30.2348 162.119 30.6293C162.119 31.4221 162.29 32.0479 162.633 32.5067C162.979 32.9615 163.456 33.1889 164.063 33.1889ZM174.518 35.1811C173.564 35.1811 172.743 34.9879 172.055 34.6016C171.371 34.2112 170.843 33.6598 170.473 32.9474C170.103 32.2311 169.918 31.3839 169.918 30.4059C169.918 29.4521 170.103 28.6149 170.473 27.8945C170.843 27.1741 171.364 26.6127 172.037 26.2102C172.713 25.8078 173.506 25.6065 174.415 25.6065C175.027 25.6065 175.596 25.7051 176.124 25.9023C176.655 26.0955 177.118 26.3873 177.512 26.7777C177.911 27.1681 178.22 27.6591 178.442 28.2507C178.663 28.8383 178.774 29.5265 178.774 30.3153V31.0217H170.944V29.4279H176.353C176.353 29.0576 176.272 28.7296 176.112 28.4439C175.951 28.1581 175.727 27.9348 175.441 27.7738C175.16 27.6088 174.832 27.5263 174.457 27.5263C174.067 27.5263 173.721 27.6168 173.419 27.7979C173.121 27.975 172.888 28.2145 172.719 28.5163C172.55 28.8142 172.463 29.1462 172.459 29.5124V31.0277C172.459 31.4865 172.544 31.8829 172.713 32.217C172.886 32.551 173.129 32.8086 173.443 32.9897C173.757 33.1708 174.129 33.2614 174.56 33.2614C174.846 33.2614 175.107 33.2211 175.345 33.1406C175.582 33.0601 175.786 32.9394 175.955 32.7784C176.124 32.6174 176.252 32.4202 176.341 32.1868L178.719 32.3438C178.599 32.9152 178.351 33.4143 177.977 33.8409C177.607 34.2635 177.128 34.5935 176.54 34.831C175.957 35.0644 175.282 35.1811 174.518 35.1811ZM179.728 37.7166V32.9595H180.44C180.645 32.8307 180.81 32.6255 180.935 32.3438C181.064 32.062 181.168 31.73 181.249 31.3477C181.333 30.9653 181.398 30.5528 181.442 30.1101C181.49 29.6634 181.533 29.2126 181.569 28.7578L181.81 25.7273H188.922V32.9595H190.359V37.7166H187.908V35H182.239V37.7166H179.728ZM183 32.9595H186.495V27.7074H183.996L183.899 28.7578C183.831 29.7479 183.732 30.589 183.603 31.2812C183.475 31.9695 183.273 32.5289 183 32.9595ZM196.083 35.1811C195.129 35.1811 194.308 34.9879 193.62 34.6016C192.936 34.2112 192.409 33.6598 192.038 32.9474C191.668 32.2311 191.483 31.3839 191.483 30.4059C191.483 29.4521 191.668 28.6149 192.038 27.8945C192.409 27.1741 192.93 26.6127 193.602 26.2102C194.278 25.8078 195.071 25.6065 195.981 25.6065C196.592 25.6065 197.162 25.7051 197.689 25.9023C198.22 26.0955 198.683 26.3873 199.078 26.7777C199.476 27.1681 199.786 27.6591 200.007 28.2507C200.229 28.8383 200.339 29.5265 200.339 30.3153V31.0217H192.509V29.4279H197.918C197.918 29.0576 197.838 28.7296 197.677 28.4439C197.516 28.1581 197.293 27.9348 197.007 27.7738C196.725 27.6088 196.397 27.5263 196.023 27.5263C195.632 27.5263 195.286 27.6168 194.984 27.7979C194.687 27.975 194.453 28.2145 194.284 28.5163C194.115 28.8142 194.029 29.1462 194.025 29.5124V31.0277C194.025 31.4865 194.109 31.8829 194.278 32.217C194.451 32.551 194.695 32.8086 195.009 32.9897C195.323 33.1708 195.695 33.2614 196.125 33.2614C196.411 33.2614 196.673 33.2211 196.91 33.1406C197.148 33.0601 197.351 32.9394 197.52 32.7784C197.689 32.6174 197.818 32.4202 197.906 32.1868L200.285 32.3438C200.164 32.9152 199.917 33.4143 199.542 33.8409C199.172 34.2635 198.693 34.5935 198.106 34.831C197.522 35.0644 196.848 35.1811 196.083 35.1811ZM202.017 35V25.7273H205.972C207.115 25.7273 208.018 25.9446 208.682 26.3793C209.346 26.8139 209.678 27.4317 209.678 28.2326C209.678 28.7357 209.491 29.1542 209.117 29.4883C208.743 29.8223 208.223 30.0477 207.559 30.1644C208.115 30.2047 208.588 30.3314 208.978 30.5447C209.372 30.754 209.672 31.0257 209.878 31.3597C210.087 31.6938 210.191 32.064 210.191 32.4705C210.191 32.9978 210.051 33.4505 209.769 33.8288C209.491 34.2071 209.083 34.4969 208.543 34.6982C208.008 34.8994 207.354 35 206.581 35H202.017ZM204.414 33.0742H206.581C206.94 33.0742 207.219 32.9897 207.421 32.8207C207.626 32.6476 207.728 32.4122 207.728 32.1143C207.728 31.7843 207.626 31.5247 207.421 31.3356C207.219 31.1464 206.94 31.0518 206.581 31.0518H204.414V33.0742ZM204.414 29.5426H206.026C206.284 29.5426 206.503 29.5064 206.684 29.4339C206.869 29.3575 207.01 29.2488 207.107 29.108C207.207 28.9671 207.258 28.8001 207.258 28.6069C207.258 28.3211 207.143 28.0978 206.913 27.9368C206.684 27.7758 206.37 27.6953 205.972 27.6953H204.414V29.5426Z" fill="black"/>
</svg>
