<svg width="27" height="24" viewBox="0 0 27 24" fill="none" xmlns="http://www.w3.org/2000/svg">
<path d="M13.3139 12C12.0935 12 11.0949 11.1 11.0949 10C11.0949 8.9 12.0935 8 13.3139 8C14.5343 8 15.5329 8.9 15.5329 10C15.5329 11.1 14.5343 12 13.3139 12ZM19.9708 10.2C19.9708 6.57 17.0307 4 13.3139 4C9.59711 4 6.65697 6.57 6.65697 10.2C6.65697 12.54 8.82047 15.64 13.3139 19.34C17.8073 15.64 19.9708 12.54 19.9708 10.2ZM13.3139 2C17.9738 2 22.1898 5.22 22.1898 10.2C22.1898 13.52 19.2275 17.45 13.3139 22C7.40032 17.45 4.43799 13.52 4.43799 10.2C4.43799 5.22 8.65405 2 13.3139 2Z" fill="black"/>
</svg>
