<?xml version="1.0" encoding="utf-8"?>
<!-- Generator: Adobe Illustrator 23.0.3, SVG Export Plug-In . SVG Version: 6.00 Build 0)  -->
<svg version="1.1" id="Слой_1" xmlns="http://www.w3.org/2000/svg" xmlns:xlink="http://www.w3.org/1999/xlink" x="0px" y="0px"
	 viewBox="0 0 512 512" style="enable-background:new 0 0 512 512;" xml:space="preserve">
<style type="text/css">
	.st0{fill:url(#SVGID_1_);}
</style>
<linearGradient id="SVGID_1_" gradientUnits="userSpaceOnUse" x1="6" y1="255.6426" x2="501.0353" y2="255.6426">
	<stop  offset="0.2929" style="stop-color:#00FCFF"/>
	<stop  offset="1" style="stop-color:#009EFD"/>
</linearGradient>
<path class="st0" d="M68,283.5v-40.9h91l40,40.9H68z M469.5,440.9l42.1,42.1l-28.3,28.3l-483-483L28.6,0l67.5,67.5H452
	c33.1,0,60,26.9,60,60v256C512,410.5,494.1,433.4,469.5,440.9z M136.2,107.5l46.1,46.1H472v-26.1c0-11-9-20-20-20H136.2z M472,383.5
	v-170H242.2l30.1,30.1H333v39.9h-20.8l120,120H452C463,403.5,472,394.5,472,383.5z M60,403.6c-11,0-20-9.1-20-20.1v-170h88.5
	l-60-59.9H40v-26.1c0-0.8,0.1-1.5,0.1-2.3L9.7,94.8C3.6,104.2,0,115.5,0,127.5v256c0,33.1,26.9,60,60,60h298.4l-40-39.9H60z"/>
</svg>
