<?xml version="1.0" encoding="utf-8"?>
<!-- Generator: Adobe Illustrator 23.0.3, SVG Export Plug-In . SVG Version: 6.00 Build 0)  -->
<svg version="1.1" id="Слой_1" xmlns="http://www.w3.org/2000/svg" xmlns:xlink="http://www.w3.org/1999/xlink" x="0px" y="0px"
	 viewBox="0 0 512 512" style="enable-background:new 0 0 512 512;" xml:space="preserve">
<style type="text/css">
	.st0{fill:url(#SVGID_1_);}
</style>
<linearGradient id="SVGID_1_" gradientUnits="userSpaceOnUse" x1="72.8867" y1="255.6364" x2="437.4984" y2="256.7635">
	<stop  offset="0.3513" style="stop-color:#00FCFF"/>
	<stop  offset="0.9876" style="stop-color:#009EFD"/>
</linearGradient>
<path class="st0" d="M389,40h-75.4C305.3,16.7,283.1,0,257,0s-48.3,16.7-56.6,40H124c-33.1,0-60,26.9-60,60v352
	c0,33.1,26.9,60,60,60h265.1c33.1,0,59.9-27.1,59.9-60.3V100C449,66.9,422.1,40,389,40z M237,80V60c0-11,9-20,20-20s20,9,20,20v20
	h40v39H197V80H237z M409,451.7c0,11.2-9,20.2-20,20.3H124c-11,0-20-9-20-20V100c0-11,9-20,20-20h33v79h200V80h32c11,0,20,9,20,20
	V451.7z M144,199h225v40H144V199z M144,279h225v40H144V279z M144,359h60v40h-60V359z M339.9,346.8l28.1,28.4l-76.3,75.6l-53.5-50.2
	l27.4-29.2l25.3,23.8L339.9,346.8z"/>
</svg>
