<?xml version="1.0" encoding="utf-8"?>
<!-- Generator: Adobe Illustrator 23.0.3, SVG Export Plug-In . SVG Version: 6.00 Build 0)  -->
<svg version="1.1" id="Capa_1" xmlns="http://www.w3.org/2000/svg" xmlns:xlink="http://www.w3.org/1999/xlink" x="0px" y="0px"
	 viewBox="0 0 512 512" style="enable-background:new 0 0 512 512;" xml:space="preserve">
<style type="text/css">
	.st0{fill:url(#SVGID_1_);}
</style>
<linearGradient id="SVGID_1_" gradientUnits="userSpaceOnUse" x1="9.994507e-04" y1="256" x2="511.999" y2="256">
	<stop  offset="0" style="stop-color:#00FCFF"/>
	<stop  offset="0" style="stop-color:#00EDFF"/>
	<stop  offset="0.4805" style="stop-color:#00E3FF"/>
	<stop  offset="1" style="stop-color:#009EFD"/>
</linearGradient>
<path class="st0" d="M337.7,256l2.6-2.6c13.4,4.6,27.3,6.9,41.6,6.9c71.8,0,130.1-58.4,130.1-130.1c0-18.8-4.1-37.2-12.2-54.6
	l-12-25.8l-72.4,72.1c-3.4,3.4-7.8,5.2-12.6,5.2s-9.2-1.8-12.6-5.2c-3.4-3.4-5.2-7.8-5.2-12.6c0-4.7,1.8-9.2,5.2-12.6l72-72.4
	l-25.8-12C419,4.1,400.7,0,381.9,0c-71.8,0-130.1,58.4-130.1,130.1c0,14.2,2.3,28.2,6.9,41.6L229.3,201L156,127.7V61.8L54.3,0.8
	L0.8,54.3l61,101.7h65.9l73.3,73.3L16.9,413.4C6,424.3,0,438.8,0,454.2c0,15.4,6,29.9,16.9,40.8C27.8,506,42.3,512,57.8,512
	s29.9-6,40.8-16.9L256,337.7l157.4,157.4c10.9,10.9,25.4,16.9,40.8,16.9c15.4,0,29.9-6,40.8-16.9c10.9-10.9,16.9-25.4,16.9-40.8
	c0-15.4-6-29.9-16.9-40.8L337.7,256z M51.2,60.5l9.3-9.3L116,84.5V116H84.5L51.2,60.5z M70.3,466.8c-3.4,3.4-7.8,5.2-12.6,5.2
	s-9.2-1.8-12.6-5.2c-3.4-3.4-5.2-7.8-5.2-12.6c0-4.7,1.8-9.2,5.2-12.6l260.9-260.9l-5.9-12.7c-5.6-12.1-8.5-24.8-8.5-37.9
	c0-49.7,40.4-90.1,90.1-90.1c2.7,0,5.3,0.1,8,0.4l-27.9,28C351,79.3,345,93.8,345,109.2s6,29.9,16.9,40.8
	c10.9,10.9,25.4,16.9,40.8,16.9c15.4,0,29.9-6,40.8-16.9l28.1-27.9c0.2,2.6,0.4,5.3,0.4,8c0,49.7-40.4,90.1-90.1,90.1
	c-13.1,0-25.9-2.9-37.9-8.5l-12.7-5.9L70.3,466.8z M466.8,466.8c-3.4,3.4-7.8,5.2-12.6,5.2s-9.2-1.8-12.6-5.2L284.3,309.4l25.1-25.1
	l157.4,157.4c3.4,3.4,5.2,7.8,5.2,12.6C472,459,470.2,463.4,466.8,466.8z"/>
</svg>
