<?xml version="1.0" encoding="utf-8"?><svg viewBox="0 0 461 333.7" xmlns="http://www.w3.org/2000/svg" xmlns:xlink="http://www.w3.org/1999/xlink"><style>:root>svg{display:none}:root>svg:target{display:block}</style><svg viewBox="0 0 32 32" id="check" xmlns="http://www.w3.org/2000/svg"><path d="M32 16a16 16 0 11-32 0 16 16 0 0132 0zm-6.36-2.88a1.886 1.886 0 10-2.667-2.667l-9.026 9.027-4.614-4.6a1.886 1.886 0 00-2.666 2.667l7.266 7.266L25.64 13.12z"/></svg><svg viewBox="0 0 32 32" id="close" xmlns="http://www.w3.org/2000/svg"><path d="M18.262 16l4.527-4.525a1.6 1.6 0 00-.52-2.61 1.6 1.6 0 00-1.744.346L16 13.738 11.475 9.21a1.6 1.6 0 10-2.264 2.264L13.738 16 9.21 20.525a1.6 1.6 0 102.264 2.264L16 18.262l4.525 4.527a1.6 1.6 0 002.264-2.264L18.262 16zM16 32C7.163 32 0 24.837 0 16S7.163 0 16 0s16 7.163 16 16-7.163 16-16 16z"/></svg><svg viewBox="0 0 34 34" id="phone" xmlns="http://www.w3.org/2000/svg"><path d="M17 0C7.611 0 0 7.611 0 17s7.611 17 17 17 17-7.611 17-17S26.389 0 17 0zm-6.11 6.753c.35-.021.667.188.907.56l2.325 4.408c.244.522.105 1.081-.26 1.454l-1.064 1.065a.52.52 0 00-.11.303c.408 1.58 1.646 3.038 2.739 4.04 1.093 1.003 2.267 2.36 3.791 2.682.189.052.42.07.555-.054l1.236-1.26c.427-.324 1.045-.48 1.5-.216h.021l4.194 2.476c.616.386.68 1.132.239 1.585l-2.889 2.866c-.426.438-.993.585-1.544.585-2.435-.073-4.736-1.268-6.626-2.496-3.102-2.257-5.947-5.056-7.734-8.438-.685-1.418-1.49-3.227-1.413-4.81.007-.596.168-1.179.587-1.563l2.889-2.888c.225-.192.447-.287.658-.3z"/></svg><svg version="1.1" id="video-icon" x="0" y="0" viewBox="0 0 461 333.7" xml:space="preserve" xmlns="http://www.w3.org/2000/svg"><style>.dst0{fill:#f61c0d}</style><path class="dst0" d="M365.3 3.8H95.7C42.9 3.8 0 46.6 0 99.5v134.7C0 287.1 42.9 330 95.7 330h269.5c52.9 0 95.7-42.9 95.7-95.7V99.5c.1-52.9-42.8-95.7-95.6-95.7zm-64.8 169.6l-126.1 60.1c-3.4 1.6-7.2-.8-7.2-4.6V105c0-3.8 4-6.2 7.3-4.5l126.1 63.9c3.8 1.8 3.7 7.2-.1 9z"/></svg></svg>