<?xml version="1.0" encoding="UTF-8"?> <svg xmlns="http://www.w3.org/2000/svg" width="25" height="26" viewBox="0 0 25 26" fill="none"> <path fill-rule="evenodd" clip-rule="evenodd" d="M12.5 26C10.0278 26 7.611 25.2376 5.5554 23.8091C3.49976 22.3806 1.89763 20.3503 0.951541 17.9749C0.0054012 15.5995 -0.242125 12.9856 0.240196 10.4638C0.722516 7.94207 1.91304 5.6257 3.66117 3.80762C5.40935 1.98953 7.6366 0.751407 10.0614 0.249794C12.4861 -0.251808 14.9995 0.00563198 17.2835 0.989568C19.5676 1.9735 21.5199 3.63975 22.8934 5.77758C24.2669 7.91543 25 10.4288 25 13C24.9963 16.4466 23.6781 19.751 21.3347 22.1881C18.9913 24.6252 15.8141 25.9961 12.5 26ZM7.83416 11.8429C9.47119 11.8378 11.0863 12.2343 12.5485 13C13.9947 13.7579 15.5911 14.1541 17.2105 14.1572C18.8299 14.1603 20.4277 13.7702 21.8766 13.0179C21.8773 14.2983 21.6355 15.5663 21.165 16.7495C20.6945 17.9327 20.0046 19.0079 19.1346 19.9138C18.2645 20.8197 17.2314 21.5385 16.0943 22.0292C14.9571 22.5199 13.7382 22.7728 12.507 22.7736C11.2759 22.7743 10.0566 22.5229 8.91896 22.0336C7.78128 21.5443 6.74735 20.8267 5.87631 19.9219C4.11712 18.0945 3.12802 15.6151 3.12659 13.0292C4.58428 12.2544 6.19708 11.848 7.83416 11.8429Z" fill="#E3E3E3"></path> </svg> 