<?xml version="1.0" encoding="UTF-8"?> <svg xmlns="http://www.w3.org/2000/svg" width="156" height="156" viewBox="0 0 156 156" fill="none"> <path fill-rule="evenodd" clip-rule="evenodd" d="M78 156C62.5732 156 47.4926 151.425 34.6657 142.855C21.8385 134.284 11.8412 122.102 5.93762 107.849C0.0337035 93.5967 -1.51086 77.9135 1.49882 62.783C4.5085 47.6524 11.9373 33.7542 22.8457 22.8457C33.7543 11.9372 47.6524 4.50844 62.7829 1.49876C77.9135 -1.51085 93.5968 0.0337919 107.849 5.93741C122.102 11.841 134.284 21.8385 142.855 34.6655C151.426 47.4926 156 62.5731 156 78C155.977 98.6798 147.751 118.506 133.129 133.129C118.506 147.751 98.6798 155.977 78 156ZM48.8851 71.0575C59.1002 71.027 69.1787 73.4055 78.3024 78C87.3266 82.5472 97.2882 84.9247 107.393 84.9433C117.499 84.9619 127.469 82.6211 136.51 78.1073C136.514 85.7896 135.005 93.3976 132.07 100.497C129.134 107.596 124.829 114.048 119.4 119.483C113.971 124.918 107.524 129.231 100.428 132.175C93.3326 135.119 85.7261 136.637 78.0438 136.641C70.3617 136.646 62.7535 135.137 55.6543 132.201C48.5552 129.266 42.1035 124.96 36.6682 119.531C25.6908 108.567 19.5188 93.6907 19.5099 78.1755C28.6059 73.5266 38.6698 71.088 48.8851 71.0575Z" fill="white"></path> </svg> 