<?xml version="1.0" encoding="UTF-8"?> <svg xmlns="http://www.w3.org/2000/svg" width="692" height="350" viewBox="0 0 692 350" fill="none"> <g clip-path="url(#clip0_1011_179)"> <path d="M89.8961 341.185L19.4961 341.734L18.802 252.834L89.202 252.285L89.8961 341.185Z" fill="#EBEBEB"></path> <path d="M46.3031 255.498L47.6031 341.498L58.7031 341.398L56.3031 255.398L46.3031 255.498Z" fill="#FAFAFA"></path> <path d="M129.601 254.801L89.2008 255.101L18.8008 255.701L89.3008 265.001L89.9008 341.201L130.301 340.901L129.601 254.801Z" fill="#E0E0E0"></path> <path d="M107.603 254.998L109.303 340.998H121.203L119.303 254.898L107.603 254.998Z" fill="#FAFAFA"></path> <path d="M75.7016 228.802C75.7016 229.002 76.9016 229.202 79.1016 229.402C81.3016 229.602 84.4016 229.802 88.3016 229.802C92.2016 229.702 96.9016 229.502 102.102 228.002C102.802 227.802 103.402 227.502 104.102 227.102C104.802 226.702 105.402 226.102 105.902 225.402C106.402 224.602 106.602 223.702 106.602 222.802C106.602 221.902 106.502 221.202 106.302 220.402C105.602 217.702 104.902 214.802 103.702 211.902C103.102 210.502 102.302 209.102 101.402 207.802C100.502 206.602 99.5016 205.402 98.0016 204.502C97.3016 204.102 96.5016 203.702 95.7016 203.502C94.9016 203.302 94.0016 203.302 93.1016 203.502C91.5016 203.902 90.3016 204.802 89.2016 205.602C85.1016 208.902 82.1016 212.702 80.0016 216.102C77.9016 219.502 76.9016 222.502 76.3016 224.702C75.8016 226.802 75.7016 228.102 75.8016 228.102C76.2016 228.202 77.2016 223.402 81.5016 217.102C83.6016 214.002 86.7016 210.602 90.6016 207.502C91.6016 206.802 92.6016 206.102 93.6016 205.902C94.6016 205.702 95.6016 205.902 96.6016 206.502C97.6016 207.102 98.4016 208.102 99.2016 209.202C100.002 210.302 100.602 211.502 101.202 212.802C102.302 215.402 103.002 218.202 103.702 220.802C104.002 222.102 104.102 223.102 103.602 223.802C103.202 224.502 102.202 225.102 101.102 225.502C100.002 225.902 98.8016 226.202 97.6016 226.402C96.4016 226.702 95.3016 226.902 94.2016 227.002C92.0016 227.302 89.9016 227.502 88.0016 227.702C84.2016 228.002 81.0016 228.002 78.9016 228.102C76.9016 228.502 75.7016 228.602 75.7016 228.802Z" fill="#E0E0E0"></path> <path d="M77.1016 229.4C77.1016 229.2 75.8016 228.8 73.4016 228.3C71.0016 227.7 67.6016 227.1 63.4016 226C59.2016 225 54.2016 223.6 49.0016 221.5C47.7016 221 46.4016 220.4 45.4016 219.6C44.9016 219.2 44.5016 218.8 44.2016 218.3C44.0016 217.9 43.9016 217.4 44.0016 216.8C44.1016 216.2 44.4016 215.6 44.7016 214.9C45.0016 214.2 45.4016 213.5 45.7016 212.7C46.4016 211.3 47.1016 209.9 48.0016 208.6C48.9016 207.3 49.8016 206.1 51.0016 205.1C52.1016 204.1 53.3016 203.2 54.6016 202.8C55.9016 202.3 57.1016 202.3 58.3016 202.6C59.5016 203 60.6016 203.7 61.6016 204.6C65.8016 208.3 69.0016 212.3 71.2016 215.9C73.4016 219.5 74.7016 222.8 75.5016 225C76.3016 227.3 76.6016 228.6 76.8016 228.6C77.0016 228.6 77.0016 227.2 76.5016 224.8C76.0016 222.4 75.0016 218.9 72.8016 215C70.7016 211.1 67.5016 206.8 63.2016 202.8C62.1016 201.8 60.7016 200.8 59.0016 200.2C57.3016 199.6 55.3016 199.7 53.7016 200.3C52.9016 200.6 52.1016 201 51.3016 201.5C50.6016 202 49.9016 202.5 49.2016 203.1C47.9016 204.3 46.8016 205.6 45.8016 207.1C44.8016 208.6 44.0016 210.1 43.3016 211.6C43.0016 212.3 42.6016 213.1 42.3016 213.8C42.0016 214.5 41.6016 215.4 41.4016 216.4C41.2016 217.4 41.4016 218.6 41.9016 219.5C42.4016 220.4 43.1016 221.1 43.8016 221.6C45.2016 222.6 46.6016 223.2 48.0016 223.8C53.5016 225.9 58.6016 227.1 62.9016 227.9C67.2016 228.7 70.7016 229.1 73.1016 229.4C75.8016 229.6 77.1016 229.6 77.1016 229.4Z" fill="#FAFAFA"></path> <path d="M142.523 254.723L39.0234 255.531L38.7939 226.131L142.294 225.323L142.523 254.723Z" fill="#E0E0E0"></path> <path d="M104.455 254.98L10.8555 255.711L10.6259 226.311L104.226 225.58L104.455 254.98Z" fill="#EBEBEB"></path> <path d="M39.3023 226.1L40.0023 255.7L50.9023 255.4L50.1023 226L39.3023 226.1Z" fill="#FAFAFA"></path> <path d="M116.802 225.698L117.902 254.898L129.902 254.798L129.202 225.398L116.802 225.698Z" fill="#FAFAFA"></path> <path d="M36.2273 342.19L4.02734 342.441L3.71037 301.841L35.9103 301.59L36.2273 342.19Z" fill="#EBEBEB"></path> <path d="M16.3 303.1L16.9 342.4L22 342.3L20.9 303L16.3 303.1Z" fill="#FAFAFA"></path> <path d="M54.3992 302.801L35.8992 302.901L3.69922 303.201L35.8992 307.401L36.1992 342.201L54.6992 342.101L54.3992 302.801Z" fill="#E0E0E0"></path> <path d="M44.3 302.901L45 342.201L50.5 342.101L49.6 302.801L44.3 302.901Z" fill="#FAFAFA"></path> <path d="M29.6977 290.899C29.6977 291.199 31.7977 291.699 35.4977 291.899C37.2977 291.899 39.4977 291.899 41.9977 291.199C42.5977 290.999 43.4977 290.699 44.0977 289.699C44.3977 289.199 44.4977 288.699 44.5977 288.199C44.5977 287.699 44.4977 287.299 44.4977 286.999C44.1977 285.699 43.8977 284.399 43.2977 282.999C42.9977 282.299 42.5977 281.599 42.1977 280.999C41.6977 280.399 41.1977 279.799 40.4977 279.299C39.7977 278.799 38.6977 278.599 37.6977 278.799C36.7977 278.999 36.1977 279.499 35.6977 279.899C33.7977 281.499 32.3977 283.299 31.4977 284.899C29.6977 288.199 29.6977 290.599 29.9977 290.599C30.3977 290.699 30.9977 288.599 32.9977 285.899C33.9977 284.599 35.3977 283.099 37.0977 281.799C37.4977 281.499 37.8977 281.299 38.1977 281.199C38.4977 281.199 38.6977 281.199 38.9977 281.399C39.2977 281.599 39.6977 281.999 39.9977 282.499C40.2977 282.899 40.5977 283.499 40.7977 283.999C41.2977 285.099 41.5977 286.299 41.8977 287.499C41.9977 288.099 41.9977 288.299 41.9977 288.399C41.9977 288.499 41.5977 288.799 41.1977 288.899C40.2977 289.199 39.1977 289.499 38.1977 289.599C37.1977 289.799 36.2977 289.899 35.3977 289.999C31.8977 290.399 29.6977 290.499 29.6977 290.899Z" fill="#E0E0E0"></path> <path d="M30.3965 291.2C30.4965 290.8 27.9964 290.2 24.2964 289.2C22.3964 288.7 20.1965 288 17.8965 287C17.2965 286.8 16.7965 286.5 16.3965 286.2C16.1965 286.1 16.0964 285.9 16.0964 285.8C16.0964 285.7 16.0964 285.7 16.0964 285.6C16.0964 285.3 16.4964 284.6 16.7964 283.9C17.0964 283.3 17.3964 282.7 17.7964 282.1C18.1964 281.5 18.5964 281 18.9964 280.6C19.4964 280.2 19.9965 279.8 20.3965 279.7C20.8965 279.5 21.2965 279.5 21.6965 279.6C22.0965 279.7 22.4964 280 22.9964 280.4C24.8964 282 26.3965 283.8 27.3965 285.3C29.4965 288.5 29.9965 290.9 30.3965 290.9C30.5965 290.9 30.6964 290.2 30.4964 289.1C30.3964 288 29.8964 286.3 28.9964 284.4C28.0964 282.5 26.5964 280.5 24.5964 278.6C24.0964 278.1 23.3964 277.6 22.4964 277.3C21.5964 277 20.4964 277 19.5964 277.4C19.1964 277.6 18.6965 277.8 18.3965 278C17.9965 278.2 17.6965 278.5 17.3965 278.8C16.6965 279.4 16.1965 280 15.6965 280.8C15.1965 281.5 14.8964 282.2 14.4964 282.9C14.2964 283.2 14.1964 283.6 13.9964 283.9C13.7964 284.3 13.6964 284.7 13.5964 285.2C13.4964 285.8 13.5965 286.5 13.8965 287C14.1965 287.5 14.5964 287.9 14.9964 288.2C15.6964 288.7 16.3964 289 17.0964 289.3C19.6964 290.3 22.0964 290.8 23.9964 291.1C27.7964 291.5 30.2965 291.5 30.3965 291.2Z" fill="#FAFAFA"></path> <path d="M60.218 302.713L12.918 303.082L12.8133 289.682L60.1133 289.313L60.218 302.713Z" fill="#E0E0E0"></path> <path d="M42.7977 302.866L0.0976562 303.199L-0.00695427 289.799L42.6931 289.466L42.7977 302.866Z" fill="#EBEBEB"></path> <path d="M13.0984 289.702L13.3984 303.202L18.3984 303.102L17.9984 289.602L13.0984 289.702Z" fill="#FAFAFA"></path> <path d="M48.5 289.501L49 302.801H54.5L54.2 289.301L48.5 289.501Z" fill="#FAFAFA"></path> <path d="M648.196 342.053L590.496 342.504L589.928 269.704L647.628 269.253L648.196 342.053Z" fill="#EBEBEB"></path> <path d="M612.4 271.801L613.5 342.301H622.6L620.6 271.801H612.4Z" fill="#FAFAFA"></path> <path d="M680.699 271.301L647.599 271.601L589.899 272.001L647.599 279.601L648.099 342.101L681.199 341.801L680.699 271.301Z" fill="#E0E0E0"></path> <path d="M662.699 271.502L663.999 341.902H673.799L672.199 271.402L662.699 271.502Z" fill="#FAFAFA"></path> <path d="M636.5 250C636.5 250.4 637.5 250.7 639.2 251.1C641 251.5 643.6 251.8 646.8 251.9C648.4 252 650.2 251.9 652.2 251.8C653.2 251.7 654.2 251.6 655.2 251.4C656.3 251.2 657.3 251.1 658.5 250.7C659.1 250.5 659.8 250.3 660.5 249.8C661.2 249.4 661.9 248.8 662.5 247.9C663.1 247 663.3 245.9 663.4 245C663.4 244.1 663.3 243.3 663.1 242.7C662.5 240.4 662 238 660.9 235.5C660.4 234.3 659.7 233 658.9 231.9C658.5 231.3 658 230.8 657.5 230.3C657 229.8 656.4 229.3 655.7 228.8C655 228.4 654.2 228 653.3 227.8C652.4 227.6 651.4 227.7 650.6 227.9C648.9 228.3 647.8 229.2 646.9 230C643.4 232.9 641 236.1 639.3 239.1C637.7 242.1 636.9 244.7 636.6 246.5C636.3 248.3 636.5 249.4 636.8 249.5C637.6 249.7 638.8 245.9 642.4 241.1C644.2 238.7 646.7 236.1 649.8 233.8C650.5 233.2 651.2 232.9 651.7 232.8C652.1 232.7 652.4 232.8 653 233.2C653.3 233.4 653.6 233.6 653.8 233.9C654.1 234.2 654.4 234.6 654.7 235C655.3 235.8 655.7 236.7 656.2 237.6C657 239.5 657.6 241.8 658.2 243.9C658.3 244.4 658.4 244.7 658.4 245C658.4 245.2 658.4 245.3 658.4 245.3C658.4 245.4 657.9 245.8 657.1 246.1C656.3 246.4 655.3 246.7 654.5 246.9C653.6 247.1 652.7 247.3 651.8 247.5C650 247.8 648.4 248.1 646.8 248.2C643.7 248.6 641.2 248.8 639.4 249C637.5 249.3 636.5 249.6 636.5 250Z" fill="#E0E0E0"></path> <path d="M637.7 250.502C637.8 249.802 633.5 248.602 626.7 246.702C623.3 245.702 619.3 244.502 615.2 242.702C614.2 242.302 613.2 241.802 612.6 241.302C612.3 241.102 612.1 240.802 612.1 240.702C612.1 240.602 612.1 240.702 612.1 240.502C612.1 240.302 612.3 239.902 612.6 239.302C612.9 238.702 613.2 238.202 613.4 237.602C614 236.502 614.5 235.402 615.2 234.402C615.9 233.402 616.6 232.502 617.4 231.802C617.8 231.402 618.2 231.102 618.6 230.802C619 230.502 619.4 230.302 619.8 230.202C620.6 229.902 621.2 229.902 621.9 230.002C622.6 230.202 623.3 230.702 624.1 231.302C627.4 234.102 630.1 237.302 632 240.102C635.8 245.702 636.7 250.102 637.5 250.002C637.8 250.002 638.1 248.802 637.9 246.702C637.7 244.602 636.9 241.602 635.3 238.302C633.6 234.902 631 231.202 627.4 227.802C626.4 226.902 625.2 225.902 623.5 225.302C621.8 224.702 619.8 224.802 618.2 225.402C617.4 225.702 616.6 226.102 615.9 226.502C615.2 226.902 614.6 227.402 614 227.902C612.8 228.902 611.8 230.202 611 231.502C610.2 232.802 609.5 234.102 608.9 235.302C608.6 235.902 608.3 236.502 608.1 237.102C607.8 237.702 607.5 238.502 607.3 239.602C607.1 240.602 607.3 242.002 607.9 243.002C608.5 244.002 609.2 244.702 609.9 245.202C611.3 246.202 612.5 246.702 613.7 247.102C618.3 248.802 622.6 249.702 626.2 250.202C629.8 250.702 632.7 250.902 634.7 250.902C636.5 251.002 637.6 250.902 637.7 250.502Z" fill="#FAFAFA"></path> <path d="M691.163 271.189L606.363 271.852L606.175 247.752L690.975 247.089L691.163 271.189Z" fill="#E0E0E0"></path> <path d="M659.961 271.445L583.361 272.043L583.173 247.943L659.773 247.345L659.961 271.445Z" fill="#EBEBEB"></path> <path d="M606.699 247.803L607.199 272.003L616.199 271.803L615.499 247.703L606.699 247.803Z" fill="#FAFAFA"></path> <path d="M670.2 247.403L671.1 271.403L680.9 271.303L680.4 247.203L670.2 247.403Z" fill="#FAFAFA"></path> <path d="M580.9 205.097C598.3 187.298 625.6 179.797 649.6 186.197C628.7 200.197 605.2 207.697 580 207.897" fill="#70B47D"></path> <path d="M604.201 122.499C601.301 102.199 609.201 79.4992 624.401 64.6992C624.901 84.8992 616.401 107.399 604.201 122.499Z" fill="#70B47D"></path> <path d="M592.101 160.801C602.901 140.101 620.601 123.201 641.801 113.301C635.501 136.601 615.501 155.701 591.901 161.001" fill="#70B47D"></path> <path d="M589.6 168.2C601.8 168.5 614.2 168.1 626 165C637.8 161.9 649.2 155.9 657 146.5C633.2 146.5 609.5 153.8 589.7 167" fill="#70B47D"></path> <path d="M595.801 143.9C589.601 120.6 579.301 104.5 561.001 91.5C559.601 102.8 562.401 114.6 568.701 124.1C575.101 133.6 584.801 140.7 595.801 143.9Z" fill="#70B47D"></path> <path d="M549.6 183.998C549.3 170.498 558 157.198 570.5 152.098C569.5 164.098 560.1 177.998 549.6 183.998Z" fill="#70B47D"></path> <path d="M543.801 164.398C542.401 144.998 528.601 126.998 510.201 120.598C514.401 140.098 525.601 156.198 543.801 164.398Z" fill="#70B47D"></path> <path d="M552.602 199.198C548.302 192.998 541.202 189.198 534.002 187.298C526.702 185.398 519.102 185.198 511.602 185.098C521.802 196.298 537.002 202.598 552.102 201.998" fill="#70B47D"></path> <path d="M561.301 248.8C547.701 244.6 532.601 245.7 519.801 251.8C507.001 257.9 496.501 268.9 491.201 282.1C516.701 277.2 541.801 265.9 561.301 248.8Z" fill="#70B47D"></path> <path d="M589.3 231.598C585.1 244.098 585.9 259.198 595.3 269.998C599.1 257.198 596.9 242.698 589.3 231.598Z" fill="#70B47D"></path> <path d="M605.801 224.598C607.001 240.698 617.301 255.798 631.801 262.798C632.501 263.098 633.401 263.498 634.101 263.198C635.201 262.698 635.401 261.198 635.201 259.898C633.401 243.898 621.501 228.398 605.801 224.598Z" fill="#70B47D"></path> <path d="M616.6 222.998C623.8 230.698 634.2 235.298 644.7 235.398C655.2 235.498 665.7 230.998 673 223.298C655.1 221.298 634.4 219.998 616.6 222.998Z" fill="#70B47D"></path> <path d="M619.301 79.6992C619.301 79.6992 619.301 79.8992 619.101 80.1992C619.001 80.5992 618.801 81.0992 618.601 81.6992C618.101 83.0992 617.401 84.9992 616.401 87.4992C615.401 89.9992 614.301 93.0992 613.001 96.6992C612.401 98.4992 611.701 100.399 610.901 102.499C610.201 104.499 609.401 106.699 608.701 108.999C605.501 118.099 602.001 128.999 598.201 141.099C594.501 153.299 590.501 166.699 586.701 180.799C582.901 194.999 579.501 208.499 576.601 220.899C573.801 233.299 571.401 244.499 569.701 253.999C569.301 256.399 568.801 258.599 568.401 260.699C568.001 262.799 567.701 264.799 567.401 266.699C566.801 270.499 566.201 273.699 565.801 276.399C565.401 278.999 565.101 281.099 564.901 282.499C564.801 283.199 564.701 283.699 564.601 284.099C564.501 284.499 564.501 284.599 564.501 284.599C564.501 284.599 564.501 284.399 564.501 284.099C564.501 283.699 564.601 283.199 564.701 282.499C564.901 281.099 565.201 278.999 565.501 276.399C565.801 273.699 566.401 270.499 567.001 266.699C567.301 264.799 567.601 262.799 568.001 260.699C568.401 258.599 568.801 256.299 569.201 253.899C570.901 244.399 573.201 233.199 576.001 220.799C578.801 208.399 582.201 194.799 586.001 180.599C589.901 166.399 593.801 152.999 597.601 140.899C601.401 128.799 605.001 117.899 608.301 108.799C609.101 106.499 609.901 104.399 610.601 102.299C611.401 100.299 612.101 98.3992 612.701 96.5992C614.001 92.9992 615.201 89.9992 616.201 87.4992C617.201 84.9992 617.901 83.0992 618.501 81.6992C618.801 81.0992 619.001 80.5992 619.101 80.1992C619.201 79.8992 619.301 79.6992 619.301 79.6992Z" fill="#263238"></path> <path d="M520.899 131C520.899 131 520.999 131.1 521.199 131.3C521.399 131.5 521.699 131.8 522.099 132.2C522.799 133 523.899 134.2 525.299 135.8C527.999 138.9 531.799 143.6 535.899 149.9C539.899 156.1 544.099 164.1 546.899 173.5C549.899 182.9 551.699 193.6 553.499 204.7C557.099 227.1 561.599 247.1 564.899 261.6C566.499 268.8 567.899 274.6 568.799 278.7C569.199 280.7 569.599 282.3 569.799 283.4C569.899 283.9 569.999 284.3 570.099 284.6C570.199 284.9 570.199 285 570.199 285C570.199 285 570.099 284.9 570.099 284.6C569.999 284.3 569.899 283.9 569.799 283.4C569.499 282.3 569.099 280.7 568.599 278.8C567.599 274.7 566.199 268.9 564.499 261.7C561.099 247.2 556.599 227.2 552.899 204.9C551.099 193.7 549.299 183.1 546.399 173.7C543.599 164.3 539.499 156.4 535.599 150.2C531.599 143.9 527.899 139.2 525.299 136C523.999 134.4 522.899 133.2 522.199 132.4C521.899 132 521.599 131.7 521.399 131.5C520.899 131.1 520.799 131 520.899 131Z" fill="#263238"></path> <path d="M622 222.298C622 222.298 621.8 222.398 621.4 222.398C620.9 222.498 620.3 222.498 619.5 222.598C619.1 222.598 618.6 222.698 618.2 222.698C617.7 222.798 617.2 222.898 616.6 222.898C615.5 223.098 614.2 223.198 612.8 223.498C612.1 223.598 611.3 223.798 610.6 223.898C609.8 224.098 609 224.298 608.2 224.498C606.5 224.898 604.8 225.498 603 225.998C599.4 227.298 595.5 228.898 591.6 230.998C587.7 233.098 584.3 235.598 581.4 238.098C580 239.398 578.6 240.598 577.5 241.798C576.3 242.998 575.3 244.198 574.4 245.398C573.4 246.498 572.8 247.598 572.1 248.598C571.4 249.498 570.9 250.398 570.5 251.098C570.1 251.698 569.8 252.298 569.5 252.698C569.3 253.098 569.1 253.298 569.1 253.198C569.1 253.198 569.2 252.998 569.4 252.598C569.6 252.098 569.9 251.598 570.2 250.898C570.6 250.198 571 249.298 571.7 248.298C572.3 247.298 573 246.198 573.9 245.098C574.8 243.898 575.8 242.698 577 241.398C578.1 240.098 579.5 238.898 580.9 237.598C583.8 235.098 587.3 232.598 591.2 230.398C595.1 228.298 599 226.598 602.7 225.398C604.5 224.898 606.3 224.298 608 223.898C608.8 223.698 609.6 223.498 610.4 223.298C611.2 223.198 611.9 222.998 612.6 222.898C614 222.598 615.3 222.498 616.5 222.298C617.1 222.198 617.6 222.198 618.1 222.098C618.6 222.098 619 221.998 619.5 221.998C620.2 221.998 620.9 221.898 621.4 221.898C621.8 222.198 622 222.198 622 222.298Z" fill="#263238"></path> <path d="M627.1 131.398C627.1 131.398 626.7 131.898 625.8 132.598C624.8 133.398 623.6 134.498 622.1 135.798C619 138.498 614.6 142.098 609.8 146.198C605 150.198 600.5 153.798 597.3 156.398C595.8 157.598 594.5 158.598 593.5 159.398C592.6 160.098 592.1 160.498 592 160.398C592 160.398 592.4 159.898 593.3 159.198C594.3 158.398 595.5 157.298 597 155.998C600.1 153.298 604.5 149.698 609.3 145.598C614.1 141.598 618.5 137.998 621.8 135.398C623.3 134.198 624.6 133.198 625.6 132.398C626.5 131.798 627.1 131.398 627.1 131.398Z" fill="#263238"></path> <path d="M631.499 155.1C631.599 155.3 622.099 158.2 610.499 161.7C598.799 165.1 589.299 167.8 589.299 167.6C589.199 167.4 598.699 164.5 610.299 161C621.999 157.6 631.499 154.9 631.499 155.1Z" fill="#263238"></path> <path d="M596.7 145.698C596.7 145.698 596.3 145.198 595.7 144.298C595 143.298 594.2 141.998 593.2 140.498C591.1 137.298 588.1 132.998 584.6 128.298C581.1 123.698 577.7 119.698 575.1 116.798C573.9 115.398 572.9 114.298 572.1 113.398C571.4 112.598 571 112.098 571.1 112.098C571.1 112.098 571.6 112.498 572.3 113.198C573.1 113.898 574.1 115.098 575.4 116.498C578 119.298 581.5 123.298 585 127.898C588.5 132.498 591.5 136.898 593.5 140.198C594.5 141.798 595.3 143.198 595.8 144.098C596.5 145.098 596.8 145.698 596.7 145.698Z" fill="#263238"></path> <path d="M564.102 158.801C564.202 158.901 563.302 160.201 561.902 162.401C560.502 164.601 558.602 167.701 556.602 171.201C554.602 174.701 553.002 177.901 551.802 180.201C550.602 182.501 549.902 184.001 549.802 184.001C549.702 184.001 550.302 182.401 551.402 180.001C552.502 177.601 554.102 174.301 556.102 170.801C558.102 167.301 560.102 164.301 561.602 162.101C563.002 160.101 564.002 158.801 564.102 158.801Z" fill="#263238"></path> <path d="M552.898 199.899C552.898 199.999 551.098 199.099 548.098 197.799C545.198 196.499 541.098 194.699 536.398 193.099C531.798 191.499 527.498 190.299 524.398 189.499C521.298 188.699 519.298 188.299 519.298 188.199C519.298 188.199 519.798 188.199 520.698 188.299C521.598 188.399 522.898 188.699 524.498 188.999C527.698 189.699 531.998 190.799 536.698 192.499C541.398 194.099 545.498 195.899 548.398 197.399C549.798 198.099 550.998 198.699 551.798 199.199C552.498 199.599 552.898 199.799 552.898 199.899Z" fill="#263238"></path> <path d="M561.699 248.898C561.699 248.898 561.499 248.998 561.099 249.098C560.599 249.198 560.099 249.398 559.399 249.498C557.799 249.898 555.699 250.398 553.099 250.898C547.799 252.098 540.499 253.698 532.699 256.298C524.899 258.998 518.199 262.298 513.599 265.298C511.299 266.798 509.499 267.998 508.299 268.998C507.099 269.898 506.399 270.398 506.399 270.398C506.399 270.398 506.499 270.198 506.799 269.998C507.099 269.698 507.499 269.298 508.099 268.798C509.299 267.798 510.999 266.498 513.299 264.898C517.799 261.898 524.499 258.398 532.399 255.698C540.299 252.998 547.699 251.598 552.999 250.498C555.599 249.998 557.699 249.598 559.299 249.298C560.799 248.998 561.699 248.898 561.699 248.898Z" fill="#263238"></path> <path d="M593.501 261C593.301 261 592.201 254.4 591.001 246.3C589.801 238.1 589.001 231.5 589.201 231.5C589.401 231.5 590.501 238.1 591.701 246.2C592.901 254.3 593.701 261 593.501 261Z" fill="#263238"></path> <path d="M626.699 249.001C626.599 249.101 625.499 247.701 623.699 245.501C621.899 243.301 619.399 240.201 616.599 236.901C613.799 233.601 611.199 230.601 609.299 228.401C607.399 226.301 606.199 224.901 606.299 224.801C606.299 224.801 606.699 225.101 607.199 225.601C607.799 226.201 608.599 227.001 609.599 228.001C611.599 230.101 614.199 233.001 617.099 236.301C619.899 239.601 622.299 242.801 623.999 245.101C624.799 246.301 625.499 247.201 625.999 247.901C626.499 248.501 626.699 248.901 626.699 249.001Z" fill="#263238"></path> <path d="M538.9 279.699V296.099H543L557.6 341.999H589.9L604 296.499L609.4 296.099V279.699H538.9Z" fill="#455A64"></path> <path d="M606.699 296.499C606.699 296.699 592.399 296.799 574.899 296.799C557.299 296.799 543.099 296.599 543.099 296.499C543.099 296.299 557.399 296.199 574.899 296.199C592.499 296.199 606.699 296.299 606.699 296.499Z" fill="#263238"></path> <path d="M629.9 191.2C629.9 191.2 629.2 191.4 627.8 191.8C626.3 192.2 624.4 192.6 622.1 193.2C617.3 194.4 610.8 196.2 603.7 198.6C596.6 201 590.3 203.5 585.8 205.5C583.6 206.4 581.8 207.2 580.5 207.8C579.2 208.4 578.5 208.6 578.5 208.6C578.5 208.6 579.1 208.2 580.4 207.6C581.6 207 583.4 206.1 585.7 205.1C590.2 203 596.5 200.4 603.6 198C610.7 195.6 617.3 193.9 622.2 192.8C624.6 192.3 626.6 191.9 627.9 191.6C629.2 191.2 629.9 191.1 629.9 191.2Z" fill="#263238"></path> <path d="M596 322.1C596 322.3 586 322.4 573.7 322.4C561.4 322.4 551.4 322.2 551.4 322.1C551.4 322 561.4 321.8 573.7 321.8C586 321.7 596 321.9 596 322.1Z" fill="#FAFAFA"></path> <path d="M597.301 318.299C597.301 318.499 586.701 318.599 573.601 318.599C560.501 318.599 549.901 318.399 549.901 318.299C549.901 318.099 560.501 317.999 573.601 317.999C586.701 317.899 597.301 318.099 597.301 318.299Z" fill="#FAFAFA"></path> <path d="M83.6986 216.001L150.399 141.101C155.699 135.101 163.299 131.701 171.299 131.601L390.799 130.001C406.499 129.901 419.299 142.601 419.199 158.301L418.799 313.701C418.799 329.301 406.099 341.901 390.499 341.901L171.799 341.001C163.599 341.001 155.799 337.401 150.499 331.201L83.3987 253.201C74.0987 242.501 74.2986 226.601 83.6986 216.001ZM120.799 243.001C125.599 254.901 139.199 260.601 151.099 255.801C162.999 251.001 168.699 237.401 163.899 225.501C159.099 213.601 145.499 207.901 133.599 212.701C121.699 217.501 115.899 231.101 120.799 243.001Z" fill="#70B47D"></path> <g opacity="0.4"> <path d="M83.6986 216.001L150.399 141.101C155.699 135.101 163.299 131.701 171.299 131.601L390.799 130.001C406.499 129.901 419.299 142.601 419.199 158.301L418.799 313.701C418.799 329.301 406.099 341.901 390.499 341.901L171.799 341.001C163.599 341.001 155.799 337.401 150.499 331.201L83.3987 253.201C74.0987 242.501 74.2986 226.601 83.6986 216.001ZM120.799 243.001C125.599 254.901 139.199 260.601 151.099 255.801C162.999 251.001 168.699 237.401 163.899 225.501C159.099 213.601 145.499 207.901 133.599 212.701C121.699 217.501 115.899 231.101 120.799 243.001Z" fill="black"></path> </g> <path d="M72.097 216.001L138.797 141.101C144.097 135.101 151.697 131.701 159.697 131.601L379.197 130.001C394.897 129.901 407.697 142.601 407.597 158.301L407.197 313.701C407.197 329.301 394.497 341.901 378.897 341.901L160.197 341.001C151.997 341.001 144.197 337.401 138.897 331.201L71.7971 253.201C62.5971 242.501 62.697 226.601 72.097 216.001ZM109.197 243.001C113.997 254.901 127.597 260.601 139.497 255.801C151.397 251.001 157.097 237.401 152.297 225.501C147.497 213.601 133.897 207.901 121.997 212.701C110.097 217.501 104.397 231.101 109.197 243.001Z" fill="#70B47D"></path> <path d="M203.698 210.8C203.898 192 215.498 180.1 231.798 180.2C248.098 180.4 259.298 192.3 259.098 211.3C258.898 230.3 247.498 242 231.198 241.9C214.898 241.7 203.498 229.6 203.698 210.8ZM243.098 211.2C243.198 199.2 238.598 193.4 231.598 193.4C224.698 193.3 219.898 199.2 219.798 211C219.698 222.8 224.398 228.8 231.298 228.8C238.298 228.8 242.998 223.1 243.098 211.2ZM298.298 182.1L317.298 182.3L239.898 293.3L220.898 293.1L298.298 182.1ZM279.198 264.2C279.398 245.4 290.998 233.5 307.098 233.6C323.398 233.8 334.798 245.8 334.598 264.7C334.398 283.5 322.798 295.4 306.498 295.3C290.398 295.1 278.998 283 279.198 264.2ZM318.498 264.6C318.598 252.8 313.998 246.8 306.998 246.8C300.098 246.7 295.298 252.4 295.198 264.4C295.098 276.4 299.798 282.2 306.698 282.2C313.698 282.2 318.398 276.4 318.498 264.6Z" fill="white"></path> <path d="M79.3983 262.201C79.2983 262.101 78.5983 262.701 77.1983 263.801C75.7983 264.901 73.7983 266.501 71.2983 268.701C68.7983 270.901 65.6983 273.501 62.1983 276.801C58.6983 280.001 54.8983 283.801 50.8983 288.301C46.8983 292.801 42.6983 297.901 38.9983 303.901C38.4983 304.701 38.0982 305.401 37.5982 306.201C37.1982 307.001 36.6982 307.801 36.2982 308.601C35.3982 310.201 34.4982 311.901 33.7982 313.601C32.2982 317.101 30.9983 320.901 30.8983 325.101C30.7983 327.201 31.0982 329.301 31.7982 331.401C32.4982 333.501 33.5982 335.401 35.0982 337.101C37.9982 340.401 42.0983 342.701 46.4983 343.601C50.8983 344.601 55.5983 344.301 59.9983 343.301C64.4983 342.301 68.6983 340.601 72.8983 338.601C81.1983 334.501 88.2983 328.801 94.3983 322.601C97.3983 319.501 100.198 316.201 102.698 312.901C105.198 309.601 107.598 306.301 109.898 303.101C118.898 290.101 125.898 277.601 130.298 266.401C131.398 263.601 132.398 260.901 133.198 258.301C133.598 257.001 133.998 255.701 134.298 254.501C134.598 253.201 134.898 252.101 134.998 250.801C135.298 248.301 134.698 245.801 133.398 244.101C132.098 242.301 130.298 241.301 128.698 240.801C127.898 240.501 127.098 240.401 126.298 240.201C125.498 240.201 124.798 240.101 124.198 240.201C122.898 240.201 121.798 240.601 120.898 240.901C120.098 241.301 119.498 241.601 119.198 242.001C118.898 242.301 118.698 242.501 118.698 242.501C118.698 242.501 118.898 242.401 119.298 242.201C119.698 241.901 120.298 241.701 121.098 241.401C121.898 241.201 122.998 240.901 124.198 241.001C124.798 241.001 125.498 241.101 126.198 241.201C126.898 241.401 127.598 241.501 128.398 241.801C129.898 242.401 131.398 243.301 132.498 244.901C133.598 246.401 133.998 248.501 133.698 250.701C133.598 251.801 133.198 253.001 132.898 254.201C132.598 255.401 132.198 256.601 131.698 257.901C130.798 260.401 129.798 263.001 128.698 265.801C124.198 276.701 117.098 289.001 107.998 301.801C105.698 305.001 103.298 308.201 100.798 311.501C98.2983 314.701 95.5982 317.901 92.5982 320.901C86.6982 326.901 79.7983 332.401 71.7983 336.401C67.7983 338.401 63.6983 340.001 59.4983 340.901C55.2983 341.901 51.0982 342.101 47.0982 341.301C43.1982 340.501 39.4983 338.501 36.9983 335.601C34.3983 332.801 33.1982 329.001 33.2982 325.301C33.3982 321.601 34.4983 318.001 35.8983 314.601C36.5983 312.901 37.3982 311.301 38.2982 309.801C38.6982 309.001 39.1982 308.201 39.5982 307.501C40.0982 306.701 40.4983 306.001 40.9983 305.301C44.5983 299.401 48.5983 294.301 52.4983 289.801C56.3983 285.301 60.0983 281.501 63.4983 278.201C66.8983 274.901 69.7983 272.101 72.1983 269.801C74.5983 267.501 76.4983 265.801 77.7983 264.501C78.7983 263.001 79.4983 262.301 79.3983 262.201Z" fill="#263238"></path> <path d="M183.599 107C183.699 107 186.499 87.4 189.899 63.3C193.199 39.1 195.799 19.5 195.599 19.5C195.499 19.5 192.699 39 189.299 63.2C185.999 87.4 183.499 107 183.599 107Z" fill="#263238"></path> <path d="M101.101 0C101.101 0 101.101 0.1 101.201 0.3C101.301 0.5 101.401 0.8 101.501 1.2C101.801 2 102.201 3.1 102.801 4.5C103.901 7.4 105.601 11.6 107.601 16.7C111.601 27 117.101 41.3 122.901 57.2C128.701 73.1 133.801 87.5 137.401 98C139.201 103.2 140.601 107.4 141.701 110.4C142.201 111.8 142.601 113 142.901 113.8C143.001 114.2 143.101 114.4 143.201 114.7C143.301 114.9 143.301 115 143.301 115C143.301 115 143.301 114.9 143.201 114.7C143.101 114.5 143.001 114.2 142.901 113.8C142.601 113 142.301 111.9 141.801 110.4C140.901 107.4 139.501 103.2 137.701 97.9C134.201 87.4 129.201 72.9 123.401 57.1C117.601 41.2 112.101 27 108.001 16.7C105.901 11.6 104.301 7.4 103.101 4.5C102.501 3.1 102.101 2 101.701 1.2C101.501 0.8 101.401 0.6 101.301 0.3C101.201 0.1 101.201 0 101.101 0Z" fill="#263238"></path> <path d="M42.1018 76.9988C42.0018 77.0988 56.3018 88.2988 74.1018 101.999C91.8018 115.699 106.302 126.699 106.402 126.599C106.502 126.499 92.2018 115.299 74.4018 101.599C56.6018 87.8988 42.2018 76.7988 42.1018 76.9988Z" fill="#263238"></path> <path d="M218.3 110.702C218.4 110.802 223.9 103.702 230.7 94.9018C237.4 86.1018 242.8 78.9018 242.6 78.8018C242.5 78.7018 237 85.8018 230.2 94.6018C223.5 103.402 218.2 110.602 218.3 110.702Z" fill="#263238"></path> <path d="M48.7999 165.799C48.7999 165.899 57.6 163.499 68.4 160.399C79.2 157.299 87.8999 154.599 87.7999 154.499C87.7999 154.399 79 156.799 68.2 159.899C57.5 162.999 48.7999 165.699 48.7999 165.799Z" fill="#263238"></path> <path d="M174.801 165.502L168.301 161.702L164.901 155.102L161.101 161.602L154.501 165.002L161.001 168.802L164.401 175.402L168.201 168.902L174.801 165.502Z" fill="white"></path> <path d="M210 155.2L207.7 153.9L206.5 151.5L205.2 153.8L202.8 155L205.1 156.3L206.3 158.6L207.6 156.4L210 155.2Z" fill="white"></path> <path d="M187.5 201.102L183.1 198.602L180.8 194.102L178.3 198.502L173.8 200.802L178.2 203.302L180.5 207.802L183 203.402L187.5 201.102Z" fill="white"></path> <path d="M3 341.999C3 342.099 157.2 342.299 347.5 342.299C537.8 342.299 692 342.199 692 341.999C692 341.799 537.8 341.699 347.5 341.699C157.3 341.799 3 341.899 3 341.999Z" fill="#263238"></path> <path d="M491.099 324.301C491.099 324.301 532.899 335.901 534.499 336.401C536.999 337.301 536.599 346.501 532.699 346.401C530.799 346.301 500.599 347.501 496.799 347.301C492.999 347.101 482.699 343.001 482.699 343.001L491.099 324.301Z" fill="#455A64"></path> <path d="M508.501 340.2C508.701 340.2 509.001 338 510.301 335.7C511.601 333.4 513.401 332 513.301 331.9C513.201 331.7 511.201 332.9 509.701 335.4C508.301 337.9 508.301 340.3 508.501 340.2Z" fill="#263238"></path> <path d="M504.198 338.302C504.398 338.302 504.798 336.402 505.898 334.202C506.998 332.002 508.298 330.502 508.198 330.302C508.098 330.202 506.498 331.502 505.298 333.802C504.098 336.102 503.998 338.302 504.198 338.302Z" fill="#263238"></path> <path d="M500.098 337.203C500.298 337.203 500.198 335.103 501.098 332.803C501.998 330.503 503.498 329.003 503.398 328.903C503.298 328.703 501.398 330.003 500.498 332.603C499.398 335.003 499.898 337.203 500.098 337.203Z" fill="#263238"></path> <path d="M500.799 331.801C500.899 331.801 501.199 330.701 501.199 328.701C501.199 327.701 501.099 326.601 500.799 325.301C500.599 324.701 500.399 324.001 500.199 323.401C500.099 323.101 499.899 322.701 499.499 322.401C499.099 322.101 498.399 322.101 498.099 322.501C497.699 322.801 497.599 323.301 497.499 323.701C497.499 324.101 497.399 324.401 497.399 324.801C497.399 325.501 497.499 326.201 497.699 326.801C497.999 328.101 498.499 329.101 498.999 330.001C499.999 331.701 500.799 332.601 500.899 332.501C500.999 332.401 500.299 331.501 499.499 329.801C499.099 328.901 498.699 327.901 498.399 326.701C498.299 326.101 498.199 325.501 498.199 324.801C498.199 324.201 498.199 323.401 498.599 323.001C498.799 322.801 498.999 322.801 499.199 323.001C499.399 323.101 499.499 323.401 499.699 323.701C499.999 324.301 500.199 324.901 500.299 325.501C500.599 326.701 500.799 327.801 500.899 328.801C500.899 330.601 500.699 331.801 500.799 331.801Z" fill="#263238"></path> <path d="M500.801 331.302C500.801 331.202 499.801 330.902 498.101 330.902C497.301 330.902 496.201 331.002 495.101 331.302C494.601 331.402 494.001 331.602 493.401 331.902C492.801 332.202 492.201 333.002 492.501 333.802C492.701 334.602 493.301 335.102 494.001 335.302C494.701 335.502 495.301 335.402 495.901 335.302C497.001 335.002 497.901 334.502 498.601 334.002C499.901 333.002 500.601 332.102 500.501 332.102C500.401 332.002 499.601 332.702 498.301 333.602C497.601 334.002 496.801 334.502 495.701 334.702C495.201 334.802 494.601 334.802 494.201 334.702C493.701 334.602 493.301 334.202 493.201 333.702C493.101 333.202 493.401 332.802 493.801 332.502C494.201 332.202 494.801 332.102 495.301 331.902C496.301 331.602 497.301 331.502 498.101 331.402C499.701 331.302 500.701 331.502 500.801 331.302Z" fill="#263238"></path> <path d="M514.899 340.703C515.099 340.703 514.899 338.903 515.699 336.903C516.499 334.903 517.899 333.803 517.699 333.603C517.599 333.403 515.899 334.403 514.999 336.603C514.199 338.803 514.799 340.803 514.899 340.703Z" fill="#263238"></path> <path d="M485.8 342.601C485.8 342.601 486.4 342.901 487.4 343.401C488.5 343.801 490 344.401 492 344.801C496 345.801 501.7 346.401 507.9 346.301C514.2 346.201 519.8 345.901 523.9 345.801C525.8 345.701 527.5 345.601 528.7 345.501C529.8 345.401 530.5 345.401 530.5 345.301C530.5 345.301 529.9 345.201 528.7 345.201C527.4 345.201 525.8 345.201 523.9 345.201C519.7 345.301 514.1 345.401 507.9 345.501C501.7 345.601 496 345.101 492.1 344.201C488.2 343.501 485.8 342.501 485.8 342.601Z" fill="#263238"></path> <path d="M484.599 343.6C484.699 343.7 485.799 343 487.699 342.2C489.599 341.4 492.499 340.4 495.599 340.9C498.699 341.4 500.999 343.5 502.399 345C503.899 346.5 504.699 347.5 504.799 347.5C504.899 347.4 504.199 346.3 502.799 344.7C502.099 343.9 501.199 343 499.999 342.1C498.799 341.2 497.399 340.5 495.699 340.3C492.299 339.8 489.399 340.9 487.499 341.9C485.599 342.7 484.499 343.5 484.599 343.6Z" fill="#263238"></path> <path d="M526.4 345.403C526.5 345.303 526.1 344.803 525.8 343.803C525.5 342.803 525.2 341.403 525.5 339.903C525.8 338.403 526.5 337.103 527.2 336.303C527.9 335.503 528.4 335.103 528.3 335.003C528.3 334.903 527.6 335.203 526.9 336.003C526.1 336.803 525.3 338.103 525 339.703C524.7 341.403 525 342.903 525.5 343.903C525.9 344.903 526.4 345.403 526.4 345.403Z" fill="#263238"></path> <path d="M447.501 325.5C447.501 325.5 404.701 332 402.901 332.4C400.301 333 399.601 342.2 403.501 342.5C405.301 342.7 435.201 347.4 439.001 347.6C442.801 347.8 454.801 344.7 454.801 344.7L447.501 325.5Z" fill="#455A64"></path> <path d="M428.4 339.301C428.2 339.301 428.2 337.101 427.1 334.601C426.1 332.101 424.5 330.601 424.6 330.401C424.7 330.201 426.6 331.701 427.7 334.301C428.9 337.001 428.6 339.301 428.4 339.301Z" fill="#263238"></path> <path d="M432.902 337.901C432.702 337.901 432.502 335.901 431.702 333.601C430.902 331.301 429.702 329.601 429.902 329.501C430.002 329.401 431.502 330.901 432.402 333.401C433.202 335.701 433.102 337.901 432.902 337.901Z" fill="#263238"></path> <path d="M437.103 337.202C436.903 337.202 437.303 335.102 436.703 332.702C436.103 330.302 434.703 328.702 434.903 328.602C435.003 328.502 436.703 330.002 437.403 332.602C438.003 335.202 437.303 337.302 437.103 337.202Z" fill="#263238"></path> <path d="M437.002 331.802C436.902 331.802 436.702 330.602 436.902 328.702C437.002 327.702 437.302 326.602 437.702 325.402C437.902 324.802 438.202 324.202 438.502 323.502C438.702 323.202 438.902 322.802 439.302 322.602C439.702 322.302 440.402 322.502 440.702 322.802C441.002 323.202 441.102 323.702 441.102 324.002C441.102 324.402 441.102 324.702 441.002 325.102C440.902 325.802 440.702 326.502 440.502 327.102C440.002 328.302 439.402 329.302 438.802 330.102C437.602 331.702 436.702 332.402 436.602 332.402C436.502 332.302 437.302 331.402 438.402 329.802C438.902 329.002 439.502 328.002 439.902 326.802C440.102 326.202 440.202 325.602 440.302 324.902C440.402 324.302 440.502 323.502 440.102 323.102C439.902 322.902 439.702 322.902 439.602 323.002C439.402 323.102 439.202 323.402 439.102 323.702C438.802 324.302 438.502 324.902 438.302 325.502C437.802 326.702 437.502 327.702 437.402 328.702C437.102 330.602 437.102 331.802 437.002 331.802Z" fill="#263238"></path> <path d="M437.099 331.4C437.099 331.3 438.099 331.1 439.799 331.3C440.599 331.4 441.599 331.6 442.699 332C443.199 332.2 443.799 332.4 444.299 332.8C444.799 333.2 445.299 334 444.999 334.8C444.699 335.5 443.999 336 443.299 336.1C442.599 336.2 441.999 336.1 441.399 335.9C440.299 335.5 439.499 334.8 438.899 334.3C437.699 333.1 437.099 332.2 437.199 332.2C437.299 332.1 437.999 332.9 439.199 334C439.799 334.5 440.599 335.1 441.599 335.4C442.099 335.6 442.599 335.7 443.099 335.6C443.599 335.5 444.099 335.2 444.199 334.7C444.399 334.3 444.099 333.8 443.699 333.5C443.299 333.2 442.799 332.9 442.299 332.7C441.299 332.3 440.399 332 439.599 331.9C438.199 331.5 437.099 331.5 437.099 331.4Z" fill="#263238"></path> <path d="M422.002 339.001C421.802 339.001 422.202 337.201 421.602 335.201C421.102 333.101 419.802 331.901 420.002 331.701C420.102 331.501 421.702 332.701 422.302 335.001C422.902 337.201 422.102 339.101 422.002 339.001Z" fill="#263238"></path> <path d="M450.699 344.402C450.699 344.402 450.099 344.602 448.999 345.002C447.899 345.302 446.299 345.702 444.199 345.902C440.099 346.402 434.399 346.302 428.199 345.502C421.999 344.702 416.399 343.702 412.399 343.102C410.499 342.802 408.899 342.502 407.599 342.302C406.499 342.102 405.899 341.902 405.899 341.902C405.899 341.902 406.499 341.902 407.699 342.002C408.999 342.202 410.599 342.402 412.499 342.602C416.699 343.202 422.199 344.002 428.299 344.802C434.499 345.602 440.099 345.802 444.199 345.402C448.199 345.002 450.599 344.202 450.699 344.402Z" fill="#263238"></path> <path d="M451.801 345.402C451.701 345.502 450.701 344.702 448.901 343.602C447.101 342.602 444.401 341.202 441.201 341.402C438.001 341.502 435.601 343.302 433.901 344.602C432.301 345.902 431.301 346.802 431.201 346.802C431.101 346.702 432.001 345.702 433.601 344.302C434.401 343.602 435.401 342.802 436.701 342.102C437.901 341.402 439.501 340.902 441.201 340.802C444.601 340.702 447.401 342.202 449.201 343.302C450.901 344.402 451.801 345.402 451.801 345.402Z" fill="#263238"></path> <path d="M314.298 149.501C314.598 148.701 315.598 148.301 315.598 148.301L314.598 146.301C314.598 146.301 314.698 145.101 315.198 144.201C315.698 143.301 317.398 143.401 317.398 143.401L317.098 142.801C316.698 142.001 316.798 141.001 317.298 140.301C317.398 140.201 317.498 140.101 317.598 140.001C318.298 139.101 319.798 138.901 319.798 138.901C319.798 138.901 318.798 137.001 319.198 136.201C319.798 135.101 321.898 134.001 323.498 134.501C325.198 135.101 328.798 136.801 331.298 138.201C332.298 138.701 333.498 138.301 333.898 137.201C334.598 135.201 335.998 132.201 337.698 130.101C339.598 127.801 341.298 128.001 342.398 128.401C342.898 128.601 343.098 129.201 342.798 129.601C341.998 130.901 340.498 133.501 340.098 134.601C339.598 135.901 339.098 145.801 339.098 145.801L341.798 150.901L368.998 193.901C368.998 193.901 410.098 166.201 409.998 165.501L411.898 197.301L380.898 217.901C375.498 221.501 368.798 222.501 362.598 220.601C356.398 218.801 351.398 214.301 348.798 208.401L327.898 163.101L325.398 159.401L315.598 153.101C315.598 153.201 313.998 150.401 314.298 149.501Z" fill="#FFBE9D"></path> <path d="M318.798 138.901C318.798 138.901 318.898 139.001 318.998 139.101C319.198 139.201 319.398 139.401 319.598 139.601C320.098 140.001 320.898 140.601 321.798 141.301C322.698 142.001 323.898 142.901 325.098 143.801C325.698 144.301 326.298 144.801 327.098 145.201C327.798 145.601 328.798 145.901 329.698 145.501C330.098 145.301 330.498 144.901 330.698 144.501C330.898 144.101 330.998 143.601 330.898 143.201C330.898 142.301 330.398 141.501 329.898 141.001C329.398 140.401 328.798 139.901 328.298 139.501C327.798 139.101 327.298 138.601 326.798 138.301C325.898 137.601 325.198 137.001 324.598 136.501C324.398 136.301 324.198 136.201 323.998 136.001C323.898 135.901 323.798 135.801 323.798 135.801C323.798 135.801 323.898 135.901 323.998 136.001C324.098 136.101 324.298 136.301 324.598 136.501C325.098 137.001 325.798 137.601 326.698 138.301C327.098 138.701 327.598 139.101 328.198 139.601C328.698 140.101 329.298 140.501 329.798 141.101C330.298 141.701 330.698 142.401 330.798 143.201C330.898 144.001 330.498 144.901 329.698 145.301C329.298 145.501 328.898 145.501 328.498 145.401C328.098 145.301 327.698 145.201 327.298 145.001C326.598 144.601 325.998 144.001 325.298 143.601C324.098 142.701 322.898 141.801 321.998 141.101C321.098 140.401 320.298 139.901 319.798 139.501C319.598 139.301 319.298 139.201 319.198 139.101C318.898 139.001 318.798 138.901 318.798 138.901Z" fill="#EB996E"></path> <path d="M316.698 143.5C316.698 143.5 316.898 143.6 317.198 143.9C317.498 144.1 317.898 144.5 318.498 144.8C319.598 145.6 321.198 146.6 322.998 147.7C323.398 148 323.898 148.2 324.298 148.4C324.798 148.6 325.298 148.7 325.698 148.7C326.698 148.6 327.298 147.9 327.598 147.2C327.798 146.5 327.598 145.9 327.498 145.6C327.398 145.4 327.298 145.3 327.298 145.2C327.198 145.1 327.198 145.1 327.198 145.1C327.198 145.1 327.298 145.3 327.498 145.6C327.598 145.9 327.798 146.5 327.498 147.1C327.298 147.7 326.698 148.3 325.798 148.4C325.398 148.4 324.898 148.3 324.498 148.1C324.098 147.9 323.598 147.6 323.198 147.4C321.398 146.3 319.798 145.3 318.698 144.6C318.198 144.3 317.698 144 317.398 143.7C316.798 143.6 316.698 143.5 316.698 143.5Z" fill="#EB996E"></path> <path d="M315.398 148.1C315.398 148.1 315.598 148.2 315.898 148.4C316.298 148.6 316.698 148.8 317.198 149.1C318.298 149.7 319.898 150.4 321.598 151.2C321.998 151.4 322.498 151.6 322.898 151.8C323.298 151.9 323.798 152 324.198 151.9C324.598 151.8 324.998 151.5 325.198 151.2C325.398 150.8 325.398 150.5 325.398 150.1C325.298 149.4 324.898 149 324.598 148.8C324.298 148.6 324.098 148.5 324.098 148.5C324.098 148.5 324.198 148.6 324.498 148.9C324.698 149.1 325.098 149.5 325.198 150.1C325.198 150.4 325.198 150.7 324.998 151C324.798 151.3 324.498 151.5 324.098 151.6C323.698 151.7 323.298 151.6 322.898 151.5C322.498 151.4 322.098 151.1 321.598 150.9C319.898 150.1 318.298 149.4 317.098 148.8C316.598 148.6 316.098 148.4 315.698 148.2C315.598 148.1 315.398 148 315.398 148.1Z" fill="#EB996E"></path> <path d="M314.698 152.3C314.698 152.3 315.298 152.5 316.298 152.7C317.298 152.9 318.598 153.2 320.098 153.5C320.498 153.6 320.798 153.6 321.198 153.7C321.498 153.8 321.898 153.8 322.298 153.8C322.598 153.8 322.998 153.7 323.198 153.5C323.498 153.3 323.598 153 323.598 152.7C323.598 152.1 323.198 151.8 322.998 151.7C322.798 151.5 322.598 151.5 322.598 151.5C322.598 151.5 322.698 151.6 322.898 151.8C323.098 152 323.398 152.3 323.398 152.8C323.398 153 323.298 153.3 323.098 153.4C322.898 153.6 322.598 153.7 322.298 153.7C321.998 153.7 321.698 153.6 321.298 153.6C320.898 153.5 320.598 153.5 320.198 153.4C318.698 153.1 317.398 152.8 316.398 152.7C315.298 152.3 314.698 152.2 314.698 152.3Z" fill="#EB996E"></path> <path d="M325.298 150.299C325.298 150.399 326.498 149.899 328.098 149.999C329.698 150.099 330.798 150.599 330.898 150.499C330.898 150.499 329.798 149.799 328.198 149.699C326.498 149.599 325.298 150.199 325.298 150.299Z" fill="#EB996E"></path> <path d="M472.301 140.8C472.301 140.8 486.101 129.1 482.901 121.1C479.701 113.1 470.801 109.1 466.401 94.5001C462.901 82.8001 442.101 60.3001 417.501 77.2001C417.501 77.2001 409.201 75.9001 404.401 79.7001C399.601 83.5001 398.501 91.1001 396.501 99.8001C393.401 113.3 391.701 123.7 397.701 130.3C403.701 136.9 405.901 138.7 405.601 146.2C405.201 156 400.901 154.7 404.601 161.8L425.301 155.1L425.501 149.4L427.601 154.8L439.601 150.5L472.301 140.8Z" fill="#263238"></path> <path d="M403.503 91.6016C404.803 94.7016 403.703 98.2016 402.503 101.402C401.203 104.502 399.703 107.802 400.403 111.102C401.503 117.002 408.803 120.202 409.603 126.102C410.003 129.302 408.403 132.502 409.103 135.602C409.703 138.602 412.203 140.902 414.903 142.402C417.603 143.902 420.603 144.902 423.103 146.702C423.103 146.702 428.703 151.302 438.203 143.702" fill="#263238"></path> <path d="M442.701 84.0031C445.301 83.4031 447.901 84.9031 448.701 87.4031L468.601 153.303C471.201 161.003 461.501 169.203 453.201 171.903C444.801 174.603 443.201 170.603 440.501 163.403C436.101 151.303 434.501 146.703 434.501 146.803C434.501 146.803 423.401 148.703 416.501 135.803C413.101 129.403 409.501 118.103 406.901 108.803C404.601 100.403 406.501 88.5031 415.001 86.5031L442.701 84.0031Z" fill="#FFBE9D"></path> <path d="M413.9 115.606C414.2 116.506 415.2 117.106 416.2 116.806C417.2 116.506 417.7 115.506 417.5 114.606C417.2 113.706 416.2 113.106 415.2 113.406C414.2 113.706 413.6 114.706 413.9 115.606Z" fill="#263238"></path> <path d="M411.101 113.205C411.401 113.405 412.401 111.905 414.301 111.305C416.201 110.605 417.901 111.105 418.001 110.805C418.101 110.705 417.701 110.305 416.901 110.105C416.201 109.905 415.001 109.805 413.801 110.205C412.601 110.605 411.801 111.405 411.401 112.005C411.101 112.705 411.001 113.105 411.101 113.205Z" fill="#263238"></path> <path d="M432.603 109.602C432.903 110.502 433.903 111.102 434.903 110.802C435.903 110.502 436.403 109.502 436.203 108.602C435.903 107.702 434.903 107.102 433.903 107.402C432.903 107.702 432.303 108.702 432.603 109.602Z" fill="#263238"></path> <path d="M430.003 107.603C430.303 107.803 431.303 106.303 433.203 105.703C435.103 105.003 436.803 105.503 436.903 105.203C437.003 105.103 436.603 104.703 435.803 104.503C435.103 104.303 433.903 104.203 432.703 104.603C431.503 105.003 430.703 105.803 430.303 106.403C429.903 107.003 429.803 107.503 430.003 107.603Z" fill="#263238"></path> <path d="M428 123.902C428 123.802 426.7 124.002 424.7 124.402C424.2 124.502 423.7 124.602 423.5 124.302C423.3 124.002 423.3 123.402 423.3 122.802C423.3 121.502 423.4 120.102 423.4 118.602C423.6 112.702 423.5 107.902 423.3 107.902C423.1 107.902 422.7 112.702 422.6 118.602C422.6 120.102 422.5 121.402 422.5 122.802C422.5 123.402 422.4 124.102 422.9 124.802C423.2 125.102 423.6 125.302 423.9 125.202C424.2 125.202 424.5 125.102 424.8 125.002C426.8 124.402 428 124.002 428 123.902Z" fill="#263238"></path> <path d="M434.4 146.702C434.4 146.702 443.8 144.102 451 135.402C451 135.402 449.6 146.402 435.5 149.902L434.4 146.702Z" fill="#EB996E"></path> <path d="M430.399 128.201C430.799 127.101 431.799 126.201 432.999 125.901C433.799 125.701 434.799 125.801 435.499 126.301C436.199 126.801 436.699 127.701 436.399 128.501C436.099 129.401 435.099 129.901 434.099 130.001C433.099 130.101 432.099 129.701 431.199 129.401C430.899 129.301 430.699 129.201 430.499 129.001C430.299 128.801 430.199 128.501 430.399 128.201Z" fill="#EB996E"></path> <path d="M428.601 102.204C428.901 102.704 430.801 102.104 433.201 101.904C435.601 101.704 437.501 102.004 437.801 101.504C437.901 101.204 437.501 100.804 436.601 100.404C435.801 100.004 434.501 99.8044 433.101 99.9044C431.701 100.004 430.501 100.504 429.701 101.004C428.801 101.404 428.401 101.904 428.601 102.204Z" fill="#263238"></path> <path d="M408.4 106.902C408.9 107.202 410.4 106.302 412.3 105.802C414.2 105.202 415.9 105.102 416.2 104.502C416.3 104.202 415.9 103.902 415.1 103.702C414.3 103.502 413 103.502 411.7 103.902C410.4 104.302 409.4 105.002 408.8 105.702C408.3 106.302 408.2 106.802 408.4 106.902Z" fill="#263238"></path> <path d="M465.801 127.201C462.101 114.701 458.401 102.301 454.601 89.8013C453.801 87.2013 453.001 84.5013 450.801 82.9013C448.801 81.4013 446.101 81.2012 443.601 81.1012C432.701 80.9012 421.801 82.0013 411.201 84.3013C410.701 86.8013 412.901 89.2012 415.301 90.1012C417.801 90.9012 420.401 90.6012 423.001 90.7012C425.601 90.7012 428.401 91.2012 430.201 93.1012C432.101 95.1012 432.201 98.3013 434.001 100.401C437.001 104.001 443.401 103.301 446.401 106.901C448.701 109.701 448.101 113.701 448.801 117.201C449.701 121.201 449.701 121.201 452.801 127.001C454.701 130.601 449.901 137.401 454.701 146.301L464.001 143.701L459.901 130.001L465.401 142.901L465.801 127.201Z" fill="#263238"></path> <path d="M433.602 123.702C433.402 123.802 433.502 124.302 433.502 125.002C433.502 125.702 433.402 126.702 433.002 127.602C432.502 128.502 431.802 129.102 431.202 129.502C430.602 129.902 430.102 130.102 430.202 130.302C430.202 130.502 430.802 130.702 431.702 130.502C432.602 130.302 433.802 129.602 434.502 128.302C435.202 127.002 435.102 125.602 434.702 124.802C434.202 123.902 433.802 123.602 433.602 123.702Z" fill="#263238"></path> <path d="M436.303 93.6016C436.303 93.6016 436.503 93.7016 436.803 93.9016C437.203 94.1016 437.603 94.3016 438.303 94.7016C439.503 95.5016 441.303 96.7016 442.903 98.8016C444.503 100.802 446.003 103.702 446.503 107.102C446.803 108.802 446.703 110.602 446.503 112.502C446.303 114.402 446.003 116.302 446.103 118.402C446.203 119.402 446.403 120.402 446.703 121.402C447.103 122.302 447.503 123.202 448.003 124.002C449.003 125.602 449.903 127.202 450.103 128.902C450.403 130.602 450.203 132.202 450.003 133.702C449.803 135.202 449.503 136.602 449.403 138.002C449.203 140.602 449.603 142.802 450.303 144.202C450.603 144.902 451.003 145.302 451.303 145.602C451.603 145.902 451.703 146.002 451.803 146.002C451.903 146.002 451.203 145.402 450.503 144.102C449.903 142.802 449.503 140.702 449.803 138.102C449.903 136.802 450.203 135.402 450.403 133.902C450.603 132.402 450.803 130.702 450.603 128.902C450.203 125.202 446.703 122.502 446.603 118.502C446.503 116.502 446.703 114.602 446.903 112.702C447.103 110.802 447.203 108.902 446.903 107.202C446.403 103.702 444.803 100.802 443.103 98.8016C441.403 96.7016 439.603 95.5016 438.303 94.8016C437.703 94.4016 437.103 94.2016 436.803 94.1016C436.503 93.7016 436.403 93.6016 436.303 93.6016Z" fill="#263238"></path> <path d="M391.503 149.899C391.503 149.899 391.603 149.999 391.703 149.999C391.803 150.099 392.003 150.199 392.203 150.399C392.703 150.699 393.403 151.099 394.503 151.299C395.503 151.599 396.903 151.699 398.403 151.399C399.903 151.199 401.603 150.499 403.003 149.099C404.403 147.799 405.503 145.799 405.803 143.499C405.903 142.399 405.903 141.199 405.603 139.999C405.303 138.799 404.703 137.699 404.003 136.699C402.503 134.599 400.403 132.899 398.503 131.099C397.503 130.199 396.603 129.199 395.803 127.999C395.003 126.899 394.403 125.599 393.903 124.199C393.003 121.499 392.803 118.699 392.803 115.999C392.903 113.299 393.203 110.699 393.603 108.199C394.403 103.299 395.703 98.8992 396.903 95.3992C398.203 91.7992 399.503 89.0992 400.403 87.1992C400.903 86.2992 401.203 85.4992 401.503 84.9992C401.803 84.4992 401.903 84.1992 401.903 84.1992C401.903 84.1992 401.703 84.3992 401.403 84.8992C401.103 85.3992 400.703 86.0992 400.203 86.9992C399.203 88.8992 397.803 91.5992 396.503 95.1992C395.203 98.7992 393.903 103.099 393.003 108.099C392.603 110.599 392.203 113.199 392.203 115.999C392.103 118.699 392.303 121.599 393.303 124.399C393.803 125.799 394.403 127.099 395.203 128.299C396.003 129.499 397.003 130.499 398.003 131.399C400.003 133.299 402.003 134.899 403.503 136.999C404.203 137.999 404.803 139.099 405.103 140.199C405.403 141.299 405.503 142.499 405.303 143.499C405.003 145.699 404.003 147.599 402.703 148.899C401.403 150.199 399.803 150.899 398.303 151.199C396.803 151.499 395.503 151.399 394.503 151.099C392.503 150.599 391.603 149.799 391.503 149.899Z" fill="#263238"></path> <path d="M476.602 136.3C476.602 136.2 475.202 136.2 473.402 134.7C471.602 133.3 469.602 130.3 469.102 126.1C468.802 124 468.902 121.7 468.902 119.3C468.902 116.8 469.002 114.1 468.302 111.4C468.002 110 467.402 108.7 466.702 107.4C465.902 106.1 464.902 105 463.502 104.2C460.802 102.5 457.502 102.6 454.502 101.6C453.002 101.1 451.702 100.2 450.702 99.1C449.602 98 448.802 96.7 448.002 95.4C446.402 92.9 444.902 90.2 442.402 88.7C441.202 87.9 439.802 87.5 438.502 87.3C437.202 87.1 435.902 87.1 434.602 87.1C432.102 87.2 429.802 87.4 427.802 87C423.702 86.4 420.602 84.7 418.702 83.4C417.702 82.7 417.102 82.1 416.602 81.7C416.402 81.5 416.202 81.3 416.102 81.2C416.002 81.1 415.902 81 415.902 81C415.902 81 416.702 82.1 418.602 83.5C420.502 84.9 423.502 86.7 427.702 87.3C429.802 87.6 432.102 87.5 434.602 87.4C437.002 87.4 439.802 87.4 442.102 88.9C444.402 90.4 445.902 93 447.502 95.5C448.302 96.8 449.202 98.1 450.302 99.2C451.402 100.3 452.802 101.3 454.302 101.8C457.402 102.9 460.702 102.8 463.202 104.4C465.702 105.9 467.102 108.7 467.802 111.3C468.502 114 468.502 116.6 468.402 119.1C468.402 121.6 468.402 123.9 468.602 126C469.102 130.2 471.202 133.3 473.102 134.7C474.102 135.4 474.902 135.8 475.502 135.9C475.802 136 476.002 136 476.202 136.1C476.502 136.3 476.602 136.3 476.602 136.3Z" fill="#455A64"></path> <path d="M466.602 94.8992C466.602 94.7992 465.902 95.1992 464.602 95.3992C463.302 95.5992 461.302 95.4992 459.202 94.4992C457.002 93.4992 454.902 91.6992 452.702 89.3992C451.602 88.2992 450.502 87.0992 449.202 85.9992C447.902 84.8992 446.402 83.7992 444.702 83.0992C443.002 82.3992 441.202 82.1992 439.402 82.0992C437.702 82.0992 436.002 82.1992 434.502 82.3992C432.902 82.4992 431.502 82.6992 430.102 82.6992C428.702 82.6992 427.402 82.5992 426.302 82.3992C424.002 81.9992 422.302 81.0992 421.302 80.1992C420.302 79.2992 419.902 78.6992 419.902 78.6992C419.902 78.6992 420.002 78.8992 420.202 79.1992C420.302 79.3992 420.402 79.4992 420.602 79.6992C420.802 79.8992 421.002 80.0992 421.202 80.2992C422.202 81.1992 423.902 82.1992 426.302 82.6992C427.502 82.8992 428.802 83.0992 430.202 83.0992C431.602 83.0992 433.102 82.9992 434.702 82.7992C436.302 82.6992 437.902 82.4992 439.602 82.5992C441.302 82.5992 443.002 82.8992 444.702 83.4992C448.002 84.8992 450.402 87.4992 452.602 89.6992C454.802 91.8992 457.002 93.7992 459.302 94.7992C461.502 95.7992 463.602 95.7992 464.902 95.5992C465.602 95.4992 466.102 95.2992 466.402 95.0992C466.402 94.9992 466.602 94.8992 466.602 94.8992Z" fill="#455A64"></path> <path d="M394.2 122.901C394.3 122.901 393.8 122.301 393.7 121.001C393.5 119.701 393.9 117.901 395.1 115.901C396.3 113.901 398.4 112.201 400.6 110.101C401.7 109.001 402.8 107.801 403.5 106.301C404.3 104.801 404.6 103.001 404.7 101.301C404.9 97.7008 404.3 94.4008 404.4 91.4008C404.4 88.4008 405.1 85.7008 406.6 83.9008C408 82.1008 409.8 81.3008 411 81.1008C412.3 80.9008 413 81.1008 413 81.1008C413 81.1008 412.8 81.0008 412.5 81.0008C412.2 80.9008 411.7 80.9008 411 81.0008C409.7 81.1008 407.9 82.0008 406.4 83.8008C404.8 85.6008 404 88.4008 404 91.5008C403.9 94.6008 404.5 97.9008 404.3 101.401C404.2 103.101 403.8 104.801 403.1 106.201C402.4 107.701 401.4 108.901 400.3 109.901C398.2 112.001 396 113.801 394.8 115.901C393.6 117.901 393.3 119.901 393.5 121.201C393.6 121.801 393.8 122.301 393.9 122.601C394.1 122.801 394.2 122.901 394.2 122.901Z" fill="#455A64"></path> <path d="M482.702 128.9C482.702 128.9 482.902 128.8 483.302 128.5C483.702 128.2 484.302 127.8 484.902 127.1C486.102 125.7 487.302 123.1 486.802 119.8C486.602 119 486.402 118.2 485.902 117.4C485.402 116.6 484.802 115.9 484.102 115.2C482.702 113.9 480.802 112.9 478.902 112C477.002 111.1 475.002 110.1 473.302 108.5C471.702 106.9 470.802 104.6 470.202 102.3C469.602 99.9 469.202 97.5 468.402 95.3C467.602 93.1 466.602 91 465.502 89.2C463.202 85.5 460.502 82.7 457.902 80.8C455.302 78.8 453.002 77.6 451.302 76.9C450.502 76.5 449.802 76.3 449.302 76.2C448.802 76.1 448.602 76 448.602 76C448.602 76.1 449.502 76.4 451.202 77.1C452.802 77.8 455.202 79.1 457.702 81.1C460.202 83.1 462.902 85.9 465.102 89.5C466.202 91.3 467.202 93.3 467.902 95.5C468.702 97.7 469.102 100 469.702 102.5C470.302 104.9 471.302 107.3 473.002 109C474.702 110.7 476.802 111.7 478.702 112.6C480.602 113.5 482.402 114.5 483.802 115.7C484.502 116.3 485.102 117 485.502 117.8C485.902 118.6 486.202 119.3 486.302 120.1C486.602 121.7 486.402 123.1 486.102 124.3C485.702 125.5 485.202 126.5 484.602 127.2C483.602 128.4 482.702 128.9 482.702 128.9Z" fill="#263238"></path> <path d="M391.401 123.9C391.401 123.9 391.001 123.4 390.301 122.5C389.701 121.6 388.901 120.1 388.501 118.1C388.101 116.1 388.101 113.6 388.701 111C389.301 108.4 390.601 105.7 392.301 103.1C393.901 100.4 395.701 98 397.201 95.8C398.701 93.5 399.901 91.4 400.701 89.5C401.501 87.6 402.001 86 402.101 84.8C402.201 84.2 402.301 83.8 402.301 83.5C402.301 83.2 402.301 83 402.301 83C402.201 83 402.201 83.6 401.901 84.7C401.701 85.8 401.201 87.4 400.301 89.3C399.401 91.2 398.201 93.3 396.701 95.5C395.201 97.7 393.401 100.1 391.701 102.8C390.001 105.5 388.701 108.2 388.101 110.9C387.501 113.6 387.501 116.1 388.001 118.1C388.501 120.1 389.301 121.7 390.001 122.6C390.401 123.1 390.701 123.4 390.901 123.6C391.301 123.8 391.401 123.9 391.401 123.9Z" fill="#263238"></path> <path d="M495.3 263.302L503.5 277.602C503.5 277.602 544.3 262.702 568.2 267.002C577.3 268.702 587 289.302 573.8 302.502C560.9 315.402 537.8 333.702 494.5 339.602C493.4 339.702 475.7 343.602 476.8 343.402C477.9 343.302 451.9 347.402 451.9 347.402L445.8 324.302L397.4 331.902C368.9 330.002 354.9 299.502 372.1 289.602C388.1 280.402 418.2 279.702 418.2 279.702L429.1 262.602L495.3 263.302Z" fill="#263238"></path> <path d="M450.902 348.199C450.802 347.399 450.402 345.299 449.702 340.999C449.302 338.699 448.802 335.899 448.202 332.699C447.902 331.099 447.602 329.399 447.102 327.599C446.902 326.699 446.702 325.799 446.402 324.799C446.302 324.299 446.102 323.899 446.002 323.399C445.802 322.899 445.702 322.399 445.302 321.999L445.202 322.299C455.502 318.599 468.402 313.799 482.102 307.999C490.502 304.399 498.502 300.799 505.502 296.999C509.002 295.099 512.302 293.199 515.102 290.999C517.902 288.899 520.502 286.799 522.902 284.999C527.602 281.299 531.902 278.899 535.102 277.899C535.902 277.599 536.602 277.399 537.202 277.299C537.802 277.099 538.402 276.999 538.802 276.999C539.202 276.899 539.502 276.899 539.802 276.799C540.002 276.799 540.102 276.699 540.102 276.699C540.102 276.699 540.002 276.699 539.802 276.699C539.502 276.699 539.202 276.799 538.802 276.799C538.402 276.899 537.802 276.899 537.202 277.099C536.602 277.199 535.802 277.399 535.002 277.699C533.402 278.199 531.502 278.999 529.402 280.199C527.302 281.399 525.102 282.899 522.702 284.699C520.302 286.499 517.802 288.599 514.902 290.699C512.102 292.799 508.802 294.699 505.302 296.599C498.302 300.299 490.302 303.899 481.902 307.499C468.202 313.299 455.302 318.099 445.102 321.899L444.802 321.999L445.002 322.199C445.302 322.499 445.502 322.999 445.602 323.499C445.802 323.999 445.902 324.399 446.002 324.899C446.302 325.799 446.502 326.799 446.702 327.599C447.102 329.399 447.502 331.099 447.802 332.699C448.402 335.899 448.902 338.699 449.402 340.999C449.802 343.299 450.202 345.099 450.402 346.299C450.502 346.899 450.602 347.399 450.702 347.699C450.802 347.999 450.902 348.199 450.902 348.199Z" fill="#455A64"></path> <path d="M381.399 292.403C381.399 292.403 381.499 292.403 381.699 292.403C381.899 292.403 382.099 292.303 382.499 292.303C383.199 292.203 384.099 292.003 385.399 291.803C387.899 291.403 391.599 291.203 396.099 291.403C400.599 291.603 405.999 292.503 411.799 294.003C414.699 294.803 417.699 295.703 420.799 296.803C423.899 297.903 426.999 299.103 430.299 300.403C433.499 301.703 436.799 302.703 439.999 303.603C443.199 304.503 446.299 305.203 449.199 305.703C455.099 306.903 460.499 307.603 464.999 308.103C469.499 308.603 473.199 309.003 475.699 309.303C476.899 309.403 477.899 309.503 478.599 309.603C478.899 309.603 479.199 309.603 479.399 309.703C479.599 309.703 479.699 309.703 479.699 309.703C479.699 309.703 479.599 309.703 479.399 309.603C479.199 309.603 478.999 309.503 478.599 309.503C477.899 309.403 476.899 309.303 475.699 309.103C473.099 308.803 469.499 308.303 464.999 307.803C460.499 307.203 455.099 306.503 449.199 305.303C446.299 304.703 443.199 304.003 439.999 303.103C436.899 302.203 433.599 301.203 430.399 299.903C427.199 298.603 423.999 297.403 420.899 296.303C417.799 295.203 414.799 294.303 411.799 293.603C405.999 292.103 400.599 291.303 395.999 291.103C391.399 290.903 387.699 291.203 385.199 291.603C383.899 291.803 382.999 292.003 382.299 292.203C381.999 292.303 381.799 292.303 381.599 292.403C381.499 292.403 381.399 292.403 381.399 292.403Z" fill="#455A64"></path> <path d="M456.001 284.1C456.001 284.4 458.201 285 461.801 285.3C465.401 285.6 470.501 285.7 476.001 285.1C481.501 284.5 486.501 283.4 489.901 282.3C493.401 281.2 495.401 280.2 495.301 279.9C495.101 279.2 486.501 281.5 475.701 282.6C464.901 283.8 456.001 283.4 456.001 284.1Z" fill="#263238"></path> <path d="M417.698 280.103C417.698 280.103 418.298 280.303 419.298 280.503C419.798 280.603 420.398 280.803 421.198 281.003C421.898 281.203 422.798 281.403 423.598 281.703C425.398 282.303 427.498 283.103 429.798 284.203C432.098 285.303 434.498 286.603 436.998 288.003C441.998 291.003 446.198 294.203 449.098 296.503C450.598 297.703 451.798 298.703 452.598 299.303C453.398 300.003 453.898 300.303 453.898 300.303C453.898 300.303 453.498 299.903 452.698 299.103C451.898 298.403 450.798 297.303 449.298 296.103C446.398 293.703 442.198 290.403 437.198 287.403C434.698 285.903 432.198 284.603 429.898 283.603C427.598 282.603 425.498 281.803 423.598 281.203C422.698 280.903 421.898 280.703 421.098 280.503C420.398 280.303 419.698 280.203 419.198 280.103C418.298 280.103 417.698 280.003 417.698 280.103Z" fill="#455A64"></path> <path d="M463.098 300.402C463.098 300.502 464.198 300.202 465.998 299.602C467.698 299.002 470.098 297.902 472.498 296.602C474.898 295.302 477.098 294.202 478.798 293.302C480.398 292.502 481.398 292.002 481.398 291.902C481.398 291.802 480.298 292.202 478.598 293.002C476.898 293.802 474.698 294.902 472.198 296.202C469.698 297.502 467.398 298.602 465.798 299.302C464.098 300.002 463.098 300.302 463.098 300.402Z" fill="#455A64"></path> <path d="M458.699 265C458.599 265 458.799 266.5 458.899 268.9C459.099 271.3 459.199 274.6 459.099 278.3C458.999 282 458.799 285.3 458.499 287.7C458.299 290.1 458.099 291.6 458.099 291.6C458.099 291.6 458.199 291.2 458.399 290.6C458.499 289.9 458.699 289 458.899 287.8C459.199 285.4 459.599 282.1 459.599 278.4C459.699 274.7 459.499 271.3 459.199 268.9C459.099 267.7 458.999 266.7 458.799 266.1C458.799 265.3 458.699 265 458.699 265Z" fill="#455A64"></path> <path d="M454.101 266.4C454.101 266.4 454.301 266.6 454.501 266.9C454.801 267.2 455.001 267.7 455.101 268.4C455.201 269.1 455.101 269.9 454.501 270.6C453.901 271.3 452.801 271.5 451.901 271.1C450.901 270.7 450.201 269.9 450.201 269C450.201 268.1 450.701 267.4 451.201 266.9C451.701 266.4 452.301 266.3 452.601 266.2C453.001 266.1 453.201 266.2 453.201 266.1C453.201 266.1 453.001 266 452.601 266C452.201 266 451.501 266.2 450.901 266.6C450.301 267.1 449.701 267.9 449.701 269C449.701 270.1 450.501 271.2 451.701 271.6C452.801 272 454.201 271.8 454.801 270.9C455.501 270.1 455.601 269.1 455.401 268.3C455.201 267.5 454.901 267 454.501 266.7C454.401 266.5 454.101 266.4 454.101 266.4Z" fill="#455A64"></path> <path d="M441.702 250.001C441.702 250.001 442.002 250.401 442.502 251.001C443.002 251.601 443.802 252.501 444.902 253.501C446.002 254.501 447.302 255.701 448.902 256.801C450.502 257.901 452.302 259.101 454.302 260.101C456.302 261.101 458.302 261.901 460.202 262.501C462.102 263.101 463.802 263.501 465.302 263.701C466.802 263.901 467.902 264.101 468.802 264.101C469.602 264.101 470.102 264.101 470.102 264.101C470.102 264.001 468.302 263.901 465.402 263.301C464.002 263.001 462.302 262.601 460.402 262.001C458.602 261.401 456.602 260.601 454.602 259.601C452.602 258.601 450.802 257.501 449.202 256.401C447.602 255.301 446.302 254.201 445.202 253.201C443.002 251.301 441.802 249.901 441.702 250.001Z" fill="#263238"></path> <path d="M423.401 261.102C423.401 261.302 425.201 261.302 427.301 261.802C429.401 262.302 431.001 263.102 431.101 263.002C431.201 262.902 429.601 261.802 427.401 261.302C425.301 260.702 423.401 260.902 423.401 261.102Z" fill="#263238"></path> <g opacity="0.3"> <path d="M465.398 263.599C456.798 262.099 448.798 257.399 443.098 250.699C441.998 253.799 442.898 257.599 445.298 259.899C442.798 261.099 439.798 260.299 436.998 259.899C434.198 259.499 430.798 259.899 429.498 262.399C441.898 263.599 454.398 263.899 466.898 263.499" fill="black"></path> </g> <path d="M490.202 244.001C490.302 244.101 491.502 242.401 494.502 241.201C496.002 240.601 497.902 240.201 500.002 240.301C502.102 240.401 504.402 240.901 506.502 242.101C510.902 244.401 513.402 248.201 515.402 250.701C516.302 252.001 516.902 253.201 517.402 254.001C517.802 254.801 518.102 255.201 518.102 255.201C518.102 255.201 518.002 254.701 517.602 253.901C517.202 253.101 516.702 251.901 515.802 250.501C514.902 249.201 513.702 247.701 512.302 246.001C510.902 244.401 509.002 242.801 506.802 241.601C504.602 240.401 502.202 239.901 500.002 239.801C497.802 239.801 495.902 240.201 494.402 240.901C492.902 241.501 491.802 242.401 491.202 243.001C490.902 243.301 490.602 243.601 490.502 243.801C490.302 243.901 490.202 244.001 490.202 244.001Z" fill="#263238"></path> <path d="M464.1 148.102L478 151.002L471 177.202L446.3 182.502L429.4 170.402L427 156.002L441.6 150.502L464.1 148.102Z" fill="#FFBE9D"></path> <path d="M473.899 149.902C473.899 149.902 464.499 177.302 446.999 174.802C429.499 172.302 430.999 154.502 430.999 154.502C430.999 154.502 412.799 160.102 407.099 166.002C401.499 171.902 404.799 184.802 404.799 184.802L409.499 208.002L419.799 252.502C419.799 252.502 415.899 264.602 425.899 267.602L429.099 262.602L489.399 264.302C489.399 264.302 502.299 279.202 506.299 274.002C510.299 268.902 514.199 258.902 514.199 258.902L486.499 153.202L473.899 149.902Z" fill="#455A64"></path> <path d="M411.901 162.5C411.401 162.8 369.101 193.5 369.101 193.5C369.101 193.5 372.401 218.8 352.101 214.8C352.101 214.8 360.301 235.9 371.401 231.5C374.601 230.2 413.501 205.6 413.501 205.6L421.801 187.9L411.901 162.5Z" fill="#455A64"></path> <path d="M473.899 151.301C473.899 151.301 474.899 151.301 476.499 151.501C484.799 152.301 515.299 158.601 518.199 180.201C519.699 191.501 520.099 224.501 521.699 238.301C521.699 238.301 519.099 257.501 518.199 261.101C516.499 267.401 485.899 257.301 485.899 257.301L485.799 196.301L474.899 151.401" fill="#455A64"></path> <path d="M493.201 206.703C493.201 206.703 493.201 206.903 493.201 207.203C493.201 207.503 493.201 208.003 493.101 208.603C493.001 209.803 492.601 211.603 491.801 213.603C491.001 215.703 489.801 218.003 488.601 220.703C488.001 222.003 487.401 223.503 487.001 225.003C486.601 226.603 486.301 228.203 486.201 229.903C485.901 233.303 486.201 236.503 486.401 239.403C486.701 242.303 486.901 244.903 487.301 247.103C487.701 249.303 488.101 251.003 488.501 252.203C488.701 252.803 488.901 253.203 489.001 253.503C489.101 253.803 489.201 254.003 489.201 253.903C489.201 253.903 489.001 253.203 488.701 252.103C488.401 250.903 488.001 249.203 487.701 247.003C487.401 244.803 487.201 242.203 487.001 239.303C486.801 236.403 486.501 233.203 486.801 229.803C486.901 228.103 487.201 226.503 487.601 225.003C488.001 223.503 488.601 222.103 489.101 220.703C490.301 218.003 491.401 215.703 492.201 213.603C493.001 211.503 493.301 209.703 493.301 208.503C493.301 207.903 493.301 207.403 493.301 207.103C493.301 206.903 493.301 206.703 493.201 206.703Z" fill="#263238"></path> <path d="M491.898 199C491.798 199 491.698 200.6 491.398 203C491.098 205.5 490.398 208.9 489.198 212.5C488.898 213.4 488.598 214.3 488.198 215.1C488.098 215.3 487.998 215.6 487.998 215.7C487.898 215.9 487.798 216.1 487.598 216.3C487.398 216.7 487.098 217 486.998 217.4C486.198 218.9 485.898 220.4 485.898 221.7C485.898 223 486.198 224 486.498 224.7C486.798 225.3 486.998 225.7 487.098 225.7C487.198 225.7 486.298 224.3 486.298 221.8C486.298 220.6 486.698 219.1 487.498 217.7C487.698 217.3 487.898 217 488.098 216.6C488.198 216.4 488.298 216.2 488.498 216.1C488.698 215.8 488.698 215.7 488.798 215.4C489.098 214.6 489.498 213.7 489.798 212.8C490.998 209.1 491.698 205.7 491.898 203.2C491.998 201.9 492.098 200.9 492.098 200.2C491.898 199.4 491.898 199 491.898 199Z" fill="#263238"></path> <path d="M490.601 189.902C490.701 189.902 491.101 188.702 492.001 186.702C492.901 184.702 494.301 182.102 496.201 179.402C498.101 176.702 500.201 174.502 501.701 173.002C503.301 171.502 504.301 170.702 504.301 170.602C504.301 170.602 504.001 170.802 503.501 171.102C503.001 171.502 502.301 172.002 501.501 172.702C499.801 174.102 497.701 176.302 495.801 179.102C493.901 181.802 492.501 184.602 491.701 186.602C491.301 187.602 491.001 188.502 490.801 189.002C490.701 189.502 490.601 189.802 490.601 189.902Z" fill="#263238"></path> <path d="M403.899 171.902C403.799 171.902 403.899 172.802 404.099 174.302C404.299 175.802 404.499 177.802 404.799 180.102C404.999 182.402 405.199 184.402 405.299 185.902C405.399 187.402 405.499 188.302 405.599 188.302C405.699 188.302 405.699 187.402 405.699 185.902C405.699 184.402 405.499 182.302 405.299 180.002C405.099 177.702 404.799 175.702 404.499 174.202C404.199 172.802 403.999 171.902 403.899 171.902Z" fill="#263238"></path> <path d="M395.198 197.602C395.198 197.702 396.498 197.802 398.598 198.402C400.598 199.002 403.398 200.202 405.598 202.502C406.698 203.702 407.598 204.902 408.298 206.202C408.998 207.402 409.498 208.602 409.798 209.602C409.998 210.102 410.098 210.502 410.298 211.002C410.398 211.402 410.498 211.702 410.598 212.002C410.798 212.602 410.898 212.902 410.898 212.902C410.898 212.902 410.898 212.602 410.798 212.002C410.698 211.702 410.698 211.302 410.598 210.902C410.498 210.502 410.298 210.002 410.198 209.502C409.898 208.502 409.398 207.302 408.698 206.002C407.998 204.702 407.098 203.402 405.998 202.202C403.698 199.802 400.798 198.602 398.698 198.102C398.198 198.002 397.698 197.902 397.298 197.802C396.898 197.702 396.498 197.702 396.198 197.702C395.598 197.602 395.198 197.602 395.198 197.602Z" fill="#263238"></path> <path d="M367.201 225.503C367.201 225.503 367.501 225.103 367.901 224.403C368.101 224.003 368.401 223.603 368.601 223.003C368.801 222.503 369.201 221.803 369.401 221.103C370.001 219.703 370.501 218.003 371.001 216.003C371.501 214.103 371.801 211.903 372.001 209.603C372.101 207.303 372.101 205.103 371.901 203.103C371.701 201.103 371.401 199.303 371.001 197.903C370.801 197.203 370.601 196.503 370.401 195.903C370.201 195.303 370.101 194.803 369.901 194.403C369.601 193.603 369.401 193.203 369.401 193.203C369.301 193.203 370.001 195.003 370.601 197.903C370.901 199.403 371.201 201.103 371.401 203.103C371.601 205.103 371.601 207.203 371.501 209.503C371.301 211.803 371.001 213.903 370.601 215.803C370.101 217.703 369.601 219.403 369.101 220.803C368.001 223.803 367.101 225.403 367.201 225.503Z" fill="#263238"></path> <path d="M378.199 217.901C378.199 217.901 378.399 217.501 378.599 216.801C378.799 216.101 379.099 215.101 379.199 213.801C379.599 211.201 379.499 207.501 378.299 203.601C377.099 199.701 374.999 196.701 373.199 194.801C372.299 193.901 371.199 193.301 370.499 193.301C370.099 193.301 369.799 193.401 369.599 193.501C369.399 193.601 369.299 193.701 369.399 193.701C369.399 193.801 369.799 193.501 370.499 193.601C371.199 193.701 372.099 194.201 372.999 195.101C374.699 197.001 376.699 200.101 377.899 203.801C379.099 207.601 379.199 211.201 378.999 213.801C378.599 216.401 378.099 217.901 378.199 217.901Z" fill="#263238"></path> <path d="M447 213C447 213 447.1 213.4 447.2 214.2C447.3 214.6 447.4 215 447.6 215.6C447.8 216.1 448 216.7 448.3 217.4C448.8 218.7 449.6 220.2 450.6 221.7C451.6 223.2 452.9 224.9 454.3 226.4C455.8 227.9 457.4 229.2 458.9 230.3C460.4 231.3 461.9 232.1 463.2 232.7C463.8 233 464.4 233.2 464.9 233.4C465.4 233.6 465.9 233.7 466.3 233.8C467.1 234 467.5 234.1 467.5 234.1C467.5 234 465.9 233.5 463.4 232.3C462.2 231.7 460.7 230.9 459.2 229.9C457.7 228.8 456.2 227.6 454.7 226.1C453.2 224.6 452 223 451 221.5C450 220 449.2 218.5 448.7 217.3C447.5 214.6 447.1 212.9 447 213Z" fill="#263238"></path> <g opacity="0.3"> <path d="M481.599 222.901C483.499 215.901 485.399 208.901 487.399 201.901C487.699 200.901 488.099 199.701 489.199 199.501C490.199 199.301 491.099 200.201 491.199 201.201C491.399 202.201 491.299 203.301 491.299 204.301C490.799 208.901 490.499 212.001 488.399 215.501C484.299 222.401 486.999 225.701 486.999 225.701C486.699 234.101 487.399 245.601 489.999 254.201L487.499 264.601C485.199 256.901 479.799 250.401 478.899 242.401C478.099 235.801 479.899 229.201 481.599 222.901Z" fill="black"></path> </g> <g opacity="0.3"> <path d="M409.5 208.101C402.7 211.701 396.6 216.601 389.9 220.401C392.5 215.001 396.9 209.601 402.2 206.701C403.6 205.901 405.2 205.201 406.8 205.501C408.4 205.701 409.6 206.601 409.3 208.201" fill="black"></path> </g> <g opacity="0.3"> <path d="M370.3 193.103C372.6 193.003 374.4 195.203 375.6 197.203C378.8 203.003 380.2 209.703 379.4 216.303C379.3 217.503 378.8 218.903 377.7 219.103C376.9 219.303 376 218.603 375.6 217.903C375.2 217.103 375.2 216.203 375.2 215.403C375.2 211.403 375.5 207.403 374.9 203.403C374.3 199.403 372.8 195.403 369.9 192.703" fill="black"></path> </g> <path d="M475.998 200.6C475.998 200.6 475.898 200.6 475.798 200.6C475.598 200.6 475.398 200.6 475.098 200.6C474.498 200.6 473.598 200.5 472.398 200.5C469.998 200.4 466.498 200.2 462.198 200C453.398 199.6 440.798 199.1 425.898 198.5H425.698V198.7C425.398 210.9 425.098 224.9 424.698 239.8C424.698 240.3 424.698 240.8 424.698 241.3V241.6H424.998C441.398 241.8 456.798 243.1 469.698 244.9H469.898L469.998 244.7C473.598 231.6 474.898 220.4 475.298 212.5C475.498 208.6 475.598 205.5 475.598 203.4C475.598 202.3 475.598 201.5 475.598 201C475.598 200.7 475.598 200.5 475.598 200.4C475.598 200.3 475.598 200.2 475.598 200.2C475.598 200.2 475.598 200.3 475.598 200.4C475.598 200.6 475.598 200.8 475.598 201C475.598 201.6 475.598 202.4 475.598 203.4C475.598 205.5 475.498 208.6 475.198 212.5C474.698 220.3 473.298 231.6 469.698 244.6L469.898 244.4C456.998 242.6 441.598 241.2 425.198 241L425.498 241.3C425.498 240.8 425.498 240.3 425.498 239.8C425.798 224.9 426.198 210.9 426.398 198.7L426.198 198.9C441.098 199.5 453.598 199.9 462.498 200.3C466.898 200.4 470.398 200.6 472.698 200.6C473.898 200.6 474.798 200.7 475.398 200.7C475.698 200.7 475.898 200.7 476.098 200.7C475.998 200.6 475.998 200.6 475.998 200.6Z" fill="white"></path> <path d="M462.901 230.902C463.001 230.902 464.301 224.202 465.701 215.802C467.101 207.402 468.101 200.602 468.001 200.602C467.901 200.602 466.601 207.302 465.201 215.702C463.701 224.102 462.701 230.902 462.901 230.902Z" fill="white"></path> <path d="M461.4 243.801C461.5 243.801 462 241.401 462.5 238.301C463 235.301 463.2 232.801 463.1 232.801C463 232.801 462.5 235.201 462 238.301C461.5 241.301 461.2 243.701 461.4 243.801Z" fill="white"></path> <path d="M452.801 224.201C452.801 224.201 452.901 223.901 453.101 223.301C453.201 222.701 453.401 221.801 453.601 220.701C454.001 218.501 454.501 215.501 454.801 212.101C455.101 208.701 455.301 205.601 455.301 203.401C455.301 202.301 455.301 201.401 455.301 200.801C455.301 200.201 455.201 199.801 455.201 199.801C455.101 199.801 455.101 201.201 454.901 203.401C454.801 205.601 454.601 208.701 454.301 212.001C454.001 215.401 453.501 218.401 453.201 220.601C452.901 222.801 452.701 224.201 452.801 224.201Z" fill="white"></path> <path d="M453.897 242.403C453.997 242.403 454.598 239.303 454.998 235.303C455.498 231.403 455.798 228.203 455.598 228.203C455.498 228.203 454.898 231.303 454.498 235.303C453.998 239.203 453.697 242.403 453.897 242.403Z" fill="white"></path> <path d="M442.598 241.601C442.598 241.601 442.698 241.001 442.798 240.001C442.898 238.801 442.998 237.301 443.198 235.501C443.498 231.701 443.998 226.501 444.698 220.701C445.398 214.901 446.098 209.701 446.598 205.901C446.898 204.101 447.098 202.601 447.198 201.401C447.298 200.301 447.398 199.801 447.398 199.801C447.398 199.801 447.198 200.401 446.998 201.401C446.798 202.401 446.498 204.001 446.198 205.801C445.598 209.601 444.798 214.801 444.098 220.601C443.398 226.401 442.998 231.601 442.798 235.401C442.698 237.301 442.598 238.801 442.598 239.901C442.498 241.001 442.498 241.601 442.598 241.601Z" fill="white"></path> <path d="M433 242.202C433 242.202 433.1 241.602 433.1 240.502C433.1 239.302 433.1 237.802 433.1 235.902C433.1 232.002 433.2 226.702 433.5 220.802C433.8 214.902 434.2 209.602 434.5 205.702C434.7 203.802 434.8 202.302 434.9 201.102C435 200.002 435 199.402 435 199.402C435 199.402 434.9 200.002 434.7 201.102C434.5 202.202 434.4 203.702 434.1 205.602C433.7 209.402 433.2 214.802 432.9 220.702C432.6 226.602 432.6 231.902 432.6 235.802C432.6 237.702 432.7 239.302 432.7 240.402C432.9 241.602 432.9 242.202 433 242.202Z" fill="white"></path> <g opacity="0.3"> <path d="M466.698 234.102C465.198 235.102 463.298 235.502 461.398 235.402C459.598 235.302 457.798 234.702 456.098 234.002C453.798 233.102 451.698 231.802 449.998 230.002C448.298 228.002 447.398 225.502 446.898 222.902C446.498 220.302 446.598 217.702 446.598 215.102C446.598 215.002 446.598 214.902 446.698 214.802C446.798 214.602 447.098 214.602 447.298 214.802C447.498 214.902 447.498 215.102 447.598 215.402C450.598 224.102 457.998 231.202 466.898 233.602" fill="black"></path> </g> <path d="M472.901 317.802L479.001 306.302L492.801 242.002C492.801 242.002 505.401 234.702 515.801 250.702C516.201 251.302 501.601 297.402 497.501 310.202L496.901 322.502C496.901 322.502 497.601 337.002 496.901 338.302C496.201 339.602 494.401 340.302 494.401 340.302C494.401 340.302 494.901 343.902 490.801 344.302C490.801 344.302 490.401 348.302 487.401 347.702C484.301 347.202 483.201 345.202 483.201 345.202C483.201 345.202 483.201 350.302 480.501 349.702C477.801 349.102 477.301 347.002 476.801 346.302C476.301 345.602 475.701 338.102 475.701 338.102V325.802L468.601 331.502C466.601 332.502 463.601 333.802 461.901 332.302L472.901 317.802Z" fill="#FFBE9D"></path> <path d="M475.701 325.203C475.601 325.203 475.101 328.203 475.301 331.803C475.401 333.503 475.501 335.003 475.501 336.503C475.601 337.703 475.601 338.403 475.701 338.403C475.901 338.403 476.001 335.403 475.801 331.803C475.601 328.103 475.801 325.203 475.701 325.203Z" fill="#EB996E"></path> <path d="M483.499 333.703C483.399 333.703 483.199 336.403 483.199 339.803C483.199 343.203 483.199 345.903 483.399 345.903C483.499 345.903 483.699 343.203 483.699 339.803C483.699 336.403 483.599 333.703 483.499 333.703Z" fill="#EB996E"></path> <path d="M490 335.902C489.9 335.902 489.6 337.802 489.9 340.202C490.1 342.602 490.7 344.402 490.8 344.402C490.9 344.402 490.6 342.502 490.4 340.202C490.2 337.802 490.2 336.002 490 335.902Z" fill="#EB996E"></path> <path d="M494.202 334.5C494.102 334.5 494.102 335.7 494.202 337.3C494.302 338.8 494.602 340 494.702 340C494.802 340 494.802 338.8 494.702 337.2C494.602 335.7 494.402 334.5 494.202 334.5Z" fill="#EB996E"></path> <path d="M357.498 96.3984L355.598 99.8984L352.098 101.798L355.598 103.698L357.498 107.198L359.398 103.698L362.898 101.798L359.398 99.8984L357.498 96.3984Z" fill="#70B47D"></path> <path d="M344.801 48.9016L342.901 48.8016L341.301 47.6016L341.101 49.6016L340.001 51.2016L341.901 51.3016L343.501 52.5016L343.701 50.5016L344.801 48.9016Z" fill="#70B47D"></path> <path d="M25 206.698L23 206.598L21.4 205.398L21.3 207.398L20.1 208.998L22.1 209.098L23.7 210.298L23.8 208.298L25 206.698Z" fill="#70B47D"></path> <path d="M250.301 107.999L248.301 107.799L246.701 106.699L246.601 108.599L245.401 110.199L247.401 110.399L249.001 111.499L249.101 109.599L250.301 107.999Z" fill="#70B47D"></path> <path d="M298.801 75.9016L295.801 74.2016L294.201 71.1016L292.501 74.1016L289.401 75.7016L292.401 77.4016L294.001 80.5016L295.701 77.5016L298.801 75.9016Z" fill="#70B47D"></path> <path d="M46.8008 246.402L43.8008 244.702L42.2008 241.602L40.4008 244.602L37.4008 246.202L40.4008 247.902L42.0008 251.002L43.7008 248.002L46.8008 246.402Z" fill="#70B47D"></path> <path d="M61.8008 191.601L58.8008 189.801L57.2008 186.801L55.5008 189.801L52.4008 191.401L55.4008 193.101L57.0008 196.201L58.8008 193.201L61.8008 191.601Z" fill="#70B47D"></path> </g> <defs> <clipPath id="clip0_1011_179"> <rect width="692" height="349.7" fill="white" transform="matrix(-1 0 0 1 692 0)"></rect> </clipPath> </defs> </svg> 