<?xml version="1.0" encoding="UTF-8"?> <svg xmlns="http://www.w3.org/2000/svg" width="112" height="19" viewBox="0 0 112 19" fill="none"> <path d="M15.7218 7.28545L11.0122 6.60064L8.90692 2.33035C8.84942 2.21343 8.75482 2.11878 8.63796 2.06125C8.34489 1.91649 7.98875 2.03712 7.84222 2.33035L5.73692 6.60064L1.02737 7.28545C0.897528 7.30401 0.778815 7.36525 0.687926 7.45804C0.578046 7.57104 0.517497 7.72306 0.519583 7.8807C0.52167 8.03833 0.586222 8.18869 0.699055 8.29874L4.10648 11.6226L3.30146 16.316C3.28258 16.4252 3.29466 16.5374 3.33632 16.6401C3.37798 16.7428 3.44755 16.8317 3.53716 16.8968C3.62676 16.9619 3.73281 17.0006 3.84327 17.0085C3.95373 17.0164 4.06419 16.9931 4.16213 16.9414L8.37457 14.7255L12.587 16.9414C12.702 17.0026 12.8356 17.0231 12.9636 17.0008C13.2863 16.9451 13.5033 16.6389 13.4477 16.316L12.6427 11.6226L16.0501 8.29874C16.1428 8.2078 16.204 8.08903 16.2226 7.95912C16.2727 7.63435 16.0464 7.3337 15.7218 7.28545V7.28545Z" fill="#70B47D"></path> <path d="M40.207 7.28438L35.496 6.59971L33.39 2.33028C33.3325 2.21339 33.2379 2.11876 33.121 2.06124C32.8278 1.91651 32.4716 2.03712 32.325 2.33028L30.219 6.59971L25.508 7.28438C25.3781 7.30294 25.2594 7.36417 25.1684 7.45694C25.0585 7.56991 24.998 7.7219 25.0001 7.87951C25.0021 8.03711 25.0667 8.18745 25.1796 8.29747L28.5881 11.6206L27.7828 16.3131C27.7639 16.4222 27.776 16.5345 27.8177 16.6372C27.8593 16.7398 27.9289 16.8287 28.0186 16.8938C28.1082 16.9589 28.2143 16.9976 28.3248 17.0055C28.4353 17.0133 28.5458 16.9901 28.6437 16.9384L32.8575 14.723L37.0713 16.9384C37.1863 16.9996 37.3199 17.02 37.4479 16.9978C37.7708 16.9421 37.9879 16.6359 37.9322 16.3131L37.1269 11.6206L40.5354 8.29747C40.6282 8.20655 40.6894 8.0878 40.708 7.95792C40.7581 7.63321 40.5317 7.33262 40.207 7.28438V7.28438Z" fill="#70B47D"></path> <path d="M63.207 7.28438L58.496 6.59971L56.39 2.33028C56.3325 2.21339 56.2379 2.11876 56.121 2.06124C55.8278 1.91651 55.4716 2.03712 55.325 2.33028L53.219 6.59971L48.508 7.28438C48.3781 7.30294 48.2594 7.36417 48.1684 7.45694C48.0585 7.56991 47.998 7.7219 48.0001 7.87951C48.0021 8.03711 48.0667 8.18745 48.1796 8.29747L51.5881 11.6206L50.7828 16.3131C50.7639 16.4222 50.776 16.5345 50.8177 16.6372C50.8593 16.7398 50.9289 16.8287 51.0186 16.8938C51.1082 16.9589 51.2143 16.9976 51.3248 17.0055C51.4353 17.0133 51.5458 16.9901 51.6437 16.9384L55.8575 14.723L60.0713 16.9384C60.1863 16.9996 60.3199 17.02 60.4479 16.9978C60.7708 16.9421 60.9879 16.6359 60.9322 16.3131L60.1269 11.6206L63.5354 8.29747C63.6282 8.20655 63.6894 8.0878 63.708 7.95792C63.7581 7.63321 63.5317 7.33262 63.207 7.28438V7.28438Z" fill="#70B47D"></path> <path d="M87.0074 7.28438L82.0484 6.59971L79.8316 2.33028C79.7711 2.21339 79.6715 2.11876 79.5484 2.06124C79.2398 1.91651 78.8648 2.03712 78.7105 2.33028L76.4937 6.59971L71.5347 7.28438C71.398 7.30294 71.273 7.36417 71.1773 7.45694C71.0616 7.56991 70.9979 7.7219 71.0001 7.87951C71.0023 8.03711 71.0702 8.18745 71.189 8.29747L74.7769 11.6206L73.9293 16.3131C73.9094 16.4222 73.9221 16.5345 73.966 16.6372C74.0098 16.7398 74.0831 16.8287 74.1774 16.8938C74.2718 16.9589 74.3835 16.9976 74.4998 17.0055C74.6161 17.0133 74.7324 16.9901 74.8355 16.9384L79.2711 14.723L83.7066 16.9384C83.8277 16.9996 83.9683 17.02 84.1031 16.9978C84.4429 16.9421 84.6715 16.6359 84.6129 16.3131L83.7652 11.6206L87.3531 8.29747C87.4508 8.20655 87.5152 8.0878 87.5347 7.95792C87.5875 7.63321 87.3492 7.33262 87.0074 7.28438V7.28438Z" fill="#70B47D"></path> <path d="M110.207 7.28438L105.496 6.59971L103.39 2.33028C103.333 2.21339 103.238 2.11876 103.121 2.06124C102.828 1.91651 102.472 2.03712 102.325 2.33028L100.219 6.59971L95.508 7.28438C95.3781 7.30294 95.2594 7.36417 95.1684 7.45694C95.0585 7.56991 94.998 7.7219 95.0001 7.87951C95.0021 8.03711 95.0667 8.18745 95.1796 8.29747L98.5881 11.6206L97.7828 16.3131C97.7639 16.4222 97.776 16.5345 97.8177 16.6372C97.8593 16.7398 97.9289 16.8287 98.0186 16.8938C98.1082 16.9589 98.2143 16.9976 98.3248 17.0055C98.4353 17.0133 98.5458 16.9901 98.6437 16.9384L102.858 14.723L107.071 16.9384C107.186 16.9996 107.32 17.02 107.448 16.9978C107.771 16.9421 107.988 16.6359 107.932 16.3131L107.127 11.6206L110.535 8.29747C110.628 8.20655 110.689 8.0878 110.708 7.95792C110.758 7.63321 110.532 7.33262 110.207 7.28438V7.28438Z" fill="#70B47D"></path> </svg> 